<svg id="OBJECTS" xmlns="http://www.w3.org/2000/svg" viewBox="0 0 1036.05 980.09"><defs><style>.cls-1{fill:#aaa441;}.cls-2{fill:#a1973a;}.cls-3{fill:#2b673f;}.cls-4{fill:#276039;}.cls-5{fill:#1f502f;}.cls-6{fill:#006d3c;}.cls-7{fill:#00552b;}.cls-8{fill:#006032;}.cls-9{fill:#5c8643;}.cls-10{fill:#547b3b;}.cls-11{fill:#4d6d32;}.cls-12{fill:#8ea940;}.cls-13{fill:#899b39;}.cls-14{fill:#818c32;}</style></defs><path class="cls-1" d="M433.43,280.49a124.67,124.67,0,0,0,11.2,15.8c-4.41,8.25-19.28,38.55-5.13,49,13.87,10.28,8.84-33.09,6.91-47a109.27,109.27,0,0,0,17.07,15.88c-2,9.2-7.92,42.29,8.53,48.51,16,6.06-.31-33.6-6.13-46.78a81.55,81.55,0,0,0,14.1,7.9c1.53,9.19,8.07,42.39,25.76,42.15,16.86-.25-11.68-30.17-22.33-40.78a64.6,64.6,0,0,0,13.47,3.48c12.85,3.5,56.71,14.52,48.1-.75s-39.73-4.75-49-1.24a63,63,0,0,1-9.56-2.37c12.26-4,55.81-18.76,40.16-26.95s-37,19.08-42.15,26.26a74.49,74.49,0,0,1-12.43-6c11.58-5.64,52.6-26.56,35.92-32.43-16.4-5.73-32.92,22.75-37.52,31.44a100.68,100.68,0,0,1-16.86-13.52c12.26-4.43,55-20.75,39.07-28.34-15.51-7.41-34.75,18.39-40.55,26.85a120,120,0,0,1-10.73-12.78c10.54-6.13,51-30.66,33.72-35.25-16.54-4.43-30.66,24.15-34.93,33.72-2.35-3.33-4.48-6.67-6.37-10-2.06-3.6-4-7.29-5.8-11,11.09-4,56-21.19,39.69-28.85-15.65-7.36-34.85,18.81-40.49,27.21-3.56-7.45-6.75-15.1-9.76-22.72,10.91-2.71,58.33-15.22,42.79-24.63-15.05-9.15-37.29,15.64-43.42,23.08l-3.51-9c-1.17-3-2.36-6.13-3.57-9.2,10.59-5,54-26.06,37-32.29C430.68,184.08,414,211.29,409,220.41c-3.39-8.54-7-17.09-11.1-25.37,11.84-3.17,57.27-16.19,41.82-25.2-14.9-8.67-36.27,15.59-42.68,23.51-1.21-2.39-2.45-4.73-3.77-7.06a119.18,119.18,0,0,0-33.39-38.11C345,137.62,329,132.86,313.52,134.47a.94.94,0,0,0-.6.3,1,1,0,0,0-.24.72,1,1,0,0,0,1,.85c15-1.54,30.66,3.06,45,13.38a116.16,116.16,0,0,1,31.14,34.56c-8.69,4-38.56,19-33.72,35.84,4.92,17.13,28.56-23.44,34.61-34.28l.8,1.37c3.25,5.76,6.13,11.72,8.86,17.78-8.57,4.6-37.17,21.33-31.32,37.79s26.44-23.94,32.19-35.85c3.67,8.34,7,16.86,10.19,25.17l.46,1.17c-8.75,3.22-40.05,16-36.43,33.3s30.27-21.33,37.08-31.6c3,7.66,6,15.32,9.33,22.88-8.93,4-38.53,18.64-33.87,35.44s28.22-22.24,34.72-33.57c2.83,6.32,5.88,12.51,9.3,18.5,0,.11.14.22.2.34-7.56,5.95-32.94,27.59-24.26,42.75S429.83,293.24,433.43,280.49Z"/><path class="cls-2" d="M439.5,345.32c11.29,8.39,10.05-18.8,8.17-36.78q-3.23-2.79-6.35-5.69C435.66,315.13,428,336.77,439.5,345.32Z"/><path class="cls-2" d="M494.11,336.42a116.17,116.17,0,0,1-12.68-5.17c2.95,13.14,10,35,24.34,34.78C518.29,365.85,505.7,349.28,494.11,336.42Z"/><path class="cls-2" d="M469.63,324.8q-3.7-2.28-7.26-4.74c-2.2,13-4.27,37.45,9.64,42.71C485.28,367.86,476.37,341.49,469.63,324.8Z"/><path class="cls-2" d="M358.77,149.76c.72.52,1.53,1.06,2.17,1.61l.19-2.19-1.27-1c-11.73-8.35-24.21-13-36.57-13.79-1.2.55-2.38,1.15-3.56,1.74C332.86,136.18,346.29,140.84,358.77,149.76Z"/><path class="cls-2" d="M356.21,220.16c2.37,8.29,9.19,3.07,16.18-5.76-1.31-2.85-2.54-5.73-3.66-8.68q-1.31-3.45-2.41-6.94C359.2,204.9,354,212.33,356.21,220.16Z"/><path class="cls-2" d="M408.05,321.31c6.86,12,16.47-12.46,22-29.59q-2.94-3.08-5.79-6.22C414.28,294.77,401.47,309.84,408.05,321.31Z"/><path class="cls-2" d="M388.09,293.29c3.39,12.26,16.49-4.6,26.06-19.28-1.38-1.61-2.75-3.22-4.11-4.85l-2.88-3.42C396.35,272.5,385.08,282.44,388.09,293.29Z"/><path class="cls-2" d="M375.57,266.7c2.23,10.72,13.07.29,22.71-11.75q-4.21-5.32-8.17-10.82C381.21,249.84,373.68,257.65,375.57,266.7Z"/><path class="cls-2" d="M369.16,242.83c2.87,8,9.2,2.59,15.62-6.5-3.07-4.6-5.81-9.19-8.37-13.93C370.51,228.61,366.63,235.73,369.16,242.83Z"/><path class="cls-3" d="M72.3,191.74a40.9,40.9,0,0,1,9.37-8.13l1.34-.8a13.22,13.22,0,0,1,1.38-.75c1-.48,1.92-.91,2.9-1.31.49-.18,1-.39,1.53-.55s1-.32,1.54-.44a25,25,0,0,1,3.21-.66l1.11,1.3a100.41,100.41,0,0,1-4,11.19c-1.39,3.34-2.72,6.53-4.18,9.57-.34.76-.71,1.53-1.09,2.26-.2.37-.4.74-.61,1.09s-.39.74-.58,1.11c-.41.72-.86,1.43-1.34,2.11s-.9,1.41-1.39,2.1c-1,1.37-1.92,2.82-2.87,4.26a23.64,23.64,0,0,0-1.29,2.24c-.41.75-.82,1.53-1.18,2.3l-1,2.37c-.09.2-.17.4-.26.62a228.92,228.92,0,0,0,25.23,41l.23-.48,2.45-4.09,2.82-3.89,3.18-3.65c1.14-1.14,2.25-2.33,3.35-3.57s2.36-2.33,3.59-3.48a29.22,29.22,0,0,1,4.09-2.79,29.29,29.29,0,0,1,4.6-1.81,46.51,46.51,0,0,1,5-.86,39.45,39.45,0,0,1,5.1,0,35,35,0,0,1,5.07,1.12,22.65,22.65,0,0,1,4.85,2.48l.13,1.71a34.58,34.58,0,0,1-3.67,3.49,42.54,42.54,0,0,1-3.41,2.88,30.88,30.88,0,0,1-3.19,2.51,29.45,29.45,0,0,1-3.06,2.26,24.52,24.52,0,0,1-6.47,3.32c-1.16.46-2.37.91-3.59,1.35a23.73,23.73,0,0,0-3.43,1.78l-3.2,2.18-3.07,2.42-3.06,2.6-2,2a185,185,0,0,0,56.05,44.45l.61-2.76.75-2.85a90.65,90.65,0,0,1,3.91-11.36q.64-1.38,1.38-2.7c.49-.87,1.06-1.71,1.64-2.54s1.26-1.53,1.93-2.33a23.64,23.64,0,0,1,2.16-2.1,34.62,34.62,0,0,1,10.3-6.29,25.91,25.91,0,0,1,12.16-1.79l.8,1.53c-1.89,3.8-3.74,6.82-5.48,9.75s-3.4,5.58-5,8.19c-.4.66-.81,1.28-1.26,1.9A19.71,19.71,0,0,1,185,303a21.72,21.72,0,0,1-1.41,1.76c-.47.59-1,1.15-1.53,1.72a37.86,37.86,0,0,0-5.57,7.46l-1.05,2.1-1,2.17-.69,1.7a217.15,217.15,0,0,0,67,16.46c-.29-1.23-.6-2.44-1-3.66-.37-1.54-.72-3-1.06-4.5a28.23,28.23,0,0,1-.37-4.59A25.55,25.55,0,0,1,239,319a43,43,0,0,1,1.53-4.39,37.67,37.67,0,0,1,2.3-4.12,33.46,33.46,0,0,1,3.07-3.75,22.75,22.75,0,0,1,4.15-3.16l1.61.55a31,31,0,0,1,1.76,4.68,38.54,38.54,0,0,1,1.15,4.21,27.86,27.86,0,0,1,.82,3.92,31.72,31.72,0,0,1,.52,3.74,15.84,15.84,0,0,1,.1,3.64,17.54,17.54,0,0,1-.5,3.61c-.23,1.21-.49,2.46-.75,3.7a26.37,26.37,0,0,0-.4,3.75v1.78c6.8.26,13.79.31,21.07,0a19.78,19.78,0,0,0,19.15-20.41c0-.52-.05-1-.11-1.55a333,333,0,0,0-12-58.81l-2.84-.13-3.58-.09c-1.21,0-2.41.07-3.61.2s-2.39.34-3.57.48a17.17,17.17,0,0,1-3.51.13,15.06,15.06,0,0,1-3.45-.56,35.51,35.51,0,0,1-7-2.61,31.55,31.55,0,0,1-3.66-2,27.94,27.94,0,0,1-3.87-2.79l-.13-1.7a21.67,21.67,0,0,1,3.6-3.3,29.23,29.23,0,0,1,3.81-2.27,31.73,31.73,0,0,1,4-1.53,32.64,32.64,0,0,1,4-.89,19.32,19.32,0,0,1,4-.12,20.6,20.6,0,0,1,4,.8c1.3.43,2.59.89,3.86,1.35s2.28.84,3.43,1.19a237.28,237.28,0,0,0-27.59-54.73l-3.6,1-3.57,1.09-3.51,1.18-3.43,1.27a35.93,35.93,0,0,0-3.3,1.61c-1.06.65-2.1,1.29-3.14,1.9a18.18,18.18,0,0,1-3.17,1.54,15.49,15.49,0,0,1-3.39,1,29.92,29.92,0,0,1-3.63.62,33.83,33.83,0,0,1-3.9.35c-1.41.07-2.83.07-4.24,0a30.4,30.4,0,0,1-4.86-.45l-1-1.41a22,22,0,0,1,1.7-4.76,31.66,31.66,0,0,1,2.51-3.94,31.22,31.22,0,0,1,3.07-3.33,33.8,33.8,0,0,1,3.48-2.71,22.36,22.36,0,0,1,3.86-2,25.64,25.64,0,0,1,4.23-1c1.45-.15,2.91-.29,4.37-.41a35.79,35.79,0,0,0,4.29-.35l4.26-.32h4.23l2.07.09a164.93,164.93,0,0,0-69.34-52.64L174,128l-.37,3.07-.28,3.07-.2,3.06c0,1,0,2,.14,3.07s.31,2.05.45,3.06a12.76,12.76,0,0,1,.14,3,10.6,10.6,0,0,1-.53,2.9,21.87,21.87,0,0,1-1,3,23,23,0,0,1-1.4,3.07,27.87,27.87,0,0,1-1.87,3.27c-.35.56-.7,1.14-1.15,1.74l-.66.91c-.26.3-.49.61-.78.93l-1.68.28c-.37-.23-.66-.48-1-.71l-.87-.75a17.11,17.11,0,0,1-1.54-1.53A24.36,24.36,0,0,1,159,156a25,25,0,0,1-1.65-3.61,29.52,29.52,0,0,1-1-3.7,14.52,14.52,0,0,1,.69-7.42c.46-1.18.93-2.36,1.42-3.53s1-2.3,1.43-3.45l1.39-3.38,1.53-3.3,1.81-3.16,1.08-1.62c-31.32-10.64-70.14-13.8-118.3-5.15a291.07,291.07,0,0,0,19,84.3A31.91,31.91,0,0,1,72.3,191.74Z"/><path class="cls-4" d="M163,311.79l.75-2.85a90.65,90.65,0,0,1,3.91-11.36q.65-1.38,1.38-2.7c.49-.87,1.06-1.71,1.64-2.54s1.26-1.53,1.93-2.33a23.64,23.64,0,0,1,2.16-2.1,34.62,34.62,0,0,1,10.3-6.29,26,26,0,0,1,11.67-1.82c-20.79-12.26-39.29-28.71-55.84-46.43a400,400,0,0,1-76.42-118.2q-8.32,1-17.06,2.62a290.75,290.75,0,0,0,19,84.3,31.85,31.85,0,0,1,5.84-10.35,41.06,41.06,0,0,1,9.36-8.13l1.35-.8a13.22,13.22,0,0,1,1.38-.75c1-.48,1.92-.91,2.9-1.31.49-.18,1-.39,1.53-.55s1-.32,1.54-.44a25,25,0,0,1,3.21-.66l1.11,1.3a100.24,100.24,0,0,1-3.93,11.19c-1.39,3.34-2.72,6.53-4.18,9.57-.34.76-.71,1.53-1.09,2.26-.2.37-.4.74-.61,1.09s-.39.74-.58,1.11c-.41.72-.86,1.43-1.34,2.11s-.9,1.41-1.39,2.1c-1,1.37-1.92,2.82-2.87,4.26a23.64,23.64,0,0,0-1.29,2.24c-.41.75-.82,1.53-1.18,2.3l-1,2.37c-.09.2-.17.4-.26.62a228.92,228.92,0,0,0,25.23,41l.23-.48,2.45-4.09,2.82-3.89,3.18-3.65c1.14-1.14,2.25-2.33,3.35-3.57s2.36-2.33,3.59-3.48a29.22,29.22,0,0,1,4.09-2.79,29.29,29.29,0,0,1,4.6-1.81,46.51,46.51,0,0,1,5-.86,39.45,39.45,0,0,1,5.1,0,35,35,0,0,1,5.07,1.12,22.65,22.65,0,0,1,4.85,2.48l.13,1.71a34.58,34.58,0,0,1-3.67,3.49,42.54,42.54,0,0,1-3.41,2.88,30.88,30.88,0,0,1-3.19,2.51,29.45,29.45,0,0,1-3.06,2.26,24.52,24.52,0,0,1-6.47,3.32c-1.16.46-2.37.91-3.59,1.35a23.73,23.73,0,0,0-3.43,1.78l-3.2,2.18-3.07,2.42-3.06,2.6-2,2a185,185,0,0,0,56.05,44.45Z"/><path class="cls-4" d="M223.67,292.75a168.4,168.4,0,0,1-26.27-12.57l.6,1.12c-1.89,3.8-3.74,6.82-5.47,9.75s-3.4,5.58-5,8.19c-.4.65-.82,1.28-1.26,1.9a21.28,21.28,0,0,1-1.34,1.82,18.11,18.11,0,0,1-1.41,1.76c-.47.58-1,1.15-1.53,1.72a37.52,37.52,0,0,0-5.56,7.46l-1.06,2.1-1,2.16-.69,1.71a217.14,217.14,0,0,0,67,16.46c-.3-1.23-.6-2.44-1-3.67-.37-1.53-.72-3-1.06-4.49a29.52,29.52,0,0,1-.37-4.6A26.36,26.36,0,0,1,239,319a40.05,40.05,0,0,1,1.54-4.39,34.62,34.62,0,0,1,2.3-4.12,32.41,32.41,0,0,1,3.06-3.76,22,22,0,0,1,4.16-3.15l1.6.55a32.48,32.48,0,0,1,1.77,4.67,41.11,41.11,0,0,1,1.15,4.22,29.32,29.32,0,0,1,.81,3.92,29.76,29.76,0,0,1,.52,3.74,16.41,16.41,0,0,1,.11,3.64,18.37,18.37,0,0,1-.51,3.61c-.23,1.21-.49,2.45-.75,3.7a26.21,26.21,0,0,0-.4,3.75v1.84c6.81.26,13.8.31,21.08,0a19.78,19.78,0,0,0,19.14-20.41c0-.52,0-1-.11-1.55-.52-4.69-1.22-10-2.17-15.91C269.65,303.71,245.45,300.89,223.67,292.75Z"/><path class="cls-5" d="M70.31,133.61q20.31,13.78,39.74,28.69a29.29,29.29,0,0,1,3.66,7.83A62.19,62.19,0,0,1,116,182.75c.37,4.29.49,8.63.45,13s-.19,8.73-.37,13.14a66.9,66.9,0,0,0,2.5-13,73.18,73.18,0,0,0,.15-13.32,45.46,45.46,0,0,0-3-13.11,25.88,25.88,0,0,0-2.42-4.6q9.2,7.09,18.12,14.38c10.34,8.45,20.44,17.17,30.41,26.06.3.61.58,1.22.82,1.85a36,36,0,0,1,2,7.21c.23,1.24.37,2.48.54,3.72s.24,2.5.29,3.76c.15,2.49.2,5,.12,7.55s-.14,5-.3,7.57-.4,5.08-.62,7.67c-.49,5.07-1.1,10.13-1.73,15.25a93,93,0,0,0,3.83-15c.48-2.55.8-5.1,1.09-7.66s.38-5.15.46-7.76a59.05,59.05,0,0,0-1.53-15.51,31.68,31.68,0,0,0-2.35-6.33q12.27,10.94,24.16,22.18,10,9.35,19.77,19c.22.39.45.77.66,1.17a41.08,41.08,0,0,1,2.7,6.59,47.87,47.87,0,0,1,1.53,6.91,52.93,52.93,0,0,1,.75,7.1c.15,2.37.15,4.76.08,7.15s-.23,4.79-.42,7.19c-.44,4.8-1.08,9.6-1.93,14.43a63.5,63.5,0,0,0,4-14.15,65.91,65.91,0,0,0,1-14.78,45.21,45.21,0,0,0-3.06-14.57,31.93,31.93,0,0,0-1.53-3.24q15.44,15.33,30.45,31l.2-.19c-16.48-19.42-34.12-37.84-52.4-55.59-1.9-1.84-3.84-3.66-5.75-5.47a37.39,37.39,0,0,0,5.69,1.84,75.85,75.85,0,0,0,13.67,2,113.3,113.3,0,0,0,13.79,0,94.36,94.36,0,0,0,13.61-1.65c-4.6-.22-9.1-.32-13.64-.46s-9-.32-13.55-.58-9-.65-13.39-1.34a52.24,52.24,0,0,1-6.55-1.39c-.67-.19-1.35-.4-2-.65-13.15-12.26-26.76-24-40.7-35.39a40.33,40.33,0,0,0,4,1.35,44.29,44.29,0,0,0,7.13,1.31c1.2.15,2.41.18,3.62.26s2.41,0,3.6,0a71.73,71.73,0,0,0,14.22-1.9,67.07,67.07,0,0,0,13.51-4.6q-7,1.53-13.9,2.51a120,120,0,0,1-13.91,1.26,66.53,66.53,0,0,1-6.92-.09A51.11,51.11,0,0,1,146,184c-.57-.09-1.13-.21-1.69-.35s-1.13-.24-1.68-.4l-1.73-.61-1.54-.57c-.56-.2-1.12-.41-1.67-.66l-4.83-3.87Q109,158.55,84,141.26c.49.18,1,.36,1.53.52a42.16,42.16,0,0,0,12.14,2.1A52.53,52.53,0,0,0,110,142.82a45.33,45.33,0,0,0,11.58-3.8c-4,.75-7.93,1.3-11.88,1.7a95.18,95.18,0,0,1-11.82.43,62.68,62.68,0,0,1-11.66-1.43,50.58,50.58,0,0,1-7.8-2.4q-3.61-2.44-7.22-4.85Q59.7,124.81,48,117.71h-.45v.83Q59,125.92,70.31,133.61Z"/><path class="cls-6" d="M252.93,142.79a25.87,25.87,0,0,1,8.8,4.46,38.74,38.74,0,0,1,7,6.88,32.91,32.91,0,0,1,5.13,8.92l-.84,1.23A39.34,39.34,0,0,1,262.91,163a68.75,68.75,0,0,1-8.63-2.76,36.35,36.35,0,0,1-7.48-3.94,42.16,42.16,0,0,0-7.22-4.24,8.2,8.2,0,0,0-.76-.32,90.38,90.38,0,0,0-3.19,10.56v.07q-.3,1.24-.57,2.49a5.14,5.14,0,0,1-.21,1c-.16.78-.31,1.53-.45,2.35-.07.43-.15.86-.21,1.3-.14.78-.26,1.53-.37,2.36h0c-2.77,19.39-.63,40.69,5.69,60.87,1.91-1.31,3.89-2.55,5.93-3.68,3.89-2.15,7.8-4.36,11.86-6.13A44,44,0,0,1,270,219.4a67.38,67.38,0,0,1,13-.36,53.21,53.21,0,0,1,13.11,2.49l.23,1.53a64.26,64.26,0,0,1-11.53,6.47c-3.86,1.71-7.66,3.18-11.48,4.5a78.85,78.85,0,0,1-11.42,3.07A66.52,66.52,0,0,0,250.54,240a74,74,0,0,0-7.37,3.21c7.39,18.86,18.39,36.18,32.48,49.27q3.3,3.06,6.74,5.85a59.41,59.41,0,0,1,3.17-5.39,87.48,87.48,0,0,1,6.5-8.91,26.8,26.8,0,0,1,8.8-6.64,33.15,33.15,0,0,1,10.73-2.95,24.34,24.34,0,0,1,11.16,1.28l.32,1.54c-2.68,2.79-5.16,4.93-7.49,7s-4.6,4-6.76,5.88a55.08,55.08,0,0,1-6.87,5,36.37,36.37,0,0,0-7,5.26,58,58,0,0,0-3.89,4.4c17.87,12.34,37.55,20.28,56.49,29.55,1.32.65,2.66,1.3,4,2a12.19,12.19,0,0,1,.25-2,20.87,20.87,0,0,1,1.12-3.71,36.27,36.27,0,0,1,1.78-3.52,30,30,0,0,1,2.31-3.3,28.07,28.07,0,0,1,2.91-3.06,18.15,18.15,0,0,1,1.77-1.37l.93-.64c.35-.2.67-.4,1-.58l1.41.52c.17.38.29.73.45,1.1l.33,1.07c.23.71.4,1.4.56,2.06a32.11,32.11,0,0,1,.73,3.89,30,30,0,0,1,.34,3.66,29.36,29.36,0,0,1,0,3.51,17.44,17.44,0,0,1-.4,3.38,19.67,19.67,0,0,1-1,3.25l-1.18,3c15.67,9.2,30.66,20.89,41.77,36.66,1.53,2.19,4.22,1.15,3.86-1.53-3.49-26.15,3.45-51.49,12.08-73.88q.94-2.43,1.9-4.84c-3.06-1.7-6.27-3.31-9.44-4.78-1.2-.54-2.44-1-3.66-1.44l-3.77-1.17a22,22,0,0,1-3.62-1.38,21.64,21.64,0,0,1-3.36-1.87c-1.1-.69-2.17-1.44-3.25-2.27s-2.13-1.65-3.18-2.6a36.85,36.85,0,0,1-3.18-3.07,16.77,16.77,0,0,1-1.53-1.72l-.78-.93c-.26-.34-.52-.66-.77-1l.38-1.44c.4-.19.8-.31,1.22-.48l1.18-.37c.79-.23,1.53-.39,2.37-.56a35.47,35.47,0,0,1,4.6-.45c1.54,0,3.07.1,4.6.26a43.33,43.33,0,0,1,4.37.88,25.27,25.27,0,0,1,4.13,1.53,28.93,28.93,0,0,1,3.76,2.31c1.16.91,2.31,1.86,3.46,2.78s2.24,1.9,3.41,2.77q3.56,2.74,6.82,5.84c8.41-20.77,16.86-41.66,18.64-65.61,0-.82.09-1.63.13-2.44l-1.07-.26-4.38-.85-4.37-.55-4.37-.3h-4.32c-1.44.09-2.88.24-4.29.43s-2.82.59-4.2.85a24,24,0,0,1-4.11.77,25.11,25.11,0,0,1-4.15.37c-1.38.11-2.81.15-4.27.12s-2.91.11-4.46,0-3.06,0-4.75,0a35.43,35.43,0,0,1-5.25-.34l-.73-1.3a26.33,26.33,0,0,1,3.07-4.6,44,44,0,0,1,4-3.65,51.57,51.57,0,0,1,4.6-2.83,48.28,48.28,0,0,1,4.88-2.07,35.88,35.88,0,0,1,5.15-1.16,40,40,0,0,1,5.25-.1c1.77.22,3.5.45,5.22.69s3.41.66,5.11.89l5,1.11,4.87,1.53,4.72,1.88,3.07,1.54c-.57-27.93-11-57.13-27.59-80.41a16.42,16.42,0,0,0-1.53,1.23L415,138l-2.68,2.52-2.5,2.66L407.6,146c-.69,1-1.33,2-2,3.06s-1,2.15-1.53,3.19a18.16,18.16,0,0,1-1.65,3.07,16,16,0,0,1-2,2.77,28.45,28.45,0,0,1-2.32,2.7,31.58,31.58,0,0,1-2.54,2.76,37.52,37.52,0,0,1-2.87,2.91c-.49.5-1,1-1.53,1.53l-.87.8c-.33.26-.62.53-1,.8l-1.54-.27c-.21-.38-.36-.75-.55-1.14l-.44-1.15a24.41,24.41,0,0,1-.71-2.35,32.15,32.15,0,0,1-.49-4.69,35.47,35.47,0,0,1,.45-4.6,39.92,39.92,0,0,1,1.22-4.44,27.19,27.19,0,0,1,1.92-4.22,27.91,27.91,0,0,1,2.93-3.49c1.13-1,2.29-2,3.44-3.07s2.4-1.82,3.51-2.79l3.58-2.62,3.74-2.28,3.92-2,4-1.53c.29-.11.58-.19.87-.28a126.4,126.4,0,0,0-19.74-20.24h0c-.61-.51-1.24-1-1.87-1.54-.34-.27-.69-.53-1-.79-.63-.49-1.27-.95-1.92-1.43l-.85-.6c-.69-.49-1.4-1-2.1-1.44h0a96.7,96.7,0,0,0-10.29-6h0a111.68,111.68,0,0,0-21.93-8.3c-.2,4.59-.25,9.19-.12,13.62a31,31,0,0,0,.35,3.83l.61,3.81a20.33,20.33,0,0,1,.35,3.74,18.86,18.86,0,0,1-.23,3.75,33.09,33.09,0,0,1-.64,3.82c-.27,1.32-.6,2.62-1,3.91a36.29,36.29,0,0,1-1.38,4c-.27.69-.55,1.4-.89,2.12l-.52,1.07c-.21.37-.38.74-.62,1.12l-1.54.24c-.33-.27-.61-.56-.93-.85l-.83-.91c-.55-.6-1-1.21-1.53-1.84a31.48,31.48,0,0,1-2.36-3.89,35.91,35.91,0,0,1-1.7-4.06,40,40,0,0,1-1.11-4.17,26.26,26.26,0,0,1-.41-4.25,28.75,28.75,0,0,1,.44-4.24c.29-1.41.63-2.81.95-4.2s.71-2.76,1-4.14a88,88,0,0,1,4.17-14.33c-17.78-3.42-36.3-2.49-52.53,3.88-22.18,8.76-40.66,28-51.5,50.24C246.66,141.29,249.84,141.88,252.93,142.79ZM401.26,303.48c3.06,2.18,7.66,7.3,6.33,11.47-1.23,3.74-6.89,5.5-10.32,4.52a11.9,11.9,0,0,1-7.86-9.75,7.82,7.82,0,0,1,1.82-6.93C393.9,300.42,398.31,301.4,401.26,303.48ZM344.33,195.56c-1.69-5.47-1.35-11.42-1-17.24a32.44,32.44,0,0,1,2-11.24,13.67,13.67,0,0,1,8.73-8A12,12,0,0,1,365.77,163a23,23,0,0,1,4.6,11.11c1.81,9.5,6.13,38.19-14.27,33.35a17,17,0,0,1-11.77-11.91ZM323,237.34a6.85,6.85,0,0,1-.38,6.33c-3.57,7.05-18.47,16.33-25.47,16.25-5.58,0-7.82-4.43-5.26-9.89s9.58-11.51,16.37-14.23S321.12,233.77,323,237.34Z"/><path class="cls-7" d="M380.59,314.65q-3.31-5.62-6.51-11.34c-2.13-3.81-4.23-7.66-6.33-11.45q-6.13-11.5-12.12-23.17-11.83-23.34-22.32-47.33-5.19-12-9.93-24.24c-3.07-8.15-6.13-16.35-8.72-24.69s-5.06-16.74-6.9-25.27c-.46-2.15-.83-4.29-1.24-6.44s-.66-4.32-1-6.48c-.19-1.08-.26-2.16-.37-3.25l-.31-3.27a14.63,14.63,0,0,1-.07-1.62v-4.91A136.43,136.43,0,0,0,309,146.9c2.07,8.44,4.69,16.73,7.5,25,1.39,4.1,2.92,8.18,4.38,12.26s3.06,8.14,4.7,12.17q4.79,12.13,10,24.09t10.73,23.84c3.62,7.92,7.37,15.77,11.11,23.63s7.67,15.66,11.53,23.45S376.61,306.9,380.59,314.65Z"/><path class="cls-8" d="M310.52,254.86c-4.86,3-10,5.09-13.38,5.06-5.58,0-7.82-4.43-5.26-9.89a29.83,29.83,0,0,1,9.84-10.65q-3.93-7.4-7.43-15a71.82,71.82,0,0,1-9.52,5.08c-3.86,1.72-7.67,3.19-11.48,4.51A80.51,80.51,0,0,1,261.87,237a67.19,67.19,0,0,0-11.34,2.92,73.2,73.2,0,0,0-7.38,3.22c7.39,18.86,18.4,36.17,32.48,49.26q3.31,3.07,6.75,5.86a61,61,0,0,1,3.17-5.4,84.42,84.42,0,0,1,6.5-8.9,26.7,26.7,0,0,1,8.8-6.64,33.35,33.35,0,0,1,10.73-3,24.44,24.44,0,0,1,11.15,1.29l.33,1.53c-2.69,2.79-5.17,4.94-7.5,7.06s-4.6,4-6.76,5.88a54.35,54.35,0,0,1-6.87,5A36,36,0,0,0,295,300.4a56,56,0,0,0-3.9,4.4c17.87,12.34,37.55,20.28,56.5,29.55,1.32.64,2.65,1.3,4,2a13.38,13.38,0,0,1,.24-2,21.73,21.73,0,0,1,1.12-3.71,35.17,35.17,0,0,1,1.78-3.52,30.13,30.13,0,0,1,2.32-3.3,28.12,28.12,0,0,1,2.91-3.07,21.14,21.14,0,0,1,1.76-1.36l.94-.64c.35-.2.67-.4,1-.59l1.41.53c.17.38.29.73.44,1.1l.34,1.07c.23.71.4,1.4.55,2.06a38.94,38.94,0,0,1,1.07,7.55,29.36,29.36,0,0,1,0,3.51,17.23,17.23,0,0,1-.39,3.37,19.38,19.38,0,0,1-1,3.25l-1.18,3c15.66,9.19,30.65,20.89,41.77,36.66,1.53,2.19,4.21,1.15,3.86-1.53a118.42,118.42,0,0,1,1.25-37C369.08,328.82,334.29,293.86,310.52,254.86Z"/><path class="cls-8" d="M252.93,142.79a25.87,25.87,0,0,1,8.8,4.46,38.74,38.74,0,0,1,7,6.88,32.91,32.91,0,0,1,5.13,8.92l-.84,1.23A39.34,39.34,0,0,1,262.91,163a68.75,68.75,0,0,1-8.63-2.76,36.35,36.35,0,0,1-7.48-3.94,42.16,42.16,0,0,0-7.22-4.24,8.2,8.2,0,0,0-.76-.32,90.38,90.38,0,0,0-3.19,10.56v.07q-.3,1.24-.57,2.49a5.14,5.14,0,0,1-.21,1c-.16.78-.31,1.53-.45,2.35-.07.43-.15.86-.21,1.3-.14.78-.26,1.53-.37,2.36h0c-2.77,19.39-.63,40.69,5.69,60.87,1.91-1.31,3.89-2.55,5.93-3.68,3.89-2.15,7.8-4.36,11.86-6.13A44,44,0,0,1,270,219.4a67.38,67.38,0,0,1,13-.36,60.7,60.7,0,0,1,9.58,1.54c-11.43-26-18.82-53.65-19.55-81.9A166.73,166.73,0,0,1,276.29,101a108.33,108.33,0,0,0-32.78,39.85A66.76,66.76,0,0,1,252.93,142.79Z"/><path class="cls-1" d="M187.36,871.69a136.78,136.78,0,0,1,18.58-9.44c-.09-10,.9-46.32,19.63-49.26,18.4-2.87-8.14,35.91-16.86,48.17a118.36,118.36,0,0,1,24.22-6.62c2.71-9.81,13.6-44.22,32.36-41.92,18.28,2.26-17.09,31.84-29.13,41.48a87.7,87.7,0,0,1,17.37-.46c6-8,28.88-36.33,45.57-27.25,15.92,8.66-26.18,22.87-41.62,27.59a70,70,0,0,1,14.57,3.41c14,3.07,61.2,14.52,45.38,24.76s-40.16-15.33-47.19-23.28a67.58,67.58,0,0,0-10.3-2.52c9.78,9.92,43.74,45.74,24.75,45.69s-25.64-36.61-27-46a79.81,79.81,0,0,0-14.82-.52c8.21,11.16,36.78,51.56,18,48.82-18.53-2.72-20.08-38.11-20.14-48.67A106.06,106.06,0,0,0,218,860.14c9.48,10.37,41.93,47.22,23,46.5-18.4-.7-23.9-34.84-25.17-45.81a128.4,128.4,0,0,0-16.65,6.76c7,11.12,33.25,54.68,14.49,50.45-18-4-17.15-38.31-16.4-49.5a124,124,0,0,0-11.05,6.3q-5.62,3.61-11,7.66c8.55,9.38,42.7,48.14,23.36,47.3-18.56-.83-23.76-35.33-24.94-46.13-7.09,5.3-13.94,11-20.64,16.73,9,8,47.91,43.64,28.41,44.82-18.8,1.15-27.58-33.63-29.7-43.71l-7.8,6.77c-2.65,2.32-5.3,4.6-8,6.94,7.67,10,38.32,51.8,19.12,49.24-18.24-2.44-20.5-36.64-20.74-47.84-7.5,6.42-15.19,12.77-23.24,18.58,9.67,8.93,46.41,44,27.21,44.87-18.52.82-26.73-32.93-28.88-43.68-2.33,1.66-4.7,3.28-7.1,4.83-16,10.33-34,17.27-50.82,19.57C32,963.43,14.39,960,.46,950.71a1,1,0,0,1-.3-1.4h0A1,1,0,0,1,1.56,949c13.54,9,30.66,12.35,49.57,9.77A125,125,0,0,0,98,941.42c-6.3-8.12-27.22-37.32-14.18-50.95,13.24-13.79,15.47,36.57,15.8,49.92.49-.3,1-.6,1.54-.92,5.94-3.84,11.71-8.08,17.32-12.49-5.87-8.64-24.73-38.87-10.93-51.61s13.19,36,12.72,50.2c7.66-6.13,15-12.54,22.27-18.85l1-.89c-6.72-7.43-30.11-35.25-18-49.91s18.13,35.42,19.45,48.65c6.62-5.75,13.35-11.55,20.33-17.1-6.52-8.28-27.36-37-14.53-50.58s15.74,35.25,16.26,49.29c5.84-4.6,11.85-9,18.08-12.95l.37-.22c-4.21-9.44-17.59-42.67-1.73-52.82S190.35,857.7,187.36,871.69Z"/><path class="cls-2" d="M225.57,813c14.93-2.34.17,23-10.57,39-3,.69-5.93,1.53-8.89,2.25C206.81,839.8,210.35,815.41,225.57,813Z"/><path class="cls-2" d="M273.09,848.73a128.36,128.36,0,0,0-14.64-1.41c9.37-11,27-28.29,40.53-20.93C310.82,832.82,290.59,842.33,273.09,848.73Z"/><path class="cls-2" d="M244,847.6c-3.06.2-6.13.51-9.27.89,4.43-13.49,14.65-37.78,30.52-35.84C280.38,814.49,258.74,835.06,244,847.6Z"/><path class="cls-2" d="M51,958.74c.95-.12,1.91-.28,2.88-.45-.32.74-.63,1.46-.94,2.2l-1.67.26c-15.33,2.08-29.56.32-41.73-5.08-.86-1.13-1.71-2.28-2.52-3.43C19.59,958.72,34.64,961,51,958.74Z"/><path class="cls-2" d="M83.77,890.52c6.4-6.7,10.23,1.65,12.52,13.56q-4,3.06-7.83,6.44c-2,1.75-3.88,3.54-5.75,5.41C79,906.49,77.7,896.8,83.77,890.52Z"/><path class="cls-2" d="M183.64,820.12c12.55-8,9.45,20.09,6.13,39.14q-4.32,1.47-8.63,3.07C176.33,848.49,171.7,827.77,183.64,820.12Z"/><path class="cls-2" d="M150.65,836.87C160,827,164,849.53,165.77,868.23l-6.33,2.55L155,872.6C148.11,860.72,142.44,845.64,150.65,836.87Z"/><path class="cls-2" d="M125.41,855.92c7.46-9.06,12.58,6.26,15.74,22.53-4.44,2-8.84,4-13.18,6.23C122.42,874.67,119.14,863.53,125.41,855.92Z"/><path class="cls-2" d="M107.42,875.37c6.74-6.23,10,2.13,11.61,14-5.12,2.82-10.1,5.83-14.93,9.08C101.59,889.58,101.47,880.86,107.42,875.37Z"/><path class="cls-9" d="M756,170.47l-34.72,11A185.82,185.82,0,0,0,700.2,224l29.43-8.74a.69.69,0,0,1,.5,1.29h0l-32.84,16.68a227.21,227.21,0,0,0-7.1,32.93l26.06-12a.69.69,0,0,1,.69,1.2h0l-27.78,19.28a275.72,275.72,0,0,0-1.45,34.24l16.4-8.89a.71.71,0,0,1,.93.35.69.69,0,0,1-.15.8l-17,13.92a263.94,263.94,0,0,0,7,52.57s25-9.65,54.38-30.65l-.35-32.47a.69.69,0,0,1,1.38-.15l6,27.37A257.61,257.61,0,0,0,783.43,308l-2.23-40.55a.69.69,0,0,1,1.37-.2l8.14,33a208.77,208.77,0,0,0,24.6-33.55l-11.1-42.51a.69.69,0,0,1,1.3-.46l15,33.46a176.41,176.41,0,0,0,16.34-46.65l-15.32-33.46a.7.7,0,0,1,.25-1,.69.69,0,0,1,.94.26l16,22.67c3.62-27.59,1.18-59-10.33-94.34-47.82,15.57-80,40.26-101.31,68.42l28.48-4a.72.72,0,0,1,.41,1.38Z"/><path class="cls-10" d="M721.27,181.49A185.82,185.82,0,0,0,700.2,224l29.43-8.74a.69.69,0,0,1,.5,1.29h0l-32.84,16.68a227.21,227.21,0,0,0-7.1,32.93l26.06-12a.69.69,0,0,1,.69,1.2h0l-27.78,19.28a275.72,275.72,0,0,0-1.45,34.24l16.4-8.89a.71.71,0,0,1,.93.35.69.69,0,0,1-.15.8l-17,13.92a263.94,263.94,0,0,0,7,52.57,227.33,227.33,0,0,0,26.93-13.29c-4.08-48.17.74-97.4,19.39-141.85,17.78-42.32,49-79.86,89.24-101.47-.63-2.1-1.28-4.2-2-6.31-47.82,15.57-80,40.26-101.31,68.42l28.48-4a.7.7,0,0,1,.83.52.69.69,0,0,1-.53.83Z"/><path class="cls-11" d="M712.4,333c3.46-8.67,7.13-17.26,10.73-25.87s7.42-17.14,11.19-25.67q11.31-25.64,23.43-50.91c8.11-16.86,16.43-33.58,25.38-50,4.5-8.18,9.09-16.34,14-24.29l3.78-5.92c1.32-1.91,2.61-3.88,4-5.78a90,90,0,0,1,8.9-10.86l-2.28,2.66c-.38.45-.74.91-1.07,1.38l-1,1.41c-1.45,1.83-2.7,3.8-4,5.72s-2.5,3.94-3.76,5.9l-3.57,6c-4.7,8-9.19,16.26-13.45,24.52-2.17,4.14-4.27,8.31-6.4,12.45s-4.21,8.32-6.26,12.52q-6.23,12.52-12.27,25.15c-4.06,8.42-8,16.86-12,25.29L735.8,282.15q-5.92,12.69-11.72,25.42Z"/><path class="cls-11" d="M737,320a2.43,2.43,0,0,0,2.21-4.32h0A2.43,2.43,0,1,0,737,320Z"/><path class="cls-11" d="M708.54,284.21a2.42,2.42,0,0,0,2.19-4.32h0a2.42,2.42,0,1,0-2.19,4.32Z"/><path class="cls-11" d="M768.83,254.85a2.43,2.43,0,1,0-1.06-3.26,2.42,2.42,0,0,0,1.06,3.26Z"/><path class="cls-11" d="M739.7,200.67a2.43,2.43,0,0,0,2.19-4.33h0a2.43,2.43,0,1,0-2.19,4.33Z"/><path class="cls-11" d="M789,221.74a2.42,2.42,0,1,0,2.2-4.32h0a2.42,2.42,0,0,0-2.2,4.32Z"/><path class="cls-11" d="M781.17,162.47a2.43,2.43,0,1,0-1-3.27A2.43,2.43,0,0,0,781.17,162.47Z"/><path class="cls-11" d="M823.58,144.61a2.42,2.42,0,1,0-1.06-3.25A2.42,2.42,0,0,0,823.58,144.61Z"/><path class="cls-3" d="M605.86,125.41a38.38,38.38,0,0,1,11.68,1.27c.47.12,1,.28,1.41.41a13,13,0,0,1,1.41.48c.93.37,1.85.77,2.76,1.18.46.23.9.41,1.35.67s.89.51,1.31.8a22,22,0,0,1,2.53,1.82l-.2,1.54A98.33,98.33,0,0,1,617.83,138c-3.22,1.18-6.3,2.32-9.33,3.25-.76.26-1.54.51-2.27.71-.38.1-.76.19-1.15.27s-.77.22-1.15.29c-.77.19-1.53.33-2.32.45s-1.53.27-2.36.38c-1.61.17-3.18.48-4.81.75-.8.14-1.59.32-2.38.54s-1.53.41-2.34.67l-2.31.82-.59.21a214.59,214.59,0,0,0-12.26,43.85l.48-.14,4.41-.93,4.51-.52,4.59-.14h4.6c1.54,0,3.07.12,4.72.23a31.17,31.17,0,0,1,4.6,1,27.81,27.81,0,0,1,4.25,2.07,42.92,42.92,0,0,1,3.8,2.91,34.24,34.24,0,0,1,3.22,3.59,30.39,30.39,0,0,1,2.48,4.23,20.88,20.88,0,0,1,1.4,5l-1.09,1.18a35.82,35.82,0,0,1-4.85-.33,39.19,39.19,0,0,1-4.17-.5,30.94,30.94,0,0,1-3.8-.6,28.56,28.56,0,0,1-3.55-.7,15.5,15.5,0,0,1-3.33-1,16.94,16.94,0,0,1-3.19-1.44c-1.07-.51-2.14-1.07-3.25-1.63a23,23,0,0,0-3.43-1.24l-3.59-.81-3.66-.61-3.74-.4-2.71-.11a174.83,174.83,0,0,0,5.19,67.44l2.3-1.36,2.47-1.31a87.43,87.43,0,0,1,10.39-4.59c.92-.28,1.84-.56,2.76-.78a24.79,24.79,0,0,1,2.82-.48,27.46,27.46,0,0,1,2.87-.17c1,0,1.9.08,2.85.15a32.66,32.66,0,0,1,11,3.07,24.6,24.6,0,0,1,9.06,7.28l-.54,1.53c-3.85,1.12-7.14,1.78-10.28,2.46s-6.13,1.22-8.92,1.76c-.72.15-1.43.26-2.14.35-1.4.2-2.82.33-4.24.4h-2.16a36.44,36.44,0,0,0-8.77.95l-2.13.61-2.13.71L582,278A204.27,204.27,0,0,0,613.68,335c.66-1,1.3-2,1.91-3.07s1.61-2.42,2.44-3.61a27.1,27.1,0,0,1,2.94-3.21,24.33,24.33,0,0,1,3.59-2.43,39,39,0,0,1,4-1.74,32.28,32.28,0,0,1,4.34-1.05,29.51,29.51,0,0,1,4.6-.26,21.07,21.07,0,0,1,4.86.85l.66,1.54a30.44,30.44,0,0,1-2.13,4.23,37.31,37.31,0,0,1-2.18,3.51,32.77,32.77,0,0,1-2.19,3.06,30.24,30.24,0,0,1-2.27,2.78,16.35,16.35,0,0,1-2.45,2.4,18,18,0,0,1-2.84,2l-3.06,1.84c-1,.67-2,1.4-2.87,2.16l-1.22,1.12q6.3,7.32,13.5,14.68a18.7,18.7,0,0,0,26.46.18,14.82,14.82,0,0,0,1-1.08,314,314,0,0,0,33.09-46.18l-1.73-2L692,308.16a25.13,25.13,0,0,0-2.45-2.38c-.92-.75-1.78-1.44-2.64-2.18a16.18,16.18,0,0,1-2.34-2.34,14.53,14.53,0,0,1-1.83-2.76,28.32,28.32,0,0,1-1.53-3.07,29.55,29.55,0,0,1-1.24-3.41,33.67,33.67,0,0,1-1-3.84,24.05,24.05,0,0,1-.54-4.47l1.09-1.2a20.93,20.93,0,0,1,4.6.39,30,30,0,0,1,4,1.19,25.8,25.8,0,0,1,6.79,4,18.42,18.42,0,0,1,2.68,2.69,21,21,0,0,1,2,3.27c.54,1.18,1,2.36,1.53,3.54s.91,2.13,1.4,3.16a224.9,224.9,0,0,0,20.26-54.34l-3-1.88-3.06-1.78-3.07-1.69-3.06-1.53c-1.05-.48-2.13-.89-3.24-1.27l-3.32-.95a18.77,18.77,0,0,1-6-2.87,46.48,46.48,0,0,1-5.51-4.6,36.11,36.11,0,0,1-2.75-2.92,27,27,0,0,1-2.81-3.67l.34-1.53a21.24,21.24,0,0,1,4.41-1.89,30.66,30.66,0,0,1,4.36-.79,33.64,33.64,0,0,1,4.26,0,34,34,0,0,1,4.12.67,22,22,0,0,1,3.86,1.4,23.81,23.81,0,0,1,3.45,2.26c1,.91,2.07,1.84,3.07,2.78s2,1.88,3.06,2.74l3,2.75,2.79,2.89,1.26,1.54a156.43,156.43,0,0,0-7.94-82.13l-1.54,1-2.4,1.77-2.35,1.81-2.25,1.83a25.39,25.39,0,0,0-2.06,2.09l-1.85,2.27a11.65,11.65,0,0,1-2,2,10.79,10.79,0,0,1-2.35,1.53,19.15,19.15,0,0,1-2.71,1.18,20.6,20.6,0,0,1-3.06,1,27.75,27.75,0,0,1-3.47.82c-.61.1-1.24.23-2,.3l-1,.13h-1.15l-1.27-1c-.08-.4-.11-.77-.16-1.15v-1.09a18.57,18.57,0,0,1,0-2.11,25.26,25.26,0,0,1,.78-3.85,26.27,26.27,0,0,1,1.44-3.46,26.68,26.68,0,0,1,2-3.07,16.55,16.55,0,0,1,2.51-2.51,18,18,0,0,1,3.07-1.78c1.11-.45,2.23-.86,3.35-1.27s2.23-.77,3.31-1.23l3.27-1.21,3.31-1,3.34-.78,1.82-.29C700.8,117.3,678,88.33,641.05,60.45a274.93,274.93,0,0,0-46.29,67.44A30.34,30.34,0,0,1,605.86,125.41Z"/><path class="cls-4" d="M580.8,265.55l2.47-1.31a87.49,87.49,0,0,1,10.39-4.6c.92-.27,1.84-.55,2.76-.78a24.39,24.39,0,0,1,2.82-.47,24.67,24.67,0,0,1,2.86-.17c.95,0,1.9.08,2.85.15a32.59,32.59,0,0,1,11,3.07,24.55,24.55,0,0,1,8.77,6.91c-4.83-22.35-5.35-45.72-3.68-68.6A378.7,378.7,0,0,1,654,70.69q-6.13-5.09-12.77-10.13A274.75,274.75,0,0,0,594.9,128a30.16,30.16,0,0,1,10.93-2.59,38.38,38.38,0,0,1,11.68,1.27c.47.12,1,.28,1.41.41a13,13,0,0,1,1.41.48c.93.37,1.85.77,2.76,1.18.46.23.9.41,1.35.67s.89.51,1.31.8a22.31,22.31,0,0,1,2.56,1.82l-.2,1.54A98.33,98.33,0,0,1,617.83,138c-3.22,1.18-6.3,2.32-9.33,3.25-.76.26-1.54.51-2.27.71-.38.1-.76.19-1.15.27s-.77.22-1.15.29c-.77.19-1.53.33-2.32.45s-1.53.27-2.36.38c-1.61.17-3.18.48-4.81.75-.8.14-1.59.32-2.38.54s-1.53.41-2.34.67l-2.31.82-.59.21a214.59,214.59,0,0,0-12.26,43.85l.48-.14,4.41-.93,4.51-.52,4.59-.14h4.6c1.54,0,3.07.12,4.72.23a31.17,31.17,0,0,1,4.6,1,27.81,27.81,0,0,1,4.25,2.07,42.92,42.92,0,0,1,3.8,2.91,34.24,34.24,0,0,1,3.22,3.59,30.39,30.39,0,0,1,2.48,4.23,20.88,20.88,0,0,1,1.4,5l-1.09,1.18a35.82,35.82,0,0,1-4.85-.33,39.19,39.19,0,0,1-4.17-.5,30.94,30.94,0,0,1-3.8-.6,28.56,28.56,0,0,1-3.55-.7,15.5,15.5,0,0,1-3.33-1,16.94,16.94,0,0,1-3.19-1.44c-1.07-.51-2.14-1.07-3.25-1.63a23,23,0,0,0-3.43-1.24l-3.59-.81-3.66-.61-3.74-.4-2.71-.11a174.83,174.83,0,0,0,5.19,67.44Z"/><path class="cls-4" d="M633.05,295.48a158.81,158.81,0,0,1-8.15-26.33l-.4,1.15c-3.85,1.12-7.15,1.78-10.29,2.45s-6.13,1.23-8.92,1.76c-.72.16-1.42.26-2.13.35-1.41.2-2.82.33-4.24.4h-2.17a36.36,36.36,0,0,0-8.76.95l-2.13.62-2.13.7-1.63.61a204.78,204.78,0,0,0,31.65,57.08c.66-1,1.31-2,1.92-3.06s1.61-2.42,2.44-3.62a27.81,27.81,0,0,1,2.94-3.2,24.39,24.39,0,0,1,3.59-2.44,39,39,0,0,1,4-1.73,32.31,32.31,0,0,1,4.34-1.06,30.71,30.71,0,0,1,4.6-.26,20.57,20.57,0,0,1,4.86.86l.66,1.53a30,30,0,0,1-2.14,4.23,37.22,37.22,0,0,1-2.17,3.51,34.88,34.88,0,0,1-2.19,3.07,33.41,33.41,0,0,1-2.27,2.77,16.91,16.91,0,0,1-2.45,2.41,19.71,19.71,0,0,1-2.84,2L626,342c-1,.68-1.94,1.4-2.86,2.17l-1.23,1.11q6.3,7.33,13.51,14.69a18.7,18.7,0,0,0,26.46.18c.35-.35.69-.71,1-1.09,2.93-3.38,6.13-7.31,9.64-11.74C655.06,334.44,641.42,315.74,633.05,295.48Z"/><path class="cls-5" d="M644.94,86.65q3.49,23,5.63,46a27.2,27.2,0,0,1-3.07,7.66,60.39,60.39,0,0,1-7.32,9.67,120.62,120.62,0,0,1-8.72,8.65c-3.05,2.77-6.13,5.47-9.35,8.18a63.84,63.84,0,0,0,10.63-6.63,68.71,68.71,0,0,0,9.37-8.42,43.06,43.06,0,0,0,7.2-10.47,24.65,24.65,0,0,0,1.63-4.6c.64,7.28,1.21,14.55,1.67,21.85.78,12.59,1.22,25.21,1.53,37.84a16.17,16.17,0,0,1-.77,1.76,33.81,33.81,0,0,1-3.72,6c-.71,1-1.53,1.85-2.24,2.76a23.55,23.55,0,0,1-2.42,2.62c-1.63,1.72-3.36,3.37-5.17,5s-3.58,3.07-5.45,4.6-3.77,3-5.67,4.46c-3.83,2.91-7.74,5.75-11.7,8.58a87,87,0,0,0,12.85-6.94c2.07-1.3,4-2.73,6-4.19s3.83-3.06,5.69-4.59a56,56,0,0,0,9.74-11.1,30.44,30.44,0,0,0,2.89-5.69q.25,15.49.13,31,0,13-.46,25.94c-.12.4-.24.8-.38,1.21a40.51,40.51,0,0,1-2.83,6.13,45,45,0,0,1-3.79,5.56,53.64,53.64,0,0,1-4.44,5.08,58,58,0,0,1-4.93,4.6c-1.71,1.42-3.46,2.91-5.25,4.33q-5.43,4.17-11.25,7.93a60.32,60.32,0,0,0,12.41-6.29,63.67,63.67,0,0,0,10.87-8.84,43.35,43.35,0,0,0,8.17-11.5c.47-1,.89-2.07,1.26-3.06-.46,13.69-1.15,27.39-2,41.08H652c2.87-23.93,4.32-48,4.89-72.13,0-2.5,0-5,.11-7.52a34.19,34.19,0,0,0,2.37,5.14A70.67,70.67,0,0,0,666.8,239a113.71,113.71,0,0,0,8.84,9.52,91.09,91.09,0,0,0,9.91,8.38c-2.79-3.31-5.63-6.53-8.45-9.76s-5.59-6.49-8.31-9.78a125.63,125.63,0,0,1-7.66-10.16,49,49,0,0,1-3.23-5.44c-.31-.6-.59-1.2-.85-1.8q0-25.52-1.53-51a33.49,33.49,0,0,0,1.61,3.62,39.34,39.34,0,0,0,3.68,5.79c.66.92,1.41,1.8,2.14,2.67s1.54,1.7,2.32,2.5a67.74,67.74,0,0,0,10.47,8.64,63.16,63.16,0,0,0,11.88,6.44c-3.67-2.6-7.22-5.27-10.73-8.05a112.62,112.62,0,0,1-9.81-8.84,63.38,63.38,0,0,1-4.4-4.87,54,54,0,0,1-3.85-5.28c-.31-.46-.58-.93-.84-1.41s-.55-.93-.8-1.42l-.75-1.53-.66-1.54c-.23-.52-.43-1-.63-1.53-.12-1.95-.26-3.89-.4-5.85q-2.1-28.66-6.13-57.15c.19.46.39.92.6,1.37a39.91,39.91,0,0,0,6.36,9.78,50.41,50.41,0,0,0,8.58,7.8,44.39,44.39,0,0,0,9.91,5.59q-4.61-3.41-8.82-7.15a84.14,84.14,0,0,1-7.81-8,59.45,59.45,0,0,1-6.52-9,48.47,48.47,0,0,1-3.34-7q-.62-4.08-1.29-8.12-2.12-12.84-4.6-25.59l-.33-.26-.54.56Q643,73.88,644.94,86.65Z"/><path class="cls-9" d="M146.65,377.77,181.19,407a231.44,231.44,0,0,0,58.65-5.91L211.21,375.9a.86.86,0,0,1,1-1.38l39.32,23.64a283.78,283.78,0,0,0,39.36-14.29l-29.8-19.49a.88.88,0,0,1-.36-1.18.87.87,0,0,1,1.17-.36l38.63,16.5a342.88,342.88,0,0,0,37-21.09l-20.19-11.41a.86.86,0,0,1-.19-1.2.88.88,0,0,1,.88-.33l25.89,8.75c31.9-21.83,50.7-42.09,50.7-42.09s-26.71-19.92-68.22-37l-33.93,21.81a.86.86,0,0,1-1.08-1.33l24.83-24.45a322.4,322.4,0,0,0-42.91-12.8L232.1,287.37a.86.86,0,0,1-1.12-1.3h0l29.4-30.4a259.44,259.44,0,0,0-51.61-3.92l-37.39,39.76a.86.86,0,0,1-1.35-1.06L195.3,252.5a220.14,220.14,0,0,0-59.9,13.63l-25.15,38.12a.87.87,0,1,1-1.53-.82L122,271.66c-31.46,14.44-62.84,37.72-92.45,73.19,48,40,95.2,57.55,138.92,61.42L145.5,379a.86.86,0,0,1,.26-1.18A.84.84,0,0,1,146.65,377.77Z"/><path class="cls-10" d="M181.19,407a231.44,231.44,0,0,0,58.65-5.91L211.21,375.9a.86.86,0,0,1,1-1.38l39.32,23.64a283.78,283.78,0,0,0,39.36-14.29l-29.8-19.49a.88.88,0,0,1-.36-1.18.87.87,0,0,1,1.17-.36l38.63,16.5a342.88,342.88,0,0,0,37-21.09l-20.19-11.41a.86.86,0,0,1-.19-1.2.88.88,0,0,1,.88-.33l25.89,8.75c31.9-21.83,50.7-42.09,50.7-42.09a286.09,286.09,0,0,0-31.89-19.72c-48,36.11-103,63.59-162.09,73.29-56.28,9.2-116.49,1.1-165.75-26.87-1.79,2.05-3.56,4.13-5.33,6.24,48,40,95.2,57.55,138.92,61.42L145.5,379a.86.86,0,0,1,1.23-1.21Z"/><path class="cls-11" d="M346.54,316.25c-11.42,2.07-22.89,3.89-34.34,5.76s-23,3.51-34.42,5.2q-34.47,5-69.07,9c-23.06,2.59-46.18,4.9-69.35,6.3-11.61.69-23.21,1.24-34.83,1.33l-8.72-.08c-2.89-.12-5.81-.16-8.7-.35a109.1,109.1,0,0,1-17.28-2.14l4.31.62a17.59,17.59,0,0,0,2.16.23l2.16.17c2.88.31,5.78.31,8.68.45s5.79,0,8.69,0l8.67-.2c11.59-.37,23.16-1.14,34.72-2.06,5.76-.45,11.54-1,17.32-1.53s11.54-1.07,17.3-1.67q17.32-1.71,34.58-3.72c11.53-1.28,23-2.67,34.57-4.08l34.51-4.28Q294.77,323,312,320.68Z"/><path class="cls-11" d="M316.6,298.88c-.35-3.86-6.36-3.32-6,.55S317,302.81,316.6,298.88Z"/><path class="cls-11" d="M297.7,352.53c-.35-3.86-6.36-3.33-6,.55S298,356.44,297.7,352.53Z"/><path class="cls-11" d="M227,308.51c-.33-3.86-6.34-3.33-6,.53S227.31,312.37,227,308.51Z"/><path class="cls-11" d="M189.19,375c-.36-3.87-6.35-3.33-6,.53S189.54,378.83,189.19,375Z"/><path class="cls-11" d="M178.79,309.14c-.35-3.87-6.34-3.33-6,.55S179.22,313,178.79,309.14Z"/><path class="cls-11" d="M121.5,356.59c-.34-3.86-6.34-3.33-6,.55S121.85,360.47,121.5,356.59Z"/><path class="cls-11" d="M74.77,323.71a3.06,3.06,0,0,0-6,.55C69.11,328.13,75.12,327.59,74.77,323.71Z"/><path class="cls-12" d="M436,213.77c2.19-1.27,4.39-2.54,6.62-3.8s4.61-2.16,7-3.07A69,69,0,0,1,457,205c2.51-.4,5.05-.72,7.58-1a53.07,53.07,0,0,1,7.67,0,61,61,0,0,1,7.66,1,47.86,47.86,0,0,1,7.57,2.3l.12,1.7a58.59,58.59,0,0,1-6.71,3.74c-2.19,1.18-4.37,2.2-6.53,3.16s-4.26,2-6.38,2.85-4.19,1.87-6.31,2.66a57.43,57.43,0,0,1-6.33,2.38,58.65,58.65,0,0,1-6.48,1.91l-6.59,1.86c-1.68.57-3.36,1.16-5,1.79a433,433,0,0,0,28,77.34,97.66,97.66,0,0,1,4.9-11.49c1.07-2,2.09-4.06,3.07-6.13s2.2-4.06,3.37-6.13a60.92,60.92,0,0,1,4.09-5.61,57.32,57.32,0,0,1,5.06-4.8c1.85-1.41,3.77-2.76,5.73-4a48.79,48.79,0,0,1,6.24-3.18,63.26,63.26,0,0,1,6.7-2.21,40.41,40.41,0,0,1,7.19-.91l.86,1.54a50.58,50.58,0,0,1-3.68,5.9c-1.2,1.9-2.44,3.65-3.7,5.3s-2.39,3.39-3.64,5-2.38,3.25-3.64,4.76a41.92,41.92,0,0,1-3.77,4.53,48,48,0,0,1-4.09,4.23l-4.2,4.18c-1.32,1.53-2.62,3.07-3.86,4.6l-3.44,5-3.18,5.19-3,5.36-.65,1.35c18.4,33.72,39.86,56.3,60.29,52.42,26.62-5,47.66-27.1,63.48-54.72l-.78-.55-2.85-1.83-2.91-1.65a33.15,33.15,0,0,0-3.07-1.29c-1.07-.32-2.14-.61-3.19-.95a13.83,13.83,0,0,1-3-1.09,11.59,11.59,0,0,1-2.72-1.64,24.63,24.63,0,0,1-2.62-2,28.82,28.82,0,0,1-2.67-2.39c-.92-.85-1.84-1.77-2.8-2.84-.48-.52-1-1-1.53-1.64l-.77-.9c-.26-.34-.52-.65-.78-1l.21-1.7c.36-.28.69-.49,1.06-.74l1.06-.61a22.08,22.08,0,0,1,2.19-1.06,27,27,0,0,1,4.43-1.15,23.48,23.48,0,0,1,8.75.36,21.7,21.7,0,0,1,4,1.44,24.33,24.33,0,0,1,3.54,2.42c1.07,1,2.1,2,3.06,3s2,2.09,3,3.07L600,305l1.06,1.31a302.41,302.41,0,0,0,18.86-48.13c-2.22-1.53-4.46-2.87-6.74-4.16-1.26-.65-2.54-1.22-3.85-1.79s-2.68-.93-4-1.42a22.94,22.94,0,0,1-3.82-1.54,20.21,20.21,0,0,1-3.52-2.1,38.16,38.16,0,0,1-3.44-2.5,44.19,44.19,0,0,1-3.45-2.82,45,45,0,0,1-3.52-3.25c-.6-.56-1.2-1.14-1.81-1.82l-.9-1c-.31-.37-.62-.71-.92-1.12l.33-1.69c.45-.24.88-.41,1.32-.61l1.3-.49a24.71,24.71,0,0,1,2.66-.81,38.54,38.54,0,0,1,5.24-.69,44.43,44.43,0,0,1,5.16.21,48,48,0,0,1,5,1,32,32,0,0,1,4.69,1.85,34.61,34.61,0,0,1,4.2,2.82c1.28,1.12,2.52,2.25,3.77,3.39s2.4,2.34,3.64,3.43c.77.71,1.54,1.43,2.24,2.15a295.41,295.41,0,0,0,7.93-42.34,223,223,0,0,0,1-24.52c-4.13-1.92-8.25-3.68-12.39-5.2a61.16,61.16,0,0,0-10.33-2.56,59.54,59.54,0,0,1-9.9-2.66c-3.22-1.17-6.44-2.43-9.82-3.76s-7-2.73-11-4.6l-.26-1.68a27.88,27.88,0,0,1,11.75-5.75,39.93,39.93,0,0,1,12.75-.92,32.78,32.78,0,0,1,12,3.43c3.74,1.89,7.22,4.16,10.73,6.23,2,1.2,4,2.47,6,3.81-1.72-27.69-7.79-58-19.59-80.5q-6.46,1.08-12.74,2.58c-1.73.46-3.45,1-5.13,1.53l-5,1.92a35.77,35.77,0,0,1-5,1.67,33.73,33.73,0,0,1-5.15,1.1,53.64,53.64,0,0,1-5.32.72c-1.81.15-3.62.4-5.52.46a56.28,56.28,0,0,1-5.81.14,41.23,41.23,0,0,1-6.28-.4l-.75-1.53a33.62,33.62,0,0,1,3.85-5.2,51.59,51.59,0,0,1,4.58-4.41,55.55,55.55,0,0,1,5-3.48,48.3,48.3,0,0,1,5.32-2.81,41.73,41.73,0,0,1,5.63-2,46.83,46.83,0,0,1,5.88-1c2-.13,4-.2,6-.3s4,0,5.93-.21c2.62-.14,5.24-.17,7.87-.12-8.56-12-19.39-20.33-32.82-22.57-50-8.27-62.55,35.26-62.55,35.26-28.07-20.49-77.22-6.87-84,53.89a42.88,42.88,0,0,1,11.37-8.37,55.75,55.75,0,0,1,13.8-4.78,40.14,40.14,0,0,1,14.82-.25l.52,1.63a133.9,133.9,0,0,1-10.16,9.48c-3.28,2.9-6.5,5.61-9.72,8.24-.8.65-1.53,1.33-2.41,1.94l-2.46,1.86c-1.67,1.18-3.38,2.34-5.15,3.45a74.66,74.66,0,0,0-10.2,7.4c-.33.29-.66.6-1,.9.11,2.41.26,4.86.49,7.38a354.45,354.45,0,0,0,7.67,46.8Zm109.55-86.14a18.78,18.78,0,0,1,10-11.19,30.55,30.55,0,0,1,15.09-2.53,19.53,19.53,0,0,1,10.3,3.14,9.36,9.36,0,0,1,3.93,9.51,12.88,12.88,0,0,1-4.85,6.21c-6.8,5.42-22.41,16.18-30.77,9A13.78,13.78,0,0,1,545.55,127.63Zm8.93,190.14c2.12-2.07,5.44-3.67,8-2.09,2,1.23,2.51,3.86,2.57,6.13.14,5.54-2.91,22.07-11.78,18.93-9.22-3.17-3.27-18.56,1.24-23Zm-55.54-94.19a26.14,26.14,0,0,1,8.23-12.71c3.68-3.34,8.73-6.13,13.45-4.6a10.5,10.5,0,0,1,6.63,9.32c.36,5.64-2.9,9.54-5.92,13.8-2.18,3.06-4.15,8.46-7.56,10.42-9.84,5.67-16.78-8.28-14.85-16.23Z"/><path class="cls-13" d="M553.21,340.8c-7.66-2.71-4.78-13.79-1-20.05a304.19,304.19,0,0,1-44.83-48.94c-.74,1.06-1.54,2.09-2.23,3.07-1.16,1.76-2.39,3.39-3.64,5s-2.38,3.25-3.64,4.76a41.81,41.81,0,0,1-3.77,4.52,45.39,45.39,0,0,1-4.09,4.23l-4.23,4.25c-1.32,1.53-2.62,3.07-3.86,4.6l-3.44,5-3.18,5.19-3,5.36-.65,1.35c18.4,33.72,39.86,56.3,60.29,52.42,18-3.42,33.55-14.67,46.58-30.18q-7.51-5.22-14.7-10.88C562.27,336.6,559,342.84,553.21,340.8Z"/><path class="cls-13" d="M461.69,221.39a56.62,56.62,0,0,1-6.33,2.37,61,61,0,0,1-6.48,1.92l-6.59,1.85c-1.67.57-3.36,1.17-5,1.8a433,433,0,0,0,28.05,77.34,100.27,100.27,0,0,1,4.9-11.5c1.08-2,2.09-4.06,3.07-6.13s2.21-4.06,3.37-6.13a62.31,62.31,0,0,1,4.09-5.61,58.23,58.23,0,0,1,5-4.78c1.85-1.41,3.77-2.76,5.73-4a48.79,48.79,0,0,1,6.24-3.18c1.3-.51,2.64-1,4-1.4a301.71,301.71,0,0,1-27-48.23l-.4.18c-2.13,1.06-4.26,2-6.38,2.85S463.81,220.59,461.69,221.39Z"/><path class="cls-13" d="M437.67,131.05a55.34,55.34,0,0,1,13.8-4.78l.63-.11a201.81,201.81,0,0,1,1.53-40c-13.63,9.72-24.4,27.11-27.33,53.31A42.94,42.94,0,0,1,437.67,131.05Z"/><path class="cls-13" d="M442.62,210a74.71,74.71,0,0,1,7-3.06A71.51,71.51,0,0,1,457,205c2.51-.4,5.05-.72,7.58-.95,1.78,0,3.54-.09,5.31-.07-2.86-7.27-5.45-14.66-7.67-22.14A248,248,0,0,1,453.38,140q-3.25,2.78-6.46,5.4c-.8.65-1.54,1.33-2.41,1.94L442,149.23c-1.67,1.18-3.37,2.34-5.15,3.45a74,74,0,0,0-10.19,7.4c-.34.29-.66.6-1,.9.1,2.41.26,4.86.49,7.38a356.08,356.08,0,0,0,7.66,46.8l2.21-1.39C438.26,212.5,440.39,211.23,442.62,210Z"/><path class="cls-14" d="M529.5,341.8a164.52,164.52,0,0,0,6.21-21.46c1.65-7.23,3.06-14.53,4-21.89a323.69,323.69,0,0,0,3.17-44.32c0-1.84.08-3.7,0-5.55L542.8,243l-.1-5.54-.28-5.55-.26-5.57c-.09-1.84-.26-3.69-.4-5.53-.29-3.69-.49-7.4-1-11.08s-.74-7.39-1.21-11.07l-1.53-11c-.56-3.66-1.24-7.31-1.86-11-.34-1.83-.61-3.67-1-5.47l-1.13-5.46a505.82,505.82,0,0,0-25.92-85.19A644.91,644.91,0,0,0,469.57.18l.32-.18a646,646,0,0,1,40,79.93A508.56,508.56,0,0,1,537,165.2l1.22,5.47c.4,1.82.71,3.66,1.06,5.5.68,3.68,1.44,7.33,2,11L543,198.27c.53,3.71.93,7.42,1.39,11.15s.72,7.43,1.06,11.17c.15,1.86.34,3.73.46,5.6l.28,5.59.24,5.61.08,5.62.07,5.61c0,1.87,0,3.74-.09,5.61l-.15,5.61-.32,5.61c-.13,1.87-.2,3.74-.36,5.61l-.5,5.58c-.28,3.74-.81,7.45-1.24,11.16s-1.06,7.42-1.74,11.1c-2.69,14.7-6.28,29.33-12.36,43Z"/><path class="cls-12" d="M227.78,574.77c-1.75-1.65-3.49-3.31-5.24-5a41.69,41.69,0,0,1-4.6-5.55,63.11,63.11,0,0,1-3.74-6.13,55.33,55.33,0,0,1-2.9-6.66,51.7,51.7,0,0,1-2.1-7,59.74,59.74,0,0,1-1.15-7.27,47.08,47.08,0,0,1,0-7.51l1.54-.57a52.26,52.26,0,0,1,5.19,5.12c1.67,1.69,3.19,3.39,4.6,5.09s3,3.36,4.31,5.06,2.82,3.33,4.12,5a53.07,53.07,0,0,1,3.85,5.12,54.65,54.65,0,0,1,3.49,5.4l3.45,5.51c1,1.38,2,2.75,3.07,4.11a410.85,410.85,0,0,0,63-46.27,91.45,91.45,0,0,1-11.78-1.4c-2.12-.44-4.27-.81-6.44-1.18s-4.29-.92-6.44-1.42a59.88,59.88,0,0,1-6.22-2.24,55.28,55.28,0,0,1-5.74-3.29c-1.77-1.32-3.52-2.7-5.18-4.14a46.93,46.93,0,0,1-4.59-4.85,62.89,62.89,0,0,1-3.82-5.51,38.61,38.61,0,0,1-2.74-6.3l1.11-1.18a47,47,0,0,1,6.37,1.77c2,.59,4,1.25,5.8,2s3.74,1.27,5.52,2,3.59,1.29,5.31,2a42.24,42.24,0,0,1,5.13,2.22,44,44,0,0,1,4.95,2.6l5,2.73q2.58,1.17,5.25,2.27l5.45,1.81,5.57,1.53,5.68,1.26,1.4.23c25.82-25.74,40.63-51.41,31.63-69C334.12,422.27,308.4,409,279,402l-.29.84-.89,3.07-.74,3.06c-.17,1-.28,2.09-.35,3.15v3.15a13.71,13.71,0,0,1-.2,3.07,11.66,11.66,0,0,1-.76,2.91,22,22,0,0,1-1.19,2.94,26.86,26.86,0,0,1-1.45,3.07,34.6,34.6,0,0,1-1.84,3.32c-.34.57-.67,1.17-1.09,1.78l-.63.94c-.24.32-.44.64-.72,1l-1.53.26c-.35-.24-.63-.5-.95-.76l-.86-.81a22.64,22.64,0,0,1-1.53-1.72,25.6,25.6,0,0,1-2.24-3.73,30.16,30.16,0,0,1-1.41-4,33.06,33.06,0,0,1-.61-4.09,19.79,19.79,0,0,1,.23-4.07,22.8,22.8,0,0,1,1.25-3.88c.6-1.24,1.25-2.45,1.89-3.63s1.36-2.35,1.95-3.51l2-3.42.91-1.31a286.61,286.61,0,0,0-48.93-4.3c-.73,2.4-1.41,4.83-2,7.25-.27,1.32-.44,2.65-.61,4s-.14,2.7-.23,4a20.33,20.33,0,0,1-.43,3.89,18.51,18.51,0,0,1-1,3.79,36.49,36.49,0,0,1-1.35,3.8,40.13,40.13,0,0,1-1.65,3.89,40.61,40.61,0,0,1-2,4.08c-.37.69-.73,1.41-1.18,2.13l-.67,1.1c-.26.39-.49.75-.78,1.14l-1.63.15c-.34-.34-.6-.69-.9-1l-.82-1.06c-.53-.72-1-1.44-1.44-2.19a38.53,38.53,0,0,1-2-4.6,31.37,31.37,0,0,1-1.6-9.59,28.45,28.45,0,0,1,.44-4.79,33.46,33.46,0,0,1,1.44-4.59c.68-1.46,1.38-2.92,2.09-4.34s1.53-2.82,2.14-4.25c.43-.87.89-1.75,1.37-2.62a276.42,276.42,0,0,0-40.71,4.14,209.68,209.68,0,0,0-22.67,5.64c-.65,4.28-1.14,8.51-1.43,12.69a58.82,58.82,0,0,0,.45,10.1,56.48,56.48,0,0,1,.21,9.73c-.2,3.24-.49,6.52-.8,10s-.61,7.05-1.25,11.25l-1.54.67a26.45,26.45,0,0,1-8.4-9.19,38.22,38.22,0,0,1-4.24-11.38,30.6,30.6,0,0,1-.09-11.91c.72-3.91,1.85-7.66,2.8-11.4.55-2.19,1.2-4.32,1.89-6.44-24.79,8.86-50.84,22.52-68.16,39.3Q65,454.26,68,459.57c.87,1.54,1.84,2.87,2.8,4.27l3.07,4A35.55,35.55,0,0,1,76.78,472a32.65,32.65,0,0,1,2.37,4.4,48.07,48.07,0,0,1,2.09,4.6c.55,1.53,1.33,3.2,1.88,4.9a53.66,53.66,0,0,1,1.69,5.26A38.6,38.6,0,0,1,86.13,497L85,498.08A31.74,31.74,0,0,1,79.17,496a49.24,49.24,0,0,1-5.06-3c-1.53-1.14-3.07-2.35-4.51-3.6a48.1,48.1,0,0,1-4-4.1,44.85,44.85,0,0,1-3.31-4.59,47.09,47.09,0,0,1-2.47-5.11c-.64-1.79-1.26-3.59-1.87-5.38s-1.13-3.6-1.78-5.35q-1.24-3.51-2.22-7.11c-8.63,11-13.32,23.1-11.76,35.94C48,541.42,91,541.21,91,541.21c-11.13,31,14.45,72.2,71.59,62.13a41.11,41.11,0,0,1-10.73-8.12A53.18,53.18,0,0,1,144,584a38.32,38.32,0,0,1-4.2-13.44l1.35-.91a126,126,0,0,1,11.43,6.75c3.53,2.22,6.86,4.43,10.1,6.65.82.57,1.64,1.09,2.43,1.67l2.34,1.75c1.53,1.22,3.07,2.45,4.6,3.77a71.32,71.32,0,0,0,9.47,7.31l1.09.66c2.18-.74,4.37-1.53,6.59-2.42a341.7,341.7,0,0,0,40.62-19.47ZM119.94,498a18,18,0,0,1-12.88-6.13,29,29,0,0,1-6.34-13.08,18.35,18.35,0,0,1,.1-10.23,8.89,8.89,0,0,1,7.67-6.14,12.14,12.14,0,0,1,7,2.75c6.76,4.75,20.75,16.09,16.44,25.64A13.11,13.11,0,0,1,119.94,498ZM290.82,438.9c-2.45-1.38-4.8-4-4-6.7.58-2.13,2.84-3.31,4.95-4,5-1.61,20.89-3.27,20.4,5.69C311.64,443.07,296.05,441.83,290.82,438.9Zm-70.95,75.84a24.76,24.76,0,0,1-13.79-4.1c-4-2.46-7.94-6.31-7.79-11a10,10,0,0,1,6.71-8.54c5.05-1.84,9.46.09,14.18,1.7,3.39,1.15,8.83,1.54,11.53,4.1,7.77,7.4-3.08,17.5-10.84,17.87Z"/><path class="cls-13" d="M312.14,433.89c-.41,7.66-11.36,8.06-18,6.28a289.57,289.57,0,0,1-32.59,54c1.17.36,2.29.76,3.37,1.19,1.94.6,3.74,1.27,5.52,2s3.59,1.28,5.31,2a43.87,43.87,0,0,1,5.13,2.22,45.78,45.78,0,0,1,4.95,2.61l5,2.72c1.72.79,3.47,1.54,5.24,2.27l5.46,1.81,5.56,1.53,5.69,1.26,1.4.23c25.82-25.73,40.63-51.41,31.63-69-7.95-15.53-22.36-26.64-40-34.37-1.84,5.51-3.82,10.95-6,16.33C305.9,426.74,312.46,428.09,312.14,433.89Z"/><path class="cls-13" d="M227.84,549.25a90.43,90.43,0,0,1,7.34,10.52l3.45,5.52c1,1.38,2,2.74,3.07,4.1a410.85,410.85,0,0,0,63-46.27,93.23,93.23,0,0,1-11.78-1.39c-2.12-.45-4.27-.82-6.44-1.18s-4.29-.92-6.44-1.43a59.88,59.88,0,0,1-6.22-2.24,54.11,54.11,0,0,1-5.73-3.29c-1.78-1.32-3.53-2.7-5.19-4.14a47.86,47.86,0,0,1-4.59-4.84c-.82-1.06-1.54-2.13-2.33-3.24a287,287,0,0,1-36.79,37.48l.28.3q2.3,2.51,4.3,5.06C225.08,545.91,226.54,547.54,227.84,549.25Z"/><path class="cls-13" d="M151.94,595.33A53.17,53.17,0,0,1,144,584c-.09-.17-.17-.35-.26-.54a191.14,191.14,0,0,1-36.79,9.38c12.5,9.75,31.23,14.92,55.83,10.58A41.45,41.45,0,0,1,151.94,595.33Z"/><path class="cls-13" d="M222.54,569.69a63.54,63.54,0,0,1-4.6-5.55A64.33,64.33,0,0,1,214.2,558a56.18,56.18,0,0,1-2.9-6.67c-.53-1.53-1-3.2-1.53-4.81-5.85,4.59-11.89,8.87-18.12,12.93a236.24,236.24,0,0,1-35.71,19.25q3.41,2.2,6.65,4.43c.82.57,1.64,1.09,2.43,1.67l2.34,1.75c1.53,1.23,3.07,2.45,4.6,3.77a69.86,69.86,0,0,0,9.47,7.31l1.09.66c2.18-.73,4.37-1.53,6.59-2.42a341.7,341.7,0,0,0,40.62-19.47l-1.95-1.64C226,573,224.29,571.39,222.54,569.69Z"/><path class="cls-14" d="M319.38,455.22a154,154,0,0,0-21.16.08c-7,.43-14.05,1.12-21,2.19a304.86,304.86,0,0,0-41.28,9c-1.68.47-3.38.93-5.07,1.44l-5,1.53-5,1.53-5,1.75-5,1.72c-1.65.58-3.29,1.24-4.95,1.85-3.28,1.26-6.6,2.42-9.84,3.83s-6.53,2.64-9.75,4.06l-9.62,4.36c-3.2,1.53-6.35,3.06-9.5,4.6-1.54.79-3.19,1.53-4.74,2.36l-4.64,2.65a479.52,479.52,0,0,0-70.69,46.42,612.88,612.88,0,0,0-62.94,56.72l-.24-.23A611.26,611.26,0,0,1,86,543.2a482.17,482.17,0,0,1,70.5-47.51l4.6-2.6c1.53-.84,3.16-1.62,4.74-2.43,3.17-1.61,6.3-3.28,9.5-4.81l9.64-4.6c3.22-1.54,6.52-2.82,9.77-4.25s6.59-2.65,9.9-3.95c1.65-.65,3.31-1.31,5-1.92l5-1.76,5-1.72,5.1-1.53,5.09-1.53c1.72-.51,3.43-.95,5.15-1.43l5.15-1.36,5.2-1.2c1.73-.4,3.46-.83,5.19-1.18l5.24-1c3.47-.75,7-1.26,10.5-1.87s7-1,10.56-1.4c14.12-1.53,28.42-2.13,42.52-.23Z"/><path class="cls-9" d="M149.49,881l45.89,1.9a233.55,233.55,0,0,0,43.25-41.38L200,839.15a.87.87,0,0,1,0-1.73l46.2-5.62a286.4,286.4,0,0,0,22.58-36l-36,3a.87.87,0,0,1-.29-1.71l41.15-10.81a346.72,346.72,0,0,0,16.47-40l-23.27,3.47a.88.88,0,0,1-1-.73.86.86,0,0,1,.57-1l26.06-9.2c11.91-37.36,14.31-65.32,14.31-65.32s-33.84.67-77.65,13l-13.55,38.62a.87.87,0,0,1-1.68-.4l4.6-35.07a330.53,330.53,0,0,0-42.32,16.51l-14.81,49a.87.87,0,0,1-1,.69.86.86,0,0,1-.69-1l4.59-42.65a262.58,262.58,0,0,0-43.74,29.12l-5.12,55.18a.87.87,0,0,1-1.73,0l-3.39-46.26a222.09,222.09,0,0,0-39.48,48.2l3.71,46.23a.88.88,0,0,1-1.72.29l-9.2-33.72c-16.15,31.24-26.74,69.45-28.31,116.3,63.4,2.12,112.09-13.33,149.51-37.52l-35.49-7.45a.87.87,0,0,1,.22-1.73Z"/><path class="cls-10" d="M195.38,882.85a233.55,233.55,0,0,0,43.25-41.38L200,839.15a.87.87,0,0,1,0-1.73l46.2-5.62a286.4,286.4,0,0,0,22.58-36l-36,3a.87.87,0,0,1-.29-1.71l41.15-10.81a346.72,346.72,0,0,0,16.47-40l-23.27,3.47a.88.88,0,0,1-1-.73.86.86,0,0,1,.57-1l26.06-9.2c11.91-37.36,14.31-65.32,14.31-65.32a293.05,293.05,0,0,0-37.83,4.11c-15.87,58.84-42.73,115.14-84,159.78C145.69,880,92.44,911.06,35.56,919.41c-.15,2.74-.29,5.5-.38,8.31,63.39,2.11,112.09-13.34,149.5-37.53l-35.48-7.44a.88.88,0,0,1,.21-1.74Z"/><path class="cls-11" d="M271.06,707c-7.84,8.78-15.87,17.38-23.87,26.05S231,750.16,222.88,758.7Q198.45,784.23,173.2,809c-16.86,16.46-33.9,32.72-51.58,48.31-8.84,7.79-17.79,15.47-27,22.79l-7,5.38c-2.39,1.72-4.76,3.48-7.19,5.15a110,110,0,0,1-15.16,9.06l3.83-2.17a21,21,0,0,0,1.87-1.17l1.84-1.21c2.5-1.53,4.83-3.36,7.22-5.06s4.6-3.6,7-5.38l6.82-5.59c9-7.51,17.81-15.33,26.48-23.29,4.34-4,8.62-8,12.94-12s8.57-8.06,12.8-12.14q12.78-12.25,25.35-24.52t25.12-24.81l25-25q12.45-12.51,24.83-25.12Z"/><path class="cls-11" d="M236.3,711.83c-2.69-2.88-7.16,1.3-4.47,4.19S239,714.71,236.3,711.83Z"/><path class="cls-11" d="M254.63,766.53c-2.68-2.86-7.15,1.31-4.46,4.19S257.39,769.43,254.63,766.53Z"/><path class="cls-11" d="M170.53,775.42c-2.68-2.88-7.15,1.29-4.46,4.17S173.23,778.29,170.53,775.42Z"/><path class="cls-11" d="M181.78,852.2c-2.69-2.88-7.15,1.3-4.46,4.18S184.48,855.05,181.78,852.2Z"/><path class="cls-11" d="M132.4,806c-2.7-2.86-7.16,1.3-4.48,4.19S135.1,808.85,132.4,806Z"/><path class="cls-11" d="M116.15,879.7c-2.68-2.89-7.16,1.3-4.46,4.16S118.85,882.58,116.15,879.7Z"/><path class="cls-11" d="M58.25,882.55c-2.69-2.89-7.16,1.3-4.46,4.17S60.94,885.43,58.25,882.55Z"/><path class="cls-3" d="M124.52,754.52a47.8,47.8,0,0,1-6.13-12.83c-.18-.57-.32-1.15-.49-1.73a15.3,15.3,0,0,1-.41-1.75c-.23-1.2-.42-2.41-.57-3.6,0-.62-.16-1.2-.19-1.83s0-1.22,0-1.85a28,28,0,0,1,.25-3.77l1.78-.84A121.69,121.69,0,0,1,130,734c3.3,2.56,6.44,5,9.35,7.51.77.61,1.53,1.24,2.19,1.88.36.33.69.66,1,1l1,1c.68.66,1.32,1.36,2,2.1s1.3,1.42,1.91,2.17c1.22,1.54,2.55,3,3.87,4.46a29.46,29.46,0,0,0,2.08,2.1c.71.69,1.44,1.37,2.21,2l2.33,1.84.6.46a262,262,0,0,0,52.89-15.59l-.46-.4-3.8-3.94-3.45-4.29-3.06-4.6c-.92-1.61-1.92-3.2-3-4.8s-1.89-3.29-2.79-5a37,37,0,0,1-1.95-5.4,34.27,34.27,0,0,1-.61-5.72,50.56,50.56,0,0,1,.55-5.76,42.64,42.64,0,0,1,1.61-5.64,37.2,37.2,0,0,1,2.76-5.27,24.47,24.47,0,0,1,4.2-4.6l1.93.37a42.19,42.19,0,0,1,2.77,5.18,45,45,0,0,1,2.18,4.6,42.91,42.91,0,0,1,1.84,4.29,38.17,38.17,0,0,1,1.53,4.1,18.53,18.53,0,0,1,1.15,4.07,19.76,19.76,0,0,1,.57,4.2c.17,1.42.29,2.89.43,4.38a26.83,26.83,0,0,0,.93,4.34l1.54,4.21,1.73,4.16,2,4.1,1.64,2.87a212.4,212.4,0,0,0,66-48.85L284.86,690l-2.94-1.79a103,103,0,0,1-11.42-7.67c-.88-.76-1.75-1.53-2.58-2.34s-1.53-1.69-2.33-2.59a26.36,26.36,0,0,1-2-2.82,29.31,29.31,0,0,1-1.69-3.07,39.94,39.94,0,0,1-3.88-13.3,29.7,29.7,0,0,1,1.66-14l1.91-.45c3.65,3.24,6.44,6.21,9.2,9s5.16,5.44,7.56,8c.59.63,1.18,1.29,1.73,2s1.12,1.32,1.62,2,1,1.38,1.53,2.1,1,1.42,1.54,2.17a42.6,42.6,0,0,0,6.6,8.4l2,1.81,2.1,1.73,1.69,1.28a249,249,0,0,0,38.32-69.34h-4.36c-1.74,0-3.51-.1-5.29-.17a33.77,33.77,0,0,1-5.18-1,30,30,0,0,1-4.82-2.11,51.63,51.63,0,0,1-4.4-3.07,42.06,42.06,0,0,1-3.88-3.79,36.78,36.78,0,0,1-3.23-4.59,26,26,0,0,1-2.26-5.55l1.09-1.64a39.13,39.13,0,0,1,5.72-.54,46.52,46.52,0,0,1,5,0,39.3,39.3,0,0,1,4.6.28,36.63,36.63,0,0,1,4.3.55,18.66,18.66,0,0,1,4,1,20.61,20.61,0,0,1,3.86,1.66c1.29.61,2.56,1.27,3.88,2a27.56,27.56,0,0,0,4.05,1.53l1.94.52Q344.06,585,347,572.8a22.75,22.75,0,0,0-16.91-27.35c-.57-.13-1.15-.24-1.73-.33a382.89,382.89,0,0,0-68.82-4.27l-1,3.07-1.18,3.94c-.36,1.33-.63,2.68-.86,4s-.34,2.75-.54,4.1a19,19,0,0,1-.9,3.93,17,17,0,0,1-1.66,3.66,33.18,33.18,0,0,1-2.22,3.53,36.53,36.53,0,0,1-2.73,3.47,37.18,37.18,0,0,1-3.31,3.45,28.83,28.83,0,0,1-4.26,3.45l-1.92-.35a24.72,24.72,0,0,1-2.57-5,32.26,32.26,0,0,1-1.38-4.91,35.79,35.79,0,0,1-.51-4.84,39.15,39.15,0,0,1,.22-4.72,23.09,23.09,0,0,1,1.06-4.49,26.43,26.43,0,0,1,2.07-4.16c.87-1.3,1.77-2.59,2.66-3.86s1.61-2.28,2.35-3.46a272.89,272.89,0,0,0-69,14.19v4.28l.14,4.29.26,4.25.39,4.18c.2,1.39.47,2.77.79,4.14s.8,2.71,1.17,4a19.64,19.64,0,0,1,.84,4,18.46,18.46,0,0,1,.09,4.07,56,56,0,0,1-1.19,8.61,43.41,43.41,0,0,1-1.23,4.74,33.81,33.81,0,0,1-2,5.25l-1.84.66a25.77,25.77,0,0,1-4.77-3.32,35.8,35.8,0,0,1-3.63-4,37.58,37.58,0,0,1-2.77-4.38,43.35,43.35,0,0,1-2-4.6,26.28,26.28,0,0,1-1-4.89,27.86,27.86,0,0,1,.12-5c.24-1.67.55-3.32.84-5s.66-3.27.89-4.88l.92-4.81,1.18-4.72.72-2.27a189.66,189.66,0,0,0-79.32,61.11l2.06.89L87.92,624l3.36,1.24,3.35,1.14a34.12,34.12,0,0,0,3.47.78c1.19.14,2.37.26,3.52.43a13.57,13.57,0,0,1,3.33.72,13.21,13.21,0,0,1,3.06,1.45,28.51,28.51,0,0,1,3,2,29.34,29.34,0,0,1,3,2.48,30.68,30.68,0,0,1,3.07,3.07,19.17,19.17,0,0,1,1.53,1.79l.8,1c.28.39.55.72.81,1.15l-.2,2c-.36.34-.72.6-1.09.89l-1.08.75a24.57,24.57,0,0,1-2.21,1.3,24.28,24.28,0,0,1-8.95,2.42,32.3,32.3,0,0,1-4.4,0,18.93,18.93,0,0,1-4.2-1,21.13,21.13,0,0,1-3.82-2c-1.18-.86-2.34-1.75-3.48-2.63s-2.25-1.81-3.4-2.63L84,637.78,80.81,635l-3-2.95-1.53-1.68c-21.25,31.43-36.39,73.54-41.17,129.53a334.15,334.15,0,0,0,99.15,4.15A36.6,36.6,0,0,1,124.52,754.52Z"/><path class="cls-4" d="M284.78,689.93l-2.86-1.73a103,103,0,0,1-11.42-7.67c-.88-.76-1.75-1.53-2.58-2.34s-1.53-1.69-2.33-2.59a26.36,26.36,0,0,1-2-2.82,29.31,29.31,0,0,1-1.69-3.07,39.94,39.94,0,0,1-3.88-13.3,30.13,30.13,0,0,1,1.53-13.48c-19.92,19.36-43.59,35-68.19,48A459.53,459.53,0,0,1,37.29,740.31q-1.3,9.5-2.14,19.62a334.15,334.15,0,0,0,99.15,4.15,36.53,36.53,0,0,1-9.72-9.56,47.8,47.8,0,0,1-6.13-12.83c-.18-.57-.32-1.15-.49-1.73a15.3,15.3,0,0,1-.41-1.75c-.23-1.2-.42-2.41-.57-3.6,0-.62-.15-1.2-.18-1.83s0-1.22,0-1.85a28,28,0,0,1,.24-3.77l1.78-.84A121.69,121.69,0,0,1,130,734c3.3,2.56,6.44,5,9.35,7.51a27.52,27.52,0,0,1,2.19,1.88c.36.33.69.66,1,1l1,1c.68.66,1.32,1.36,2,2.1s1.3,1.42,1.92,2.17c1.21,1.54,2.54,3,3.86,4.46a29.46,29.46,0,0,0,2.08,2.1c.71.69,1.44,1.37,2.21,2L158,760l.6.46a262.08,262.08,0,0,0,52.83-15.59l-.46-.4-3.8-3.94-3.45-4.29-3.06-4.6c-.92-1.61-1.92-3.2-3-4.8s-1.89-3.29-2.79-5a37,37,0,0,1-1.95-5.4,34.27,34.27,0,0,1-.61-5.72,50.56,50.56,0,0,1,.55-5.76,42.64,42.64,0,0,1,1.61-5.64,37.2,37.2,0,0,1,2.76-5.27,24.47,24.47,0,0,1,4.2-4.6l1.93.37a42.19,42.19,0,0,1,2.77,5.18,45,45,0,0,1,2.18,4.6,42.91,42.91,0,0,1,1.84,4.29,38.17,38.17,0,0,1,1.53,4.1,18.53,18.53,0,0,1,1.15,4.07,19.76,19.76,0,0,1,.57,4.2c.17,1.42.29,2.89.43,4.38a26.83,26.83,0,0,0,.93,4.34l1.54,4.21,1.73,4.16,2,4.1,1.64,2.87a212.4,212.4,0,0,0,66-48.85Z"/><path class="cls-4" d="M281.92,616.92a192.43,192.43,0,0,1-21.81,25.37l1.44-.34c3.64,3.24,6.43,6.21,9.19,9s5.17,5.44,7.56,8c.6.63,1.18,1.29,1.73,2s1.12,1.32,1.63,2,1,1.38,1.53,2.1,1,1.42,1.53,2.17a43,43,0,0,0,6.61,8.4l2,1.81,2.1,1.73,1.68,1.28a248.77,248.77,0,0,0,38.32-69.34h-4.35c-1.75,0-3.51-.1-5.29-.17a33.77,33.77,0,0,1-5.18-1,30.06,30.06,0,0,1-4.83-2.11,51.63,51.63,0,0,1-4.4-3.07,43.35,43.35,0,0,1-3.88-3.79,36.78,36.78,0,0,1-3.23-4.59,25.94,25.94,0,0,1-2.25-5.55l1.08-1.64a39.26,39.26,0,0,1,5.72-.54,46.52,46.52,0,0,1,5,0,39.17,39.17,0,0,1,4.6.28,36.8,36.8,0,0,1,4.31.55,18.8,18.8,0,0,1,4.05,1,20.9,20.9,0,0,1,3.86,1.66c1.29.61,2.56,1.27,3.88,2a27,27,0,0,0,4,1.53l1.95.52Q344,585,346.92,572.8A22.75,22.75,0,0,0,330,545.45q-.87-.19-1.74-.33c-5.36-.82-11.51-1.64-18.28-2.35C307.79,569.18,297.4,595.22,281.92,616.92Z"/><path class="cls-5" d="M59.47,739.3q21.35-18.39,43.71-35.45a34,34,0,0,1,9.78-1.74,71.5,71.5,0,0,1,14.67,1.31c4.86.87,9.7,2.05,14.52,3.38s9.61,2.82,14.44,4.36a77,77,0,0,0-13.69-6.67,81.73,81.73,0,0,0-14.72-4.15,51.78,51.78,0,0,0-15.42-.66A29.5,29.5,0,0,0,107,701q10.58-8,21.36-15.77c12.46-8.94,25.15-17.54,38-25.92a22.18,22.18,0,0,1,2.31-.35,42.52,42.52,0,0,1,8.59,0c1.42.12,2.85.33,4.27.52s2.84.49,4.25.81c2.83.58,5.64,1.27,8.41,2.11s5.57,1.68,8.32,2.63,5.49,1.94,8.25,2.94c5.46,2.07,10.9,4.26,16.37,6.5a105.17,105.17,0,0,0-15.43-8.74c-2.67-1.29-5.41-2.41-8.17-3.49s-5.61-2-8.46-2.84a67.65,67.65,0,0,0-17.69-2.88,36.62,36.62,0,0,0-7.67.7q15.81-10.25,31.84-20.14,13.36-8.29,26.94-16.23c.51-.14,1-.27,1.54-.38a45.11,45.11,0,0,1,8.11-1,56.9,56.9,0,0,1,8.15.29A69,69,0,0,1,254.3,621c2.68.54,5.33,1.24,8,2s5.24,1.7,7.84,2.62q7.78,2.88,15.33,6.45a72.77,72.77,0,0,0-14.47-8.7A76.89,76.89,0,0,0,254.86,618a51.81,51.81,0,0,0-17.07-1,39,39,0,0,0-4,.7q21.6-12.51,43.5-24.52l-.14-.28c-26.46,12.46-52.11,26.5-77.33,41.46q-3.9,2.34-7.78,4.74a45.6,45.6,0,0,0,3.75-5.77A87.21,87.21,0,0,0,202,618.76a137.89,137.89,0,0,0,4.09-15.23,112.34,112.34,0,0,0,2.23-15.59c-1.61,5-3.07,10-4.6,15s-3.07,9.93-4.71,14.84-3.39,9.76-5.49,14.47a57.16,57.16,0,0,1-3.51,6.83c-.41.69-.84,1.37-1.3,2-17.55,10.89-34.65,22.47-51.44,34.5a42.85,42.85,0,0,0,2.69-4,47,47,0,0,0,3.58-7.51c.52-1.29.94-2.62,1.37-3.94s.76-2.65,1.07-4a82.5,82.5,0,0,0,2.15-16.34,77.21,77.21,0,0,0-1-16.35c-.3,5.46-.75,10.82-1.38,16.17A140.92,140.92,0,0,1,143,655.43c-.61,2.59-1.33,5.15-2.19,7.66a59.24,59.24,0,0,1-2.94,7.37c-.26.6-.57,1.18-.89,1.77s-.61,1.18-.95,1.74l-1,1.7-1.12,1.66c-.39.57-.79,1.12-1.22,1.65l-5.76,4.2q-28.16,20.63-54.78,43.2c.35-.49.69-1,1-1.54a48.24,48.24,0,0,0,6-12.84,60,60,0,0,0,2.5-13.8,52.71,52.71,0,0,0-.75-14q-.56,6.94-1.67,13.67a107.37,107.37,0,0,1-3.07,13.25A73.18,73.18,0,0,1,71,723.66a59.47,59.47,0,0,1-5,7.93c-2.53,2.17-5,4.36-7.54,6.54Q46.6,748.59,35.15,759.41v.52l.93.2Q47.57,749.51,59.47,739.3Z"/><path class="cls-6" d="M916.25,88.9a26.63,26.63,0,0,1,2.23,9.82,40.49,40.49,0,0,1-.88,9.94,34,34,0,0,1-3.66,9.84l-1.53.15a40.11,40.11,0,0,1-5.55-8.77,69.72,69.72,0,0,1-3.45-8.57,36.33,36.33,0,0,1-1.76-8.44,44.52,44.52,0,0,0-1.37-8.43c-.08-.28-.17-.55-.26-.83A97.43,97.43,0,0,0,889.64,88h0l-2.29,1.21-.94.5c-.72.38-1.42.78-2.13,1.18l-1.16.67L881,92.81h0c-17,10.43-32.37,26.05-44.13,44.09a70.53,70.53,0,0,1,6.76,2.27c4.23,1.66,8.51,3.3,12.59,5.29a45.16,45.16,0,0,1,11,7.66,67.52,67.52,0,0,1,8.73,10A52.75,52.75,0,0,1,882.59,174l-1,1.14A66,66,0,0,1,869,170.33a124.91,124.91,0,0,1-11-6.13,80.65,80.65,0,0,1-9.83-7,69.61,69.61,0,0,0-9.78-7,77.2,77.2,0,0,0-7.32-3.7c-10,18.07-16.42,38-17.57,57.59-.18,3.06-.24,6.13-.21,9.12a58.41,58.41,0,0,1,6.31-1,87.67,87.67,0,0,1,11.22-.69,26.84,26.84,0,0,1,11,2.61,33.6,33.6,0,0,1,9.19,6.43,25,25,0,0,1,6.26,9.61l-1,1.2c-3.94-.29-7.24-.83-10.43-1.3s-6.13-1-9-1.54a54,54,0,0,1-8.41-2.14,38,38,0,0,0-8.66-2,54.3,54.3,0,0,0-6-.18c1.93,22.07,8.51,42.68,13.55,63.6.35,1.54.7,2.95,1,4.42.55-.38,1.12-.75,1.7-1.09a20.13,20.13,0,0,1,3.65-1.53,37.55,37.55,0,0,1,3.91-.91,35.21,35.21,0,0,1,4.11-.33,30.45,30.45,0,0,1,4.27.32c.74.14,1.46.29,2.21.5l1.12.33c.38.15.75.26,1.15.43l.5,1.44c-.2.39-.39.72-.59,1.07l-.62,1c-.4.65-.83,1.22-1.25,1.78a42.06,42.06,0,0,1-5.23,5.77,28.4,28.4,0,0,1-2.74,2.29,17,17,0,0,1-2.92,1.89,18.3,18.3,0,0,1-3.2,1.33l-3.07,1c2.95,18.39,3.53,37.65-1.53,56.71-.7,2.65,1.84,4.06,3.71,2,18.27-19.75,42.7-30.79,65.91-38.59l5-1.67q-1-5.34-2.38-10.53c-.37-1.29-.81-2.56-1.27-3.82l-1.53-3.72a23.46,23.46,0,0,1-1.28-3.73,21.89,21.89,0,0,1-.72-3.86c-.17-1.32-.27-2.65-.32-4a36.78,36.78,0,0,1,0-4.2,38.78,38.78,0,0,1,.29-4.44c.08-.79.17-1.54.31-2.36l.23-1.23c.11-.43.18-.84.31-1.29l1.39-.64c.41.2.77.43,1.15.64l1.07.71a21,21,0,0,1,2,1.53,37.07,37.07,0,0,1,3.38,3.37,40.16,40.16,0,0,1,2.74,3.73,41.9,41.9,0,0,1,2.18,4,29,29,0,0,1,1.53,4.24,30.37,30.37,0,0,1,.63,4.45c0,1.53,0,3.06.07,4.6s0,3.06,0,4.47c.1,3.07,0,6.13-.15,9.2,21.8-6.91,43.73-13.8,63.69-28.07l2-1.53c-.16-.34-.32-.69-.49-1l-2.19-4-2.42-3.8L972.09,281l-2.79-3.42c-1-1.09-2.07-2.1-3.07-3.06s-2.29-1.83-3.41-2.75a26,26,0,0,1-3.28-2.73,23.94,23.94,0,0,1-3-3.06,40.7,40.7,0,0,1-2.88-3.28c-1-1.07-2-2.21-2.94-3.46s-2-2.4-3.07-3.79a40.66,40.66,0,0,1-3.15-4.34l.55-1.42a26.83,26.83,0,0,1,5.65-.52,39.76,39.76,0,0,1,5.44.75,52,52,0,0,1,5.17,1.68,47.69,47.69,0,0,1,4.81,2.49,26.54,26.54,0,0,1,7.67,7.37c1,1.53,1.93,3.06,2.86,4.6s1.72,3.06,2.62,4.59l2.41,4.6,2,4.8,1.54,4.92.78,3.33c21.56-18.63,37.69-45.86,45.24-74-.67-.19-1.34-.34-2-.48l-3.74-.7-3.74-.46-3.71-.23h-3.66c-1.23.09-2.45.24-3.65.43s-2.38.56-3.54.81a18.34,18.34,0,0,1-3.45.69,16.87,16.87,0,0,1-3.48.21,31.4,31.4,0,0,1-3.63,0,34.78,34.78,0,0,1-3.82-.2,31.53,31.53,0,0,1-4.15-.35,15,15,0,0,1-2.24-.24l-1.19-.17c-.42-.1-.83-.14-1.28-.25l-.75-1.33c.17-.43.37-.78.55-1.18l.62-1.09a20.82,20.82,0,0,1,1.38-2.08,30.51,30.51,0,0,1,3.37-3.45,38.66,38.66,0,0,1,3.92-2.67,43.29,43.29,0,0,1,4.29-1.93,29.11,29.11,0,0,1,4.6-1,32.1,32.1,0,0,1,4.6,0c1.53.23,3.07.51,4.6.77s3.06.69,4.47,1l4.39,1.1,4.24,1.44,4.07,1.83,3.87,2.13.79.5a129.12,129.12,0,0,0,3.06-28.74h0v-3.77l-.14-2.43-.09-1.06a24.91,24.91,0,0,0-.23-2.59v-.14a96.45,96.45,0,0,0-2-11.95h0a114.59,114.59,0,0,0-7.66-22.57q-5.61,4.26-10.73,8.79c-1,.87-1.87,1.82-2.77,2.77l-2.59,3a22.5,22.5,0,0,1-2.93,2.68,20.63,20.63,0,0,1-3.07,2.27,34,34,0,0,1-3.42,2,39.28,39.28,0,0,1-3.7,1.78,40.43,40.43,0,0,1-4.1,1.53c-.72.23-1.44.48-2.23.68l-1.18.29a10.64,10.64,0,0,0-1.29.23l-1.15-1v-1.31l.17-1.22c.1-.83.29-1.61.46-2.39a34,34,0,0,1,1.53-4.39,43.16,43.16,0,0,1,2.1-4q1.2-1.86,2.56-3.59a26.8,26.8,0,0,1,3.06-3.06,30.1,30.1,0,0,1,3.62-2.43c1.3-.69,2.62-1.33,3.93-2s2.62-1.26,3.87-1.95a91.44,91.44,0,0,1,14-6.13c-8.83-16.11-21.59-30.06-37.18-38.67-21.46-11.82-48.53-13.8-73.08-7.86A93.29,93.29,0,0,1,916.25,88.9ZM886.53,310.07c.26,3.79-.7,10.73-4.87,12.43-3.76,1.53-8.81-1.82-10.27-5.15a12.13,12.13,0,0,1,2.54-12.54,8,8,0,0,1,6.63-3.06C884.28,302.24,886.29,306.38,886.53,310.07Zm47.73-114.95c3.21-4.89,8.11-8.48,12.92-12a33.39,33.39,0,0,1,10.15-5.72,14,14,0,0,1,12,1.67,12.27,12.27,0,0,1,4.5,11.73A23.43,23.43,0,0,1,968,201.66c-6.28,7.67-26,29.63-35.48,10.5a17.36,17.36,0,0,1,1.7-17.09Zm-46.68,10.43a7,7,0,0,1-5.23,3.81c-7.86,1.79-24.85-3.88-29.34-9.43-3.6-4.43-1.62-9,4.34-10.56s15.33,0,21.84,3.59,10,8.75,8.39,12.55Z"/><path class="cls-7" d="M864.35,301.07q2.31-6.27,4.6-12.49c1.54-4.14,3.22-8.29,4.88-12.41q5-12.37,10.31-24.62Q894.73,227,906.8,203.19q6-11.91,12.56-23.57c4.37-7.77,8.86-15.46,13.8-23s9.85-14.87,15.33-21.89c1.38-1.73,2.83-3.43,4.24-5.15s3-3.32,4.45-5c.73-.85,1.53-1.54,2.33-2.41l2.36-2.36a16.59,16.59,0,0,1,1.22-1.14l1.26-1.08,2.51-2.2a139.79,139.79,0,0,0-17.44,20.05c-5.29,7.13-10.11,14.58-14.74,22.15-2.33,3.77-4.53,7.66-6.79,11.43s-4.4,7.67-6.5,11.62Q915,192.33,909,204.22t-11.78,23.9c-3.84,8-7.67,16.06-11.33,24.12s-7.36,16.17-10.93,24.31S867.83,292.9,864.35,301.07Z"/><path class="cls-8" d="M865.69,207.1c-5.52-1.87-10.53-4.6-12.68-7.22-3.6-4.43-1.62-9,4.34-10.56a30.71,30.71,0,0,1,14.78.78c2.17-5.25,4.49-10.48,7-15.61a74.1,74.1,0,0,1-10.19-4.17,126.06,126.06,0,0,1-11-6.13,81.75,81.75,0,0,1-9.83-7,69.5,69.5,0,0,0-9.69-7,77.2,77.2,0,0,0-7.32-3.7c-10,18.07-16.42,38-17.57,57.59-.18,3.06-.24,6.13-.21,9.12a58.41,58.41,0,0,1,6.31-1,87.67,87.67,0,0,1,11.22-.69,26.84,26.84,0,0,1,11,2.61,33.6,33.6,0,0,1,9.19,6.43,25,25,0,0,1,6.26,9.61l-1,1.2c-3.94-.29-7.24-.83-10.43-1.3s-6.13-1-9-1.54a54,54,0,0,1-8.41-2.14,38,38,0,0,0-8.66-2,54.3,54.3,0,0,0-6-.18c1.93,22.07,8.51,42.68,13.55,63.6.35,1.54.7,2.95,1,4.42.55-.38,1.12-.75,1.7-1.09a20.13,20.13,0,0,1,3.65-1.53,37.55,37.55,0,0,1,3.91-.91,35.21,35.21,0,0,1,4.11-.33,30.45,30.45,0,0,1,4.27.32c.74.14,1.46.29,2.21.5l1.12.33c.38.15.75.26,1.15.43l.5,1.44c-.2.39-.39.72-.59,1.07l-.62,1c-.4.65-.83,1.22-1.25,1.78a42.06,42.06,0,0,1-5.23,5.77,28.4,28.4,0,0,1-2.74,2.29,17,17,0,0,1-2.92,1.89,18.3,18.3,0,0,1-3.2,1.33l-3.07,1c2.95,18.39,3.53,37.65-1.53,56.71-.7,2.65,1.84,4.06,3.71,2a120.42,120.42,0,0,1,29.94-23.11C845.72,301.26,850.56,251.17,865.69,207.1Z"/><path class="cls-8" d="M916.25,88.9a26.63,26.63,0,0,1,2.23,9.82,40.49,40.49,0,0,1-.88,9.94,34,34,0,0,1-3.66,9.84l-1.53.15a40.11,40.11,0,0,1-5.55-8.77,69.72,69.72,0,0,1-3.45-8.57,36.33,36.33,0,0,1-1.76-8.44,44.52,44.52,0,0,0-1.37-8.43c-.08-.28-.17-.55-.26-.83A97.43,97.43,0,0,0,889.64,88h0l-2.29,1.21-.94.5c-.72.38-1.42.78-2.13,1.18l-1.16.67L881,92.81h0c-17,10.43-32.37,26.05-44.13,44.09a70.53,70.53,0,0,1,6.76,2.27c4.23,1.66,8.51,3.3,12.59,5.29a45.16,45.16,0,0,1,11,7.66,67.52,67.52,0,0,1,8.73,10,60.67,60.67,0,0,1,5.11,8.47c12.95-25.87,29.89-49.69,51.6-68.68a169.53,169.53,0,0,1,31.76-22,110.47,110.47,0,0,0-52.6.14C913.4,83,914.93,85.83,916.25,88.9Z"/></svg>