<svg id="Layer_1" data-name="Layer 1" xmlns="http://www.w3.org/2000/svg" viewBox="0 0 2011.34 1726.88"><defs><style>.cls-1{fill:#026c46;}.cls-2{fill:#026d4f;}.cls-3{fill:#004a21;}.cls-4{fill:#b5dc83;}.cls-5{fill:#a4cc6b;}.cls-6{fill:#217f5d;}.cls-7{fill:#59b260;}.cls-8{fill:#6bb661;}.cls-9{fill:#aad482;}.cls-10{fill:#559b4b;}</style></defs><path class="cls-1" d="M1648.84,1703.55c-34.64,0-98.18-3.94-170.5-27.3-62.78-20.27-119-51.06-167-91.52-60-50.53-107.23-116.3-140.5-195.48q-8-19-15.71-37.47c-134.35-320.86-223.1-532.84-590.22-628.64-89.5-23.36-166-76.18-227.27-157-48.73-64.25-88-146.26-116.77-243.73C172.07,156.9,170.51,1.64,170.5.09l15-.09c0,1.53,1.58,155.19,49.93,318.93C279.74,469,373.56,658.58,568.94,709.57c91.2,23.8,167.27,55,232.57,95.35C862,842.28,913.47,887.81,959,944.13c86.24,106.66,143.64,243.76,210.11,402.49q7.74,18.5,15.7,37.46c73.21,174.25,202.36,247.72,297.82,278.67,103.79,33.65,191.49,25.86,192.36,25.78l1.51,14C1675.32,1702.65,1665.37,1703.55,1648.84,1703.55Z"/><path class="cls-2" d="M0,650.44S113.81,589.3,197.6,420.77c0,0-146.2,49.27-197.6,229.67ZM361.59,237.7s-53.73-87.24-148.26-76.41c0,0,63.64,69,148.26,76.41Zm99.77,174.15s1-84-91.81-161.28c0,0,11.3,94.22,91.81,161.28ZM329,275.89s-74.32-56-153.08-68.83c0,0,59.17,72.74,153.08,68.83ZM410.47,452S400,327.78,329.72,283.77c0,0,13.27,117.67,80.75,168.18ZM299.12,301.66s-74.53-45.26-133.39-37.79c0,0,32.93,49.91,133.39,37.79ZM352,479.16s21.79-111.3-49.24-164.82c0,0,7.59,96,49.24,164.82ZM267,338s-91.89-43.83-139.93-26c0,0,64.17,43.12,139.93,26ZM335.7,509.31s-21.47-128.19-62.48-166.47c0,0-8,88.23,62.48,166.47ZM284,538.12s4.15-128.07-30-172.22c0,0-23.36,123.18,30,172.22ZM227.46,375.58S118.91,346.66,33.91,423.94c0,0,118.05,11.3,193.55-48.36ZM212.32,589.76S267,471,217.93,406.21c0,0-56.29,85.47-5.61,183.55Z"/><path class="cls-3" d="M444.52,182.45C444,183,246.15,359.14,199.83,419,214.41,391,407.51,206.82,440,177.47Z"/><path class="cls-4" d="M230.23,824.15S400.8,732.84,526.65,480.63c0,0-219.06,73.47-296.42,343.52ZM772.64,206.83S692.36,76.06,550.77,92.08c0,0,95.15,103.44,221.87,114.75Zm149,261s1.74-125.8-137.14-241.73c0,0,16.71,141.12,137.14,241.73Zm-198-203.91s-111.18-84-229.09-103.4c0,0,88.45,109.06,229.09,103.4ZM845.36,527.78s-15.34-186-120.55-252c0,0,19.61,176.26,120.55,252ZM678.94,302.48s-111.52-67.94-199.68-56.89c0,0,49.21,74.82,199.68,56.89Zm78.73,265.93s32.88-166.63-73.38-246.94c0,0,11.15,143.77,73.38,246.94ZM630.75,356.77s-137.53-65.84-209.5-39.24c0,0,96,64.7,209.5,39.24ZM733.27,613.52s-31.87-192-93.21-249.43c0,0-12.11,132.12,93.21,249.43Zm-77.54,43s6.51-191.78-44.47-258c0,0-35.25,184.42,44.47,258ZM571.46,413S409,369.47,281.5,485c0,0,176.76,17.18,290-72ZM548.32,733.74s82.22-177.8,8.81-274.87c0,0-84.48,127.87-8.81,274.87Z"/><path class="cls-5" d="M897,124.27C896.14,125,599.49,388.45,530,478c21.89-41.94,311.48-317.36,360.22-361.25Z"/><path class="cls-6" d="M1497.41,541.47s-17.64-124.1-36.22-169.09-36.23-87.5-92.26-81.12-96.24,81.52-118.49,62.56,58.92-113,4.5-186.13-247.51-27.92-252.15-17.32,117,94.95,115.14,101.87-102.47-56.12-138.5-67.05S871.92,198,852.79,217s-30.57,27.47-18.66,33.95,104,26.7,153.07,40.23,91.83,43.87,75.74,47.4S878,255.5,834.21,259.38s-88,83.41-69.69,91.87,164,9,206.19,25.68,48.68,24.25,45.19,34-71.67-14.1-115.71-27.2S786.75,358.14,757.48,376s-64.57,88.61-54.28,96.57,138.79-2.05,187.61,2,67.17.93,68,12.57-140-.34-185.49,6.76-74.92,40.63-80,69.63-4.68,45.7,6.27,51,118.31-30.64,156-31.2,47.94,2.86,46.89,8.2-154.71,19.9-186.12,34.66-29.67,102.69-16.56,101.34,83-37.93,112.91-45.1,63.74-9.77,62.76,1.9-122.74,33-151,55.18-9.42,120.11-9.42,120.11S822.2,921,853.73,897.34s73.39-120.83,90.43-122.68-7.2,66.71-24.61,93.22-41.84,42.66-37.31,48.89,64.8,23,100.28-16.66,42.58-144.64,58.65-150,15.6,66.58,4.9,102.78-30.79,72.14-24,78.21,64.34,11,92.71-21.09,40.53-84.13,33-125.93-10.25-91.89-1.27-97.85,22.58,72.57,15.83,109.93-3.23,117.44.55,119.9,89-23.15,100-72.4S1225.39,639.86,1239,634.38s68.24,202.36,74.42,205.84,89.45-66.31,73-120.78-84.36-157.92-76.77-169,48.33,44.91,70.46,92.65,24.81,76,36.3,75.48,94.93-74,43-137.22-114.7-113-100.61-118.08,105.48,80.09,117.83,84.78,20.16,2.69,20.83-6.61Z"/><path class="cls-1" d="M1468.07,107c-28.66,36.63-120.5,152-236.24,281.21a134.84,134.84,0,0,0,27,14.7c25.16,10.45,56.22,16.47,86.46,18.67,30.39,2.31,94.21,57.78,103.61,86.33-.22-.17-49.57-74.37-104.27-78.44-31-2.3-62.87-8.49-88.94-19.29A134.83,134.83,0,0,1,1226.58,394l-5.37,6c5.28,14.13,15.59,30.49,31.57,50.06,18,22,43,47.93,75.69,78.84,38.32,39.19,84.52,123.74,78.69,153.18,0-.26-19.43-86-84.09-147.42-33-31.27-58.25-57.32-76.39-79.61-15.18-18.47-25.5-34.5-31.37-48.49q-21.82,24.11-44.54,48.61c9.19,18.1,44.51,86.44,72.19,129.59,12.34,19.24,55.58,132.73,58.7,180.56-.1-.32-33.44-126.62-65.35-176.24-26.7-41.68-60.36-106.49-71.36-127.76-10,10.75-20.13,21.46-30.36,32.25-1.47,10.93.55,28.22,4.65,48.77,6.11,30.51,16.75,67.71,27.53,101.83,19.53,61.81,11.74,188.38,11.66,188.79-2.72-39.95-5.91-144.49-19.16-186.43-11-34.36-21.69-71.88-27.84-102.65-3.12-16-5.08-30.31-5.19-41.5-21.72,22.6-43.78,45.17-66,67.17-.84,67.36,5,266.44,5,267-6.06-59.2-12.28-209.73-12.89-259.29-25.88,25.53-52.06,50.37-78.05,74,8,73.5-34,221.28-34.23,221.7,16.18-79.4,31-163.3,26.93-215.16-35.41,31.9-70.45,61.48-104.5,87.33h0l-1.46,1.12c-7.2,24.47-38.69,93.7-59,121.39.1-.28,38.42-80.79,50.93-115.35-40.13,29.9-78.68,54.52-114.31,71.7,35.86-21.14,74.07-48.39,113.4-79.86-34-2.17-67.9,4.3-115.06,11.15.18-.09,74.86-21.87,123.83-18.21,30.16-24.48,60.95-51.31,91.87-79.7-43.18-5.8-142-15.69-229.49-9.61.27,0,102.67-16.83,237,2.65,24.93-23.08,49.94-47.17,74.67-71.83-9.34-.47-21.71-2.22-36.83-5.15-23.33-4.55-53.56-11.82-90-22-46.5-13-104-11.69-149.56-5,.27,0,76.78-23.59,151.66-2.63,36.39,10.15,66.41,17.38,89.47,21.83,19.5,3.83,33.93,5.52,43,5.22,24.85-24.8,49.42-50.17,73.47-75.47-75.73-7.77-314-75.85-314.74-76.08C871,433.88,1064,485.21,1123,488.25q25.63-27.21,50.37-54.16c-23.72-3.44-83.22-14.76-135.5-47.82-65.76-41.48-161.31-66.46-161.59-66.56,27.23-1.56,149.26,49.46,165.81,59.88,55.76,35.29,120,45.2,137.71,47.4,7.84-8.61,15.62-17.15,23.21-25.59-16.84-7-40.22-22.8-65.81-42.34-30-22.92-63-50.91-92.2-76C987.38,233.68,901.88,221,901.61,221c50-3.21,135.16,44.59,148.51,56.09,29.29,25,62.23,52.94,91.84,75.7,26.7,20.4,50.72,36.6,66.74,42.35,2.74-3.08,5.48-6.17,8.24-9.13a75.26,75.26,0,0,1-12-15.15c-5.94-10.38-11.5-28.28-18.13-49.85-16.62-53.65-40.41-130.46-92.63-161.47,59.09,16.92,95.55,144.22,100.2,159.17,6.51,21.11,12,38.7,17.39,48.21A61.49,61.49,0,0,0,1222.17,380c135.41-151.79,235.33-280,236-280.84Z"/><path class="cls-7" d="M843.88,1394.75s108.61,43.28,218.28-4.36,249.74-151.72,329.36-252.06,129.56-259.63,119.37-286.25-157.46-66.29-253.43-45.34-209.54,200.74-246.19,256.32-130.51,223-149,261.61S846,1366,843.88,1394.75Z"/><path class="cls-8" d="M843.88,1394.75s108.61,43.28,218.28-4.36c85.55-37.17,189.6-108.67,269-186,50.61-65.25,90.57-142.55,28.06-172.57-116.66-56-184.28,128.42-288.23,234.7s-155.4,171.53-197.45,89.88c-6.53-12.79-9.35-24.88-8.89-36.66-.89,1.74-1.67,3.39-2.42,4.89-18.45,38.49-16.22,41.35-18.37,70.08Zm605.86-574.83c-54-15.9-132.92-26.16-192.28-13.18-96,21-209.54,200.74-246.19,256.32-24.85,37.62-76,126.76-112.12,192.28,39.59-40.45,109.42-83.37,189.71-141.48,145.77-105.46,361.81-225.32,360.88-293.94Z"/><path class="cls-9" d="M964.93,1296.17c.48-.6,172.75-212.8,358.26-331.09C1508.09,847.14,2005.1,614.69,2006.53,614l4.81,10.29c-1.43.69-497.58,232.71-682,350.41-166.38,114.94-277.77,228.32-364.36,321.47Z"/><path class="cls-10" d="M1352.54,1127.23s77.92-99.93,35.88-126.4-89.71,36.65-102.72,73.53-11.66,70.25,10.78,81.92,43.52-7.58,56.06-29Z"/><path class="cls-10" d="M1110,1307.07s69.63-43.15,50.06-68.66-62.65,2.11-78.79,21.62-22.8,40-11.78,52.15,28.08,5.15,40.51-5.11Z"/><path class="cls-10" d="M1096.18,1065.38s69.69-43.23,50.11-68.74-62.62,2.17-78.85,21.64-22.74,40-11.72,52.12,28.08,5.16,40.46-5Z"/><circle class="cls-1" cx="609.5" cy="935.55" r="14"/><circle class="cls-1" cx="632" cy="850.05" r="8.5"/><circle class="cls-1" cx="569.34" cy="883.05" r="12.49"/><circle class="cls-1" cx="699" cy="989.05" r="16.5"/><circle class="cls-1" cx="684.5" cy="921.55" r="14"/><path class="cls-6" d="M761.35,1192s4,6.74,10.2-4.15,14-35.72,15-44.61c.91-7.48,1.19-22.4-3.42-28.72l34.71,21.54c1,.64,2.62-.07,3.44-1.51l2.48-4.35c.81-1.44.61-3.14-.47-3.72l-36-19.59c7.78.82,20.56-7.13,26.54-11.75,7.1-5.48,24.46-24.86,30.65-35.75s-1.67-10.89-1.67-10.89c-9.46.39-23.12,21-27.83,27.41-4.37,5.92-27.58,26.2-31,29.17l-.66-.36c3.53-2.59,17.77-21.36,23.8-31.26,6.51-10.71,7.82-49.16,7.82-49.16-.52-1.73-3.08-2-4.73.27s-7.08,10.39-12,27.18-13.11,41-15.49,46.74a18.84,18.84,0,0,0-1.59,5l-3.24-1.76c.59-1.19,1.33-2.79,2.13-4.76,2.1-5.13-4.6-16.2-4.63-16.23L774.2,1082s6.32,10.44,4.59,14.66c-.75,1.87-1.44,3.37-2,4.49l-3.34-1.82a2,2,0,0,0-.72-2.23c-.88-.5-2.15.06-2.83,1.25a2.87,2.87,0,0,0-.39,1.75,4,4,0,0,0-.22.34l-.86,1.53-.09.15a3,3,0,0,0-1.28,1.23c-.68,1.19-.5,2.56.38,3.06a1.83,1.83,0,0,0,2.07-.33l3.33,2.06c-.69,1.09-1.69,2.55-3,4.32-2.74,3.63-14.91,3.55-14.94,3.54l-.38,1.71s13,.1,16.32-4.33c1.39-1.84,2.43-3.38,3.16-4.53l3.17,2c-.78.48-1.86,1.69-3.61,4-3.75,5-20.31,24.4-32.23,37.22s-16.13,21.67-17.21,24.23.43,4.63,2.18,4.19c0,0,32.37-20.79,38.24-31.87,5.44-10.28,14.33-32.27,14.68-36.5l.65.41c-.78,4.33-6.34,34.79-9.21,41.59-3.09,7.32-13.81,29.61-9.29,37.94Z"/><path class="cls-4" d="M1027.43,1671.65s61.69-15.7,122.26-114.36c0,0-43.42,18.72-67.46,39.65C1043.83,1630.39,1027.43,1671.65,1027.43,1671.65Zm305-278.68s-44-92.53-139.16-92c0,0,55.82,75.44,139.16,92Zm80.41,183.89s10.09-83.4-73.89-170.24c0,0,1.08,94.89,73.89,170.24Zm-117-149.44s-67.85-63.65-144.75-84.93c0,0,51,78.69,144.75,84.93Zm62,183.81s3-124.56-62.14-175.9c0,0,.5,118.42,62.14,175.9Zm-94.5-161.41s-69.22-53-128.54-52c0,0,27.36,53.18,128.54,52ZM1296.85,1632s33.66-108.3-31.19-169.17c0,0-2.8,96.25,31.19,169.17Zm-69.24-149.53S1141,1429,1091.29,1441.51c0,0,59.15,49.78,136.32,40.94Zm49.83,177.75s-7.52-129.76-44.17-172.23c0,0-17.42,86.86,44.17,172.23Zm-54.54,23.06s17.94-126.87-11.2-174.44c0,0-36.5,120,11.2,174.44Zm-38.65-167.68s-104.8-40.46-197.63,27.21c0,0,116.14,24,197.63-27.21Zm-38.15,211.3s67.22-112.21,25.38-181.87c0,0-65.18,78.9-25.38,181.87Z"/><path class="cls-4" d="M1420.87,1347c-.59.43-216.27,154.27-268.78,208.82,17.52-26.29,229.36-188.59,264.84-214.27Z"/></svg>