<svg id="OBJECTS" xmlns="http://www.w3.org/2000/svg" viewBox="0 0 1036.05 980.09"><defs><style>.cls-1{fill:#aaa441;}.cls-2{fill:#a1973a;}.cls-3{fill:#2b673f;}.cls-4{fill:#276039;}.cls-5{fill:#1f502f;}.cls-6{fill:#006d3c;}.cls-7{fill:#00552b;}.cls-8{fill:#006032;}.cls-9{fill:#5c8643;}.cls-10{fill:#547b3b;}.cls-11{fill:#4d6d32;}.cls-12{fill:#8ea940;}.cls-13{fill:#899b39;}.cls-14{fill:#818c32;}</style></defs><path class="cls-1" d="M628,321.31c8.67-15.16-16.71-36.8-24.27-42.75.07-.12.2-.23.2-.34,3.42-6,6.47-12.18,9.31-18.5,6.5,11.33,30,50.37,34.71,33.57S623,261.85,614.09,257.85c3.34-7.56,6.38-15.22,9.34-22.88,6.8,10.27,33.45,48.88,37.07,31.6s-27.68-30.08-36.43-33.3l.46-1.17c3.23-8.31,6.53-16.83,10.19-25.17,5.75,11.91,26.33,52.32,32.19,35.85S644.16,209.59,635.59,205c2.73-6.06,5.61-12,8.86-17.78l.8-1.37c6.06,10.84,29.69,51.41,34.61,34.28,4.84-16.86-25-31.87-33.72-35.84a116.2,116.2,0,0,1,31.15-34.56c14.39-10.32,30-14.92,45-13.38a1,1,0,0,0,1-.85,1,1,0,0,0-.24-.72.91.91,0,0,0-.6-.3c-15.48-1.61-31.51,3.15-46.33,13.71a119.09,119.09,0,0,0-33.4,38.11c-1.32,2.33-2.56,4.67-3.77,7.06-6.41-7.92-27.77-32.18-42.67-23.51-15.45,9,30,22,41.81,25.2-4.11,8.28-7.71,16.83-11.1,25.37-5.05-9.12-21.7-36.33-37.78-30.44-16.94,6.23,26.46,27.33,37.05,32.29-1.21,3.07-2.41,6.22-3.57,9.2s-2.32,5.9-3.51,9c-6.13-7.44-28.37-32.23-43.43-23.08-15.54,9.41,31.88,21.92,42.8,24.63-3,7.62-6.21,15.27-9.77,22.72-5.64-8.4-24.84-34.57-40.49-27.21-16.29,7.66,28.6,24.82,39.7,28.85-1.83,3.74-3.74,7.43-5.81,11-1.89,3.3-4,6.64-6.36,10-4.28-9.57-18.4-38.15-34.93-33.72-17.31,4.59,23.17,29.12,33.72,35.25A122.39,122.39,0,0,1,584,301.64c-5.81-8.46-25.05-34.26-40.56-26.85-15.89,7.59,26.81,23.91,39.07,28.34a100.28,100.28,0,0,1-16.86,13.52c-4.6-8.69-21.12-37.17-37.52-31.44C511.41,291.08,552.43,312,564,317.64a74.49,74.49,0,0,1-12.43,6c-5.18-7.18-26.5-34.44-42.15-26.26s27.89,23,40.15,26.95A63,63,0,0,1,540,326.7c-9.23-3.51-40.34-14-49,1.24s35.26,4.25,48.1.75a64.6,64.6,0,0,0,13.47-3.48C542,335.82,513.45,365.74,530.31,366c17.69.24,24.23-33,25.77-42.15a81.92,81.92,0,0,0,14.1-7.9c-5.83,13.18-22.17,52.84-6.13,46.78,16.44-6.22,10.53-39.31,8.52-48.51a109.27,109.27,0,0,0,17.07-15.88c-1.93,13.92-6.95,57.29,6.92,47,14.14-10.5-.72-40.8-5.14-49a124.74,124.74,0,0,0,11.21-15.8C606.23,293.24,619.33,336.47,628,321.31Z"/><path class="cls-2" d="M594.73,302.85q-3.12,2.89-6.34,5.69c-1.89,18-3.13,45.17,8.17,36.78C608.07,336.77,600.39,315.13,594.73,302.85Z"/><path class="cls-2" d="M530.28,366c14.35.2,21.4-21.64,24.34-34.78A116,116,0,0,1,542,336.42C530.36,349.28,517.76,365.85,530.28,366Z"/><path class="cls-2" d="M564.05,362.77c13.9-5.26,11.83-29.69,9.64-42.71q-3.56,2.46-7.27,4.74C559.68,341.49,550.77,367.86,564.05,362.77Z"/><path class="cls-2" d="M716.32,136.18c-1.18-.59-2.36-1.19-3.55-1.74-12.37.75-24.85,5.44-36.57,13.79l-1.28,1,.19,2.19c.64-.55,1.45-1.09,2.18-1.61C689.76,140.84,703.19,136.18,716.32,136.18Z"/><path class="cls-2" d="M669.73,198.78q-1.11,3.5-2.41,6.94c-1.12,2.95-2.34,5.83-3.66,8.68,7,8.83,13.81,14,16.18,5.76C682.1,212.33,676.86,204.9,669.73,198.78Z"/><path class="cls-2" d="M611.82,285.5q-2.85,3.13-5.79,6.22c5.5,17.13,15.11,41.62,22,29.59C634.58,309.84,621.77,294.77,611.82,285.5Z"/><path class="cls-2" d="M628.9,265.74,626,269.16c-1.37,1.63-2.73,3.24-4.11,4.85,9.56,14.68,22.67,31.54,26.05,19.28C651,282.44,639.7,272.5,628.9,265.74Z"/><path class="cls-2" d="M645.94,244.13q-4,5.49-8.17,10.82c9.64,12,20.48,22.47,22.72,11.75C662.37,257.65,654.85,249.84,645.94,244.13Z"/><path class="cls-2" d="M659.64,222.4c-2.56,4.74-5.3,9.33-8.37,13.93,6.43,9.09,12.76,14.55,15.62,6.5C669.42,235.73,665.54,228.61,659.64,222.4Z"/><path class="cls-3" d="M969.59,202a290.42,290.42,0,0,0,19-84.3c-48.15-8.65-87-5.49-118.29,5.15l1.07,1.62,1.81,3.16,1.53,3.3,1.4,3.38c.41,1.15.93,2.29,1.42,3.45s1,2.35,1.43,3.53a14.52,14.52,0,0,1,.69,7.42,31.36,31.36,0,0,1-.95,3.7,25.07,25.07,0,0,1-1.66,3.61,24.36,24.36,0,0,1-2.42,3.37,18.41,18.41,0,0,1-1.53,1.53l-.88.75c-.33.23-.63.48-1,.71l-1.69-.28c-.29-.32-.52-.63-.78-.93l-.66-.91c-.44-.6-.8-1.18-1.15-1.74a29.36,29.36,0,0,1-1.87-3.27,22.9,22.9,0,0,1-1.39-3.07,20.61,20.61,0,0,1-1-3,10.59,10.59,0,0,1-.52-2.9,11.75,11.75,0,0,1,.14-3c.13-1,.29-2,.44-3.06a28.67,28.67,0,0,0,.14-3.07l-.2-3.06-.28-3.07L862,128l-.3-1.93a164.93,164.93,0,0,0-69.34,52.64l2.07-.09h4.23L803,179a35.79,35.79,0,0,0,4.3.35c1.46.12,2.91.26,4.36.41a25.39,25.39,0,0,1,4.23,1,22.82,22.82,0,0,1,3.87,2,36.1,36.1,0,0,1,3.48,2.71,31.13,31.13,0,0,1,3.06,3.33,32.93,32.93,0,0,1,2.52,3.94,23.09,23.09,0,0,1,1.7,4.76l-1,1.41a30.5,30.5,0,0,1-4.86.45c-1.42.07-2.83.07-4.25,0a33.86,33.86,0,0,1-3.89-.35,29.59,29.59,0,0,1-3.63-.62,15.34,15.34,0,0,1-3.39-1,17.52,17.52,0,0,1-3.17-1.54c-1-.61-2.09-1.25-3.15-1.9s-2.17-1.13-3.29-1.61l-3.44-1.27-3.51-1.18-3.57-1.09-3.6-1a237.28,237.28,0,0,0-27.59,54.73c1.15-.35,2.16-.74,3.44-1.19s2.56-.92,3.86-1.35a20.5,20.5,0,0,1,3.95-.8,19.3,19.3,0,0,1,4,.12,32.24,32.24,0,0,1,4,.89,30.57,30.57,0,0,1,4,1.53,29.23,29.23,0,0,1,3.81,2.27,21.74,21.74,0,0,1,3.61,3.3l-.14,1.7a27.85,27.85,0,0,1-3.86,2.79,31.69,31.69,0,0,1-3.67,2,35.51,35.51,0,0,1-7,2.61,14.88,14.88,0,0,1-3.45.56,17.17,17.17,0,0,1-3.51-.13c-1.18-.14-2.38-.31-3.57-.48s-2.4-.19-3.6-.2l-3.59.09-2.84.13a333.88,333.88,0,0,0-12,58.81c0,.51-.09,1-.11,1.55a19.79,19.79,0,0,0,19.15,20.41c7.28.31,14.27.26,21.07,0v-1.78a25,25,0,0,0-.39-3.75c-.26-1.24-.53-2.49-.76-3.7a19,19,0,0,1-.5-3.61,15.85,15.85,0,0,1,.11-3.64,28,28,0,0,1,.52-3.74,26.49,26.49,0,0,1,.81-3.92,40.93,40.93,0,0,1,1.15-4.21,31,31,0,0,1,1.76-4.68l1.61-.55a22.41,22.41,0,0,1,4.15,3.16,32.39,32.39,0,0,1,3.07,3.75,36.08,36.08,0,0,1,2.3,4.12A43,43,0,0,1,797,319a25.55,25.55,0,0,1,.69,4.6,28.23,28.23,0,0,1-.37,4.59c-.33,1.51-.69,3-1.05,4.5-.37,1.22-.68,2.43-1,3.66a217.14,217.14,0,0,0,67-16.46l-.69-1.7-1-2.17-1.06-2.1A37.86,37.86,0,0,0,854,306.5c-.55-.57-1-1.13-1.53-1.72a50.84,50.84,0,0,1-2.74-3.58c-.45-.62-.86-1.24-1.26-1.9-1.64-2.61-3.31-5.26-5-8.19s-3.59-5.95-5.47-9.75l.79-1.53a25.91,25.91,0,0,1,12.16,1.79,34.62,34.62,0,0,1,10.3,6.29,22.43,22.43,0,0,1,2.16,2.1c.67.8,1.35,1.5,1.93,2.33s1.15,1.67,1.64,2.54.95,1.78,1.38,2.7a89.06,89.06,0,0,1,3.91,11.36l.75,2.85.61,2.76a185,185,0,0,0,56-44.45l-2-2-3.07-2.6-3.06-2.42-3.21-2.18a23.73,23.73,0,0,0-3.43-1.78c-1.21-.44-2.42-.89-3.59-1.35a16.38,16.38,0,0,1-3.4-1.44,16.09,16.09,0,0,1-3.07-1.88,30.55,30.55,0,0,1-3.06-2.26,30.88,30.88,0,0,1-3.19-2.51,42.4,42.4,0,0,1-3.4-2.88,34.68,34.68,0,0,1-3.68-3.49l.14-1.71a22.58,22.58,0,0,1,4.84-2.48,35.3,35.3,0,0,1,5.07-1.12,39.61,39.61,0,0,1,5.11,0,45.9,45.9,0,0,1,5,.86,28.91,28.91,0,0,1,4.6,1.81,29.22,29.22,0,0,1,4.09,2.79c1.23,1.15,2.49,2.24,3.59,3.48s2.21,2.43,3.36,3.57l3.17,3.65,2.82,3.89,2.45,4.09.23.48a228.35,228.35,0,0,0,25.23-41c-.09-.22-.17-.42-.26-.62l-1-2.37c-.35-.77-.77-1.55-1.18-2.3a23.64,23.64,0,0,0-1.29-2.24c-.95-1.44-1.85-2.89-2.86-4.26-.49-.69-.94-1.39-1.4-2.1s-.92-1.39-1.33-2.11c-.2-.37-.37-.76-.59-1.11s-.41-.72-.61-1.09c-.38-.73-.75-1.5-1.09-2.26-1.45-3-2.79-6.23-4.18-9.57a100.41,100.41,0,0,1-4-11.19l1.11-1.3a25.54,25.54,0,0,1,3.22.66c.5.12,1,.29,1.53.44s1,.37,1.53.55c1,.4,2,.83,2.9,1.31a13.22,13.22,0,0,1,1.38.75l1.35.8a41.06,41.06,0,0,1,9.36,8.13A31.91,31.91,0,0,1,969.59,202Z"/><path class="cls-4" d="M873.61,314.55a185,185,0,0,0,56-44.45l-2-2-3.07-2.6-3.06-2.42-3.21-2.18a23.73,23.73,0,0,0-3.43-1.78c-1.21-.44-2.42-.89-3.59-1.35a16.38,16.38,0,0,1-3.4-1.44,16.09,16.09,0,0,1-3.07-1.88,30.55,30.55,0,0,1-3.06-2.26,30.88,30.88,0,0,1-3.19-2.51,42.4,42.4,0,0,1-3.4-2.88,34.68,34.68,0,0,1-3.68-3.49l.14-1.71a22.58,22.58,0,0,1,4.84-2.48,35.3,35.3,0,0,1,5.07-1.12,39.61,39.61,0,0,1,5.11,0,45.9,45.9,0,0,1,5,.86,28.91,28.91,0,0,1,4.6,1.81,29.22,29.22,0,0,1,4.09,2.79c1.23,1.15,2.49,2.24,3.59,3.48s2.21,2.43,3.36,3.57l3.17,3.65,2.82,3.89,2.45,4.09.23.48a228.35,228.35,0,0,0,25.23-41c-.09-.22-.17-.42-.26-.62l-1-2.37c-.35-.77-.77-1.55-1.18-2.3a23.64,23.64,0,0,0-1.29-2.24c-.95-1.44-1.85-2.89-2.86-4.26-.49-.69-.94-1.39-1.4-2.1s-.92-1.39-1.33-2.11c-.2-.37-.37-.76-.59-1.11s-.41-.72-.61-1.09c-.38-.73-.75-1.5-1.09-2.26-1.45-3-2.79-6.23-4.18-9.57a102.24,102.24,0,0,1-3.92-11.19l1.1-1.3a25.18,25.18,0,0,1,3.22.66c.5.12,1,.29,1.53.44s1,.37,1.53.55c1,.4,2,.83,2.9,1.31a12.28,12.28,0,0,1,1.38.75l1.35.8a41.06,41.06,0,0,1,9.36,8.13,31.67,31.67,0,0,1,5.84,10.35,290.42,290.42,0,0,0,19-84.3q-8.73-1.56-17.06-2.62a399.79,399.79,0,0,1-76.42,118.2c-16.55,17.72-35,34.17-55.83,46.43A26,26,0,0,1,851,281.62a34.5,34.5,0,0,1,10.3,6.29,21.33,21.33,0,0,1,2.16,2.1c.68.8,1.35,1.5,1.93,2.33s1.15,1.67,1.64,2.54,1,1.78,1.38,2.7a89.06,89.06,0,0,1,3.91,11.36l.75,2.85Z"/><path class="cls-4" d="M743.81,299.33c-.95,5.87-1.66,11.22-2.18,15.91-.06.51-.1,1-.11,1.55a19.78,19.78,0,0,0,19.15,20.41c7.28.31,14.27.26,21.07,0v-1.84a26.21,26.21,0,0,0-.4-3.75c-.26-1.25-.52-2.49-.75-3.7a17.63,17.63,0,0,1-.5-3.61,15.83,15.83,0,0,1,.1-3.64,31.72,31.72,0,0,1,.52-3.74,27.86,27.86,0,0,1,.82-3.92,38.71,38.71,0,0,1,1.15-4.22,31.3,31.3,0,0,1,1.76-4.67l1.61-.55a22.26,22.26,0,0,1,4.15,3.15,33.57,33.57,0,0,1,3.07,3.76,37.67,37.67,0,0,1,2.3,4.12A42.2,42.2,0,0,1,797.1,319a25.44,25.44,0,0,1,.69,4.59,28.35,28.35,0,0,1-.37,4.6c-.34,1.51-.69,3-1.06,4.49-.36,1.23-.67,2.44-1,3.67a217.15,217.15,0,0,0,67-16.46l-.69-1.71-1-2.16-1.06-2.1a37.14,37.14,0,0,0-5.56-7.46c-.55-.57-1.06-1.14-1.53-1.72a21.72,21.72,0,0,1-1.41-1.76c-.48-.59-.92-1.19-1.34-1.82s-.85-1.25-1.25-1.9c-1.64-2.61-3.31-5.26-5-8.19s-3.59-5.95-5.48-9.75l.6-1.12a168.4,168.4,0,0,1-26.27,12.57C790.6,300.89,766.4,303.71,743.81,299.33Z"/><path class="cls-5" d="M988.52,118.54v-.83h-.44q-11.73,7.1-23.19,14.76-3.61,2.4-7.22,4.85a50.58,50.58,0,0,1-7.8,2.4,62.78,62.78,0,0,1-11.67,1.43,95.25,95.25,0,0,1-11.82-.43c-4-.4-7.89-.95-11.87-1.7a45.39,45.39,0,0,0,11.57,3.8,52.58,52.58,0,0,0,12.26,1.06,42.1,42.1,0,0,0,12.14-2.1c.55-.16,1-.34,1.53-.52q-25,17.28-48.83,36.25l-4.83,3.87c-.55.25-1.1.46-1.67.66l-1.53.57-1.73.61c-.56.16-1.14.26-1.69.4s-1.12.26-1.69.35a51,51,0,0,1-6.86.82,66.76,66.76,0,0,1-6.93.09,119.64,119.64,0,0,1-13.9-1.26q-6.93-1-13.9-2.51a67,67,0,0,0,13.5,4.6,71.73,71.73,0,0,0,14.22,1.9c1.2,0,2.39.07,3.6,0s2.43-.11,3.62-.26a44.29,44.29,0,0,0,7.13-1.31,40.33,40.33,0,0,0,4-1.35c-13.93,11.36-27.54,23.13-40.7,35.39-.64.25-1.31.46-2,.65a52.09,52.09,0,0,1-6.54,1.39c-4.43.69-8.89,1.08-13.4,1.34s-9,.44-13.55.58-9,.24-13.64.46a94.36,94.36,0,0,0,13.61,1.65,113.46,113.46,0,0,0,13.8,0,76.1,76.1,0,0,0,13.67-2,37.64,37.64,0,0,0,5.68-1.84c-1.91,1.81-3.84,3.63-5.74,5.47C827.4,245.56,809.76,264,793.28,283.4l.2.19q15-15.7,30.46-31a34.31,34.31,0,0,0-1.54,3.24,45.48,45.48,0,0,0-3.06,14.57,65.91,65.91,0,0,0,.95,14.78,64,64,0,0,0,4,14.15c-.84-4.83-1.49-9.63-1.93-14.43-.19-2.4-.34-4.79-.41-7.19s-.08-4.78.07-7.15a56.41,56.41,0,0,1,.75-7.1,47.9,47.9,0,0,1,1.54-6.91,40.14,40.14,0,0,1,2.69-6.59c.22-.4.45-.78.66-1.17q9.76-9.62,19.77-19,11.89-11.23,24.16-22.18a31.65,31.65,0,0,0-2.34,6.33,58.64,58.64,0,0,0-1.54,15.51c.08,2.61.17,5.2.46,7.76s.62,5.11,1.09,7.66a93,93,0,0,0,3.83,15c-.63-5.12-1.24-10.18-1.73-15.25-.21-2.59-.44-5.14-.61-7.67s-.23-5-.31-7.57,0-5.06.12-7.55c0-1.26.13-2.52.29-3.76s.31-2.48.54-3.72a36.66,36.66,0,0,1,2-7.21,19,19,0,0,1,.83-1.85c10-8.89,20.06-17.61,30.41-26.06q8.91-7.29,18.11-14.38a25.88,25.88,0,0,0-2.42,4.6,45.79,45.79,0,0,0-3,13.11,73.18,73.18,0,0,0,.16,13.32,66.88,66.88,0,0,0,2.49,13c-.18-4.41-.32-8.8-.36-13.14s.07-8.67.44-13a62.19,62.19,0,0,1,2.24-12.62A29.29,29.29,0,0,1,926,162.3q19.44-14.9,39.75-28.69Q977,125.91,988.52,118.54Z"/><path class="cls-6" d="M792.56,140.66c-10.83-22.26-29.32-41.48-51.5-50.24-16.23-6.37-34.74-7.3-52.52-3.88a88,88,0,0,1,4.16,14.33c.27,1.38.65,2.74,1,4.14s.66,2.79,1,4.2a27.46,27.46,0,0,1,.44,4.24,26.26,26.26,0,0,1-.41,4.25,40,40,0,0,1-1.1,4.17,37.85,37.85,0,0,1-1.7,4.06,31.48,31.48,0,0,1-2.36,3.89c-.51.63-1,1.24-1.54,1.84l-.82.91c-.33.29-.6.58-.94.85l-1.53-.24c-.25-.38-.42-.75-.63-1.12l-.52-1.07c-.34-.72-.61-1.43-.89-2.12a36.29,36.29,0,0,1-1.38-4c-.4-1.29-.73-2.59-1-3.91a35.4,35.4,0,0,1-.64-3.82,18.86,18.86,0,0,1-.23-3.75,20.33,20.33,0,0,1,.35-3.74l.62-3.81a33,33,0,0,0,.35-3.83c.12-4.43.07-9-.12-13.62a111.53,111.53,0,0,0-21.94,8.3h0a96.55,96.55,0,0,0-10.28,6h0c-.71.48-1.41,1-2.1,1.44l-.86.6c-.64.48-1.29.94-1.92,1.43-.35.26-.7.52-1,.79-.63.54-1.26,1-1.87,1.54h0a126.83,126.83,0,0,0-19.74,20.24c.29.09.58.17.87.28l4,1.53,3.93,2,3.74,2.28,3.57,2.62c1.12,1,2.36,1.73,3.51,2.79s2.31,2,3.45,3.07a29.74,29.74,0,0,1,2.93,3.49,27.14,27.14,0,0,1,1.91,4.22,42.26,42.26,0,0,1,1.23,4.44,37.29,37.29,0,0,1,.44,4.6,32.15,32.15,0,0,1-.49,4.69,24.34,24.34,0,0,1-.7,2.35l-.45,1.15c-.18.39-.34.76-.55,1.14l-1.53.27c-.37-.27-.66-.54-1-.8l-.88-.8c-.53-.5-1-1-1.53-1.53a39.4,39.4,0,0,1-2.87-2.91,31.58,31.58,0,0,1-2.54-2.76,28.45,28.45,0,0,1-2.32-2.7,15.47,15.47,0,0,1-2-2.77,17.52,17.52,0,0,1-1.66-3.07c-.47-1-.92-2.11-1.53-3.19a34.69,34.69,0,0,0-1.95-3.06l-2.25-2.82-2.5-2.66L621,138l-3.08-2.13a19.55,19.55,0,0,0-1.53-1.23c-16.56,23.28-27,52.48-27.59,80.41l3.06-1.54,4.72-1.88,4.88-1.53,5-1.11c1.7-.23,3.4-.64,5.12-.89s3.45-.47,5.21-.69a40.16,40.16,0,0,1,5.26.1,36.49,36.49,0,0,1,5.15,1.16,48.1,48.1,0,0,1,4.87,2.07,51.57,51.57,0,0,1,4.6,2.83,44,44,0,0,1,3.95,3.65,25.78,25.78,0,0,1,3.07,4.6l-.72,1.3a35.57,35.57,0,0,1-5.26.34c-1.69,0-3.2-.11-4.75,0s-3,0-4.46,0a42.59,42.59,0,0,1-4.26-.12,25.32,25.32,0,0,1-4.16-.37,23.89,23.89,0,0,1-4.1-.77c-1.38-.26-2.79-.67-4.2-.85s-2.85-.34-4.29-.43h-4.33l-4.37.3-4.36.55-4.39.85-1.07.26c0,.81.14,1.62.14,2.44,1.78,23.95,10.22,44.84,18.64,65.61A88.23,88.23,0,0,1,614.6,285c1.16-.87,2.25-1.85,3.4-2.77s2.3-1.87,3.46-2.78a28.93,28.93,0,0,1,3.76-2.31,25.38,25.38,0,0,1,4.14-1.53,42.78,42.78,0,0,1,4.37-.88c1.52-.16,3.06-.25,4.59-.26a35.47,35.47,0,0,1,4.6.45c.84.17,1.58.33,2.38.56l1.18.37c.41.17.81.29,1.21.48l.38,1.44c-.24.38-.5.7-.76,1l-.79.93A15.66,15.66,0,0,1,645,281.5a35.35,35.35,0,0,1-3.17,3.07c-1.06.95-2.12,1.77-3.19,2.6s-2.15,1.58-3.25,2.27a21.19,21.19,0,0,1-3.36,1.87,22.2,22.2,0,0,1-3.61,1.38l-3.77,1.17c-1.23.44-2.47.9-3.67,1.44-3.17,1.47-6.37,3.08-9.44,4.78q1,2.42,1.9,4.84c8.63,22.39,15.57,47.73,12.08,73.88-.35,2.68,2.33,3.72,3.86,1.53,11.11-15.77,26.1-27.46,41.77-36.66l-1.18-3a19.67,19.67,0,0,1-1-3.25,18.25,18.25,0,0,1-.4-3.38,34.24,34.24,0,0,1,0-3.51,40.05,40.05,0,0,1,1.08-7.55c.15-.66.32-1.35.55-2.06l.34-1.07c.15-.37.27-.72.44-1.1l1.41-.52c.37.18.69.38,1,.58l.94.64a19.31,19.31,0,0,1,1.76,1.37,27.14,27.14,0,0,1,2.91,3.06,30.13,30.13,0,0,1,2.32,3.3,36.19,36.19,0,0,1,1.77,3.52,20.87,20.87,0,0,1,1.12,3.71,12.19,12.19,0,0,1,.25,2c1.32-.68,2.65-1.33,4-2,18.94-9.27,38.62-17.21,56.5-29.55a58.09,58.09,0,0,0-3.9-4.4,36.07,36.07,0,0,0-7-5.26,54.25,54.25,0,0,1-6.86-5c-2.16-1.87-4.43-3.77-6.76-5.88s-4.82-4.26-7.5-7l.32-1.54a24.34,24.34,0,0,1,11.16-1.28,33.08,33.08,0,0,1,10.73,2.95,26.8,26.8,0,0,1,8.8,6.64,86,86,0,0,1,6.5,8.91,59.41,59.41,0,0,1,3.17,5.39q3.44-2.79,6.75-5.85c14.08-13.09,25.09-30.41,32.47-49.27a72,72,0,0,0-7.37-3.21,66.28,66.28,0,0,0-11.34-2.93A79.2,79.2,0,0,1,762.75,234c-3.82-1.32-7.62-2.79-11.48-4.5a64.26,64.26,0,0,1-11.53-6.47l.23-1.53A53.21,53.21,0,0,1,753.08,219a67.34,67.34,0,0,1,13,.36,44,44,0,0,1,12.66,3.54c4.06,1.77,8,4,11.87,6.13,2,1.13,4,2.37,5.93,3.68,6.31-20.18,8.46-41.48,5.68-60.87h0c-.1-.83-.23-1.58-.36-2.36-.07-.44-.14-.87-.22-1.3-.14-.82-.29-1.57-.44-2.35a4.53,4.53,0,0,1-.22-1q-.27-1.24-.57-2.49v-.07a92.3,92.3,0,0,0-3.18-10.56c-.25.1-.52.19-.77.32a42.16,42.16,0,0,0-7.22,4.24,36.35,36.35,0,0,1-7.48,3.94,68.22,68.22,0,0,1-8.63,2.76,39.29,39.29,0,0,1-10.07,1.29l-.84-1.23a33.17,33.17,0,0,1,5.13-8.92,38.74,38.74,0,0,1,7-6.88,25.87,25.87,0,0,1,8.8-4.46C786.22,141.88,789.39,141.29,792.56,140.66ZM644.82,302.79a7.86,7.86,0,0,1,1.83,6.93,11.92,11.92,0,0,1-7.87,9.75c-3.43,1-9.09-.78-10.31-4.52-1.34-4.17,3.26-9.29,6.33-11.47S642.16,300.42,644.82,302.79Zm46.9-107.2A16.94,16.94,0,0,1,680,207.5c-20.4,4.84-16.08-23.85-14.27-33.35a23.08,23.08,0,0,1,4.6-11.11,12,12,0,0,1,11.65-3.94,13.71,13.71,0,0,1,8.74,8,32.66,32.66,0,0,1,2,11.24c.37,5.82.71,11.77-1,17.24ZM727.8,235.8c6.79,2.72,13.81,8.78,16.37,14.23s.33,9.89-5.25,9.89c-7,.08-21.91-9.2-25.48-16.25a6.88,6.88,0,0,1-.38-6.33C714.93,233.77,721,233.07,727.8,235.8Z"/><path class="cls-7" d="M667.09,291.31c3.87-7.79,7.79-15.59,11.53-23.45s7.49-15.71,11.11-23.63,7.25-15.87,10.73-23.84,6.82-16,10-24.09c1.64-4,3.25-8.1,4.7-12.17s3-8.16,4.39-12.26c2.8-8.24,5.42-16.53,7.49-25a135.65,135.65,0,0,0,4.22-25.71v4.91a14.64,14.64,0,0,1-.08,1.62l-.31,3.27c-.1,1.09-.18,2.17-.36,3.25-.32,2.16-.57,4.33-1,6.48s-.79,4.29-1.25,6.44c-1.83,8.53-4.3,16.93-6.89,25.27s-5.66,16.54-8.72,24.69-6.47,16.23-9.94,24.24q-10.49,24-22.31,47.33-6,11.65-12.13,23.17c-2.1,3.79-4.2,7.64-6.33,11.45s-4.29,7.59-6.51,11.34C659.44,306.9,663.23,299.1,667.09,291.31Z"/><path class="cls-8" d="M624.27,341.66a118.13,118.13,0,0,1,1.25,37c-.35,2.68,2.33,3.72,3.87,1.53,11.11-15.77,26.1-27.47,41.76-36.66l-1.18-3a19.35,19.35,0,0,1-1-3.25,17.24,17.24,0,0,1-.4-3.37,29.36,29.36,0,0,1,0-3.51,30,30,0,0,1,.34-3.66,32.11,32.11,0,0,1,.73-3.89c.16-.66.32-1.35.55-2.06l.34-1.07c.15-.37.28-.72.45-1.1l1.41-.53c.36.19.69.39,1,.59l.93.64a21.3,21.3,0,0,1,1.77,1.36,27.94,27.94,0,0,1,5.22,6.37,35.17,35.17,0,0,1,1.78,3.52,21.73,21.73,0,0,1,1.12,3.71,12.16,12.16,0,0,1,.24,2c1.32-.68,2.66-1.34,4-2,18.95-9.27,38.63-17.21,56.5-29.55a58,58,0,0,0-3.89-4.4,36.37,36.37,0,0,0-7-5.26,54.35,54.35,0,0,1-6.87-5c-2.16-1.87-4.43-3.77-6.76-5.88s-4.81-4.27-7.49-7.06l.32-1.53a24.48,24.48,0,0,1,11.16-1.29,33.42,33.42,0,0,1,10.73,3A26.8,26.8,0,0,1,744,284a85.77,85.77,0,0,1,6.49,8.9q1.72,2.63,3.18,5.4,3.44-2.79,6.74-5.86c14.09-13.09,25.09-30.4,32.48-49.26a74,74,0,0,0-7.37-3.22A67.3,67.3,0,0,0,774.18,237a80.38,80.38,0,0,1-11.41-3.07c-3.82-1.32-7.62-2.79-11.48-4.51a71.2,71.2,0,0,1-9.52-5.08q-3.51,7.62-7.44,15A29.83,29.83,0,0,1,744.17,250c2.56,5.46.33,9.89-5.25,9.89-3.36,0-8.53-2.07-13.38-5.06C701.76,293.86,667,328.82,624.27,341.66Z"/><path class="cls-8" d="M792.55,140.84A108.36,108.36,0,0,0,759.76,101a166.74,166.74,0,0,1,3.3,37.69c-.74,28.25-8.13,55.95-19.56,81.9a60.89,60.89,0,0,1,9.58-1.54,67.34,67.34,0,0,1,13,.36,44,44,0,0,1,12.66,3.54c4.06,1.77,8,4,11.87,6.13,2,1.13,4,2.37,5.93,3.68,6.31-20.18,8.46-41.48,5.68-60.87h0c-.1-.83-.23-1.58-.36-2.36-.07-.44-.14-.87-.22-1.3-.14-.82-.29-1.57-.44-2.35a4.53,4.53,0,0,1-.22-1q-.27-1.24-.57-2.49v-.07a92.3,92.3,0,0,0-3.18-10.56c-.25.1-.52.19-.77.32a42.16,42.16,0,0,0-7.22,4.24,36.35,36.35,0,0,1-7.48,3.94,68.22,68.22,0,0,1-8.63,2.76,39.29,39.29,0,0,1-10.07,1.29l-.84-1.23a33.17,33.17,0,0,1,5.13-8.92,38.74,38.74,0,0,1,7-6.88,25.87,25.87,0,0,1,8.8-4.46A66.9,66.9,0,0,1,792.55,140.84Z"/><path class="cls-1" d="M852.29,820.19c15.87,10.15,2.49,43.38-1.73,52.82l.37.22c6.24,4,12.24,8.35,18.08,12.95.53-14,3.44-62.87,16.27-49.29s-8,42.3-14.53,50.58c7,5.55,13.7,11.35,20.32,17.1,1.32-13.23,7.37-63.3,19.45-48.65s-11.31,42.48-18,49.91l1,.89c7.25,6.31,14.61,12.72,22.27,18.85-.47-14.21-1.07-62.93,12.73-50.2s-5.06,43-10.93,51.61c5.61,4.41,11.37,8.65,17.32,12.49.55.32,1,.62,1.53.92.34-13.35,2.56-63.71,15.8-49.92,13,13.63-7.88,42.83-14.18,50.95a125,125,0,0,0,46.86,17.36c18.91,2.58,36-.79,49.57-9.77a1,1,0,0,1,1.39.29h0a1,1,0,0,1-.3,1.4c-13.93,9.24-31.56,12.72-50.95,10.08-16.81-2.3-34.87-9.24-50.82-19.57-2.39-1.55-4.77-3.17-7.1-4.83-2.14,10.75-10.36,44.5-28.87,43.68-19.21-.84,17.53-35.94,27.2-44.87-8-5.81-15.74-12.16-23.23-18.58-.25,11.2-2.5,45.4-20.74,47.84-19.21,2.56,11.45-39.23,19.11-49.24-2.68-2.34-5.33-4.62-8-6.94l-7.8-6.77c-2.11,10.08-10.89,44.86-29.7,43.71-19.5-1.18,19.37-36.79,28.42-44.82-6.7-5.75-13.55-11.43-20.65-16.73-1.18,10.8-6.38,45.3-24.94,46.13-19.34.84,14.81-37.92,23.36-47.3q-5.42-4.05-11-7.66a124.21,124.21,0,0,0-11.06-6.3c.76,11.19,1.57,45.46-16.4,49.5-18.76,4.23,7.51-39.33,14.49-50.45a128.4,128.4,0,0,0-16.65-6.76c-1.27,11-6.77,45.11-25.16,45.81-19,.72,13.5-36.13,23-46.5a106.27,106.27,0,0,0-22.75-4.45c-.06,10.56-1.61,45.95-20.14,48.67-18.79,2.74,9.78-37.66,18-48.82a79.91,79.91,0,0,0-14.83.52c-1.35,9.37-8,45.94-27,46s15-35.77,24.76-45.69a67.3,67.3,0,0,0-10.3,2.52c-7,8-31.38,33.52-47.2,23.28S750,860.46,764,857.39A70,70,0,0,1,778.57,854C763.13,849.26,721,835.05,737,826.39c16.7-9.08,39.59,19.28,45.57,27.25a87.7,87.7,0,0,1,17.37.46c-12-9.64-47.41-39.22-29.12-41.48,18.76-2.3,29.64,32.11,32.35,41.92a118,118,0,0,1,24.22,6.62c-8.72-12.26-35.25-51-16.86-48.17,18.73,2.94,19.73,39.21,19.63,49.26a136.78,136.78,0,0,1,18.58,9.44C845.7,857.7,836.43,810.05,852.29,820.19Z"/><path class="cls-2" d="M830,854.25c-3-.72-5.92-1.56-8.89-2.25-10.75-16-25.51-41.35-10.58-39C825.7,815.41,829.24,839.8,830,854.25Z"/><path class="cls-2" d="M737.08,826.39c13.53-7.36,31.16,9.9,40.52,20.93A128.36,128.36,0,0,0,763,848.73C745.46,842.33,725.23,832.82,737.08,826.39Z"/><path class="cls-2" d="M770.83,812.65c15.86-1.94,26.08,22.35,30.51,35.84-3.14-.38-6.2-.69-9.27-.89C777.31,835.06,755.67,814.49,770.83,812.65Z"/><path class="cls-2" d="M1029,952.24c-.81,1.15-1.65,2.3-2.51,3.43-12.17,5.4-26.41,7.16-41.74,5.08l-1.67-.26c-.31-.74-.61-1.46-.93-2.2,1,.17,1.93.33,2.88.45C1001.41,961,1016.46,958.72,1029,952.24Z"/><path class="cls-2" d="M953.35,915.93c-1.87-1.87-3.79-3.66-5.75-5.41q-3.83-3.37-7.83-6.44c2.28-11.91,6.11-20.26,12.52-13.56C958.36,896.8,957.07,906.49,953.35,915.93Z"/><path class="cls-2" d="M854.91,862.33c-2.87-1.07-5.74-2.09-8.63-3.07-3.32-19-6.42-47.16,6.14-39.14C864.36,827.77,859.73,848.49,854.91,862.33Z"/><path class="cls-2" d="M881.06,872.6l-4.44-1.82-6.33-2.55c1.73-18.7,5.79-41.28,15.11-31.36C893.61,845.64,887.94,860.72,881.06,872.6Z"/><path class="cls-2" d="M908.08,884.68c-4.33-2.18-8.73-4.23-13.18-6.23,3.16-16.27,8.28-31.59,15.74-22.53C916.91,863.53,913.63,874.67,908.08,884.68Z"/><path class="cls-2" d="M932,898.43c-4.83-3.25-9.81-6.26-14.93-9.08,1.56-11.85,4.87-20.21,11.62-14C934.58,880.86,934.46,889.58,932,898.43Z"/><path class="cls-9" d="M279.58,169.57a.72.72,0,0,1,.9-.48l28.47,4C287.6,145,255.46,120.29,207.64,104.72c-11.51,35.36-13.95,66.75-10.33,94.34l16-22.67a.69.69,0,0,1,.94-.26.7.7,0,0,1,.26,1l-15.33,33.46a176.41,176.41,0,0,0,16.34,46.65l15-33.46a.69.69,0,1,1,1.3.46L220.75,266.7a208.77,208.77,0,0,0,24.6,33.55l8.14-33a.69.69,0,0,1,.75-.57.7.7,0,0,1,.61.77L252.63,308a257.5,257.5,0,0,0,27.11,23.8l6-27.37a.7.7,0,0,1,.77-.61.68.68,0,0,1,.61.76L286.79,337c29.34,21,54.38,30.65,54.38,30.65a264.68,264.68,0,0,0,7-52.57l-17-13.92A.71.71,0,0,1,332,300l16.4,8.89a275.73,275.73,0,0,0-1.46-34.24L319.12,255.4h0a.69.69,0,0,1-.26-.94.7.7,0,0,1,.95-.26l26.05,12a228.51,228.51,0,0,0-7.09-32.93l-32.85-16.68h0a.69.69,0,0,1-.39-.9.7.7,0,0,1,.9-.39L335.85,224a185.41,185.41,0,0,0-21.07-42.52l-34.72-11A.72.72,0,0,1,279.58,169.57Z"/><path class="cls-10" d="M280.11,170.47a.69.69,0,0,1-.52-.83.69.69,0,0,1,.83-.52l28.47,4C287.54,145,255.4,120.32,207.58,104.75c-.69,2.11-1.33,4.21-2,6.31,40.19,21.61,71.45,59.15,89.23,101.47,18.66,44.45,23.47,93.68,19.39,141.85a228.09,228.09,0,0,0,26.93,13.29,264.68,264.68,0,0,0,7-52.57l-17-13.92A.71.71,0,0,1,332,300l16.4,8.89a275.73,275.73,0,0,0-1.46-34.24L319.12,255.4h0a.69.69,0,0,1-.26-.94.7.7,0,0,1,.95-.26l26.05,12a228.51,228.51,0,0,0-7.09-32.93l-32.85-16.68h0a.69.69,0,0,1-.39-.9.7.7,0,0,1,.9-.39L335.85,224a185.41,185.41,0,0,0-21.07-42.52Z"/><path class="cls-11" d="M312,307.57q-5.79-12.74-11.72-25.42L288.4,256.76c-4-8.43-7.94-16.87-12-25.29s-8.11-16.8-12.26-25.15Q261,200,257.87,193.8c-2.13-4.14-4.23-8.31-6.39-12.45-4.26-8.26-8.75-16.47-13.46-24.52l-3.57-6c-1.26-2-2.44-4-3.76-5.9s-2.57-3.89-4-5.72l-1-1.41c-.34-.47-.69-.93-1.08-1.38l-2.28-2.66a89.09,89.09,0,0,1,8.9,10.86c1.35,1.9,2.64,3.87,4,5.78l3.78,5.92c4.91,7.95,9.51,16.11,14,24.29,9,16.4,17.27,33.12,25.38,50s15.89,33.82,23.44,50.91c3.77,8.53,7.58,17.06,11.18,25.67s7.27,17.2,10.73,25.87Z"/><path class="cls-11" d="M300.11,316.77a2.43,2.43,0,0,0-3.26-1.06h0a2.42,2.42,0,1,0,3.26,1.06Z"/><path class="cls-11" d="M328.58,281a2.42,2.42,0,0,0-3.26-1.07h0a2.42,2.42,0,1,0,3.26,1.07Z"/><path class="cls-11" d="M267.22,254.85a2.43,2.43,0,1,0-3.26-1.07,2.43,2.43,0,0,0,3.26,1.07Z"/><path class="cls-11" d="M297.42,197.41a2.42,2.42,0,0,0-3.26-1.07h0a2.43,2.43,0,1,0,3.26,1.07Z"/><path class="cls-11" d="M248.11,218.48a2.43,2.43,0,0,0-3.27-1.06h0a2.43,2.43,0,1,0,3.27,1.06Z"/><path class="cls-11" d="M255.94,159.2a2.43,2.43,0,1,0-1.06,3.27A2.43,2.43,0,0,0,255.94,159.2Z"/><path class="cls-11" d="M213.53,141.36a2.42,2.42,0,1,0-1.06,3.25A2.42,2.42,0,0,0,213.53,141.36Z"/><path class="cls-3" d="M441.29,127.89A274.93,274.93,0,0,0,395,60.45c-37,27.88-59.74,56.85-72.48,85.44l1.82.29,3.34.78,3.32,1,3.26,1.21c1.08.46,2.19.87,3.31,1.23s2.24.82,3.36,1.27a18.35,18.35,0,0,1,3.06,1.78,16.61,16.61,0,0,1,2.52,2.51,26.6,26.6,0,0,1,2,3.07,26.27,26.27,0,0,1,1.44,3.46,23,23,0,0,1,.78,3.85,18.57,18.57,0,0,1,0,2.11v1.09c0,.38-.08.75-.15,1.15l-1.27,1h-1.15l-1.06-.13c-.71-.07-1.33-.2-1.95-.3a27.19,27.19,0,0,1-3.46-.82,20.72,20.72,0,0,1-3.07-1,19.15,19.15,0,0,1-2.71-1.18,10.79,10.79,0,0,1-2.35-1.53,11.65,11.65,0,0,1-2-2l-1.85-2.27a23.89,23.89,0,0,0-2.06-2.09l-2.25-1.83-2.34-1.81L320.65,155l-1.53-1a156.23,156.23,0,0,0-7.94,82.13l1.25-1.54,2.79-2.89,3-2.75c1.07-.86,2.07-1.81,3.07-2.74s2-1.87,3.06-2.78a24.37,24.37,0,0,1,3.45-2.26,22.27,22.27,0,0,1,3.86-1.4A26.28,26.28,0,0,1,340,219a30.52,30.52,0,0,1,4.35.79,21.56,21.56,0,0,1,4.42,1.89l.33,1.53a27,27,0,0,1-2.8,3.67,36.23,36.23,0,0,1-2.76,2.92,45.6,45.6,0,0,1-5.5,4.6,18.87,18.87,0,0,1-6,2.87l-3.33.95c-1.1.38-2.19.79-3.23,1.27l-3.07,1.53-3.06,1.69-3.07,1.78-3,1.88a224.9,224.9,0,0,0,20.26,54.34c.5-1,.91-2,1.4-3.16s1-2.36,1.53-3.54a21,21,0,0,1,2-3.27,18,18,0,0,1,2.69-2.69,25.48,25.48,0,0,1,6.79-4,29.58,29.58,0,0,1,4-1.19,20.83,20.83,0,0,1,4.6-.39l1.08,1.2a24.91,24.91,0,0,1-.53,4.47,33.71,33.71,0,0,1-1,3.84,29.55,29.55,0,0,1-1.24,3.41,25.09,25.09,0,0,1-1.53,3.07,14.07,14.07,0,0,1-1.83,2.76,15.69,15.69,0,0,1-2.34,2.34c-.86.74-1.72,1.43-2.64,2.18a25.13,25.13,0,0,0-2.45,2.38l-2.24,2.54-1.73,2a314,314,0,0,0,33.09,46.18c.33.37.67.74,1,1.08a18.7,18.7,0,0,0,26.46-.18q7.21-7.35,13.51-14.68L413,344c-.92-.76-1.88-1.49-2.86-2.16L407.05,340a19,19,0,0,1-2.84-2,16.84,16.84,0,0,1-2.45-2.4,32,32,0,0,1-2.27-2.78,34.73,34.73,0,0,1-2.19-3.06,37.22,37.22,0,0,1-2.17-3.51,30.5,30.5,0,0,1-2.14-4.23l.66-1.54a21.07,21.07,0,0,1,4.86-.85,29.44,29.44,0,0,1,4.6.26,32.28,32.28,0,0,1,4.34,1.05,39,39,0,0,1,4,1.74,24.33,24.33,0,0,1,3.59,2.43,27.1,27.1,0,0,1,2.94,3.21c.83,1.19,1.83,2.53,2.44,3.61s1.26,2.1,1.92,3.07A204.78,204.78,0,0,0,454,278l-1.63-.61-2.13-.71-2.13-.61a36.38,36.38,0,0,0-8.77-.95h-2.16c-1.42-.07-2.83-.2-4.24-.4-.71-.09-1.41-.2-2.13-.35-2.79-.54-5.78-1.09-8.92-1.76s-6.44-1.34-10.29-2.46l-.53-1.53a24.56,24.56,0,0,1,9-7.28,32.72,32.72,0,0,1,11-3.07c.95-.07,1.9-.16,2.86-.15a27.11,27.11,0,0,1,2.86.17,24.42,24.42,0,0,1,2.82.48c.92.22,1.84.5,2.76.78a87.43,87.43,0,0,1,10.39,4.59l2.47,1.31,2.3,1.36a175,175,0,0,0,5.2-67.44l-2.72.11-3.74.4-3.66.61-3.59.81a23.41,23.41,0,0,0-3.43,1.24c-1.1.56-2.18,1.12-3.25,1.63a16.94,16.94,0,0,1-3.19,1.44,15.41,15.41,0,0,1-3.32,1,28.71,28.71,0,0,1-3.56.7,30.35,30.35,0,0,1-3.8.6,38.89,38.89,0,0,1-4.17.5,35.67,35.67,0,0,1-4.84.33l-1.09-1.18a20.41,20.41,0,0,1,1.39-5,31.48,31.48,0,0,1,2.49-4.23,34.14,34.14,0,0,1,3.21-3.59,41.65,41.65,0,0,1,3.81-2.91,27.71,27.71,0,0,1,4.24-2.07,31.46,31.46,0,0,1,4.6-1c1.65-.11,3.19-.23,4.72-.23h4.6l4.6.14,4.5.52,4.42.93.47.14a214.59,214.59,0,0,0-12.26-43.85l-.58-.21-2.32-.82c-.81-.26-1.56-.46-2.34-.67a24.1,24.1,0,0,0-2.38-.54c-1.62-.27-3.2-.58-4.81-.75-.83-.11-1.58-.26-2.36-.38s-1.55-.26-2.31-.45a11.38,11.38,0,0,1-1.15-.29c-.39-.08-.78-.17-1.15-.27-.74-.2-1.52-.45-2.27-.71-3-.93-6.12-2.07-9.34-3.25a98.33,98.33,0,0,1-10.28-4.44l-.2-1.54a22.85,22.85,0,0,1,2.53-1.82c.43-.29.87-.54,1.32-.8s.89-.44,1.35-.67c.9-.41,1.82-.81,2.75-1.18a13,13,0,0,1,1.41-.48c.46-.13.94-.29,1.41-.41a38.38,38.38,0,0,1,11.68-1.27A30.3,30.3,0,0,1,441.29,127.89Z"/><path class="cls-4" d="M457.6,266.77a175,175,0,0,0,5.2-67.44l-2.72.11-3.74.4-3.66.61-3.59.81a23.41,23.41,0,0,0-3.43,1.24c-1.1.56-2.18,1.12-3.25,1.63a16.94,16.94,0,0,1-3.19,1.44,15.41,15.41,0,0,1-3.32,1,28.71,28.71,0,0,1-3.56.7,30.35,30.35,0,0,1-3.8.6,38.89,38.89,0,0,1-4.17.5,35.67,35.67,0,0,1-4.84.33l-1.09-1.18a20.41,20.41,0,0,1,1.39-5,31.48,31.48,0,0,1,2.49-4.23,34.14,34.14,0,0,1,3.21-3.59,41.65,41.65,0,0,1,3.81-2.91,27.71,27.71,0,0,1,4.24-2.07,31.46,31.46,0,0,1,4.6-1c1.65-.11,3.19-.23,4.72-.23h4.6l4.6.14,4.5.52,4.42.93.47.14a214.59,214.59,0,0,0-12.26-43.85l-.58-.21-2.32-.82c-.81-.26-1.56-.46-2.34-.67a24.1,24.1,0,0,0-2.38-.54c-1.62-.27-3.2-.58-4.81-.75-.83-.11-1.58-.26-2.36-.38s-1.55-.26-2.31-.45a11.38,11.38,0,0,1-1.15-.29c-.39-.08-.78-.17-1.15-.27-.74-.2-1.52-.45-2.27-.71-3-.93-6.12-2.07-9.34-3.25a98.33,98.33,0,0,1-10.28-4.44l-.2-1.54a23.22,23.22,0,0,1,2.56-1.82c.43-.29.87-.54,1.32-.8s.89-.44,1.35-.67c.9-.41,1.82-.81,2.75-1.18a13.81,13.81,0,0,1,1.41-.48c.46-.13.94-.29,1.42-.41a38.28,38.28,0,0,1,11.67-1.27A30.11,30.11,0,0,1,441.15,128a274.75,274.75,0,0,0-46.29-67.44q-6.63,5-12.76,10.13A378.68,378.68,0,0,1,415,199.75c1.67,22.88,1.15,46.25-3.68,68.6a24.73,24.73,0,0,1,8.77-6.91,32.59,32.59,0,0,1,11-3.07c.95-.07,1.9-.17,2.85-.15a27.06,27.06,0,0,1,5.69.64c.92.23,1.83.51,2.75.78a87.63,87.63,0,0,1,10.4,4.6l2.46,1.31Z"/><path class="cls-4" d="M363.5,347.36c3.51,4.43,6.72,8.36,9.65,11.74.32.38.66.74,1,1.09a18.72,18.72,0,0,0,26.47-.18q7.2-7.36,13.5-14.69l-1.23-1.11c-.91-.77-1.88-1.49-2.86-2.17L407,340.2a19.09,19.09,0,0,1-2.83-2,16.42,16.42,0,0,1-2.45-2.41,31.51,31.51,0,0,1-2.27-2.77,35,35,0,0,1-2.2-3.07,39.41,39.41,0,0,1-2.17-3.51,29.9,29.9,0,0,1-2.13-4.23l.66-1.53a20.57,20.57,0,0,1,4.86-.86,30.65,30.65,0,0,1,4.59.26,32.31,32.31,0,0,1,4.34,1.06,40.06,40.06,0,0,1,4.05,1.73,24.84,24.84,0,0,1,3.58,2.44,27.9,27.9,0,0,1,2.95,3.2c.83,1.2,1.82,2.53,2.43,3.62s1.26,2.1,1.92,3.06A204.52,204.52,0,0,0,454,278.14l-1.62-.61-2.13-.7-2.13-.62a36.49,36.49,0,0,0-8.77-.95h-2.16c-1.42-.07-2.84-.2-4.25-.4-.7-.09-1.41-.19-2.13-.35-2.79-.53-5.78-1.09-8.92-1.76s-6.44-1.33-10.28-2.45l-.4-1.15A158.84,158.84,0,0,1,403,295.48C394.63,315.74,381,334.44,363.5,347.36Z"/><path class="cls-5" d="M395.23,61.16l-.53-.56-.34.26q-2.49,12.77-4.6,25.59-.67,4-1.29,8.12a47.44,47.44,0,0,1-3.34,7,59.39,59.39,0,0,1-6.51,9,85.48,85.48,0,0,1-7.82,8q-4.21,3.73-8.81,7.15a44.32,44.32,0,0,0,9.9-5.59,50.41,50.41,0,0,0,8.58-7.8,39.62,39.62,0,0,0,6.36-9.78c.22-.45.42-.91.6-1.37q-4,28.49-6.13,57.15c-.14,2-.28,3.9-.4,5.85-.2.48-.4,1-.63,1.53l-.66,1.54-.75,1.53c-.24.49-.53.95-.79,1.42s-.54,1-.85,1.41a53.88,53.88,0,0,1-3.84,5.28,65.52,65.52,0,0,1-4.4,4.87,115.61,115.61,0,0,1-9.81,8.84c-3.51,2.78-7.07,5.45-10.73,8.05a63.47,63.47,0,0,0,11.88-6.44,68.21,68.21,0,0,0,10.47-8.64c.78-.8,1.57-1.63,2.31-2.5s1.49-1.75,2.15-2.67a39.28,39.28,0,0,0,3.67-5.79,31.64,31.64,0,0,0,1.61-3.62Q379,194.44,379,220q-.39.9-.84,1.8a49.05,49.05,0,0,1-3.24,5.44,125.63,125.63,0,0,1-7.66,10.16q-4.06,4.94-8.31,9.78c-2.82,3.23-5.65,6.45-8.44,9.76a91.94,91.94,0,0,0,9.9-8.38,112.05,112.05,0,0,0,8.84-9.52,70.67,70.67,0,0,0,7.42-10.73,34.24,34.24,0,0,0,2.38-5.14c.1,2.5.1,5,.1,7.52.57,24.11,2,48.2,4.89,72.13h.26c-.79-13.69-1.48-27.39-1.94-41.08.37,1,.78,2,1.25,3.06a43.35,43.35,0,0,0,8.17,11.5,64.06,64.06,0,0,0,10.87,8.84,60.14,60.14,0,0,0,12.42,6.29q-5.83-3.76-11.25-7.93c-1.8-1.42-3.55-2.91-5.26-4.33a56.36,56.36,0,0,1-4.92-4.6,53.74,53.74,0,0,1-4.45-5.08,44.94,44.94,0,0,1-3.78-5.56,39.61,39.61,0,0,1-2.84-6.13c-.14-.41-.26-.81-.38-1.21q-.46-13-.46-25.94-.12-15.53.14-31a29.81,29.81,0,0,0,2.88,5.69,55.73,55.73,0,0,0,9.75,11.1c1.85,1.53,3.71,3.14,5.68,4.59s4,2.89,6,4.19a86.37,86.37,0,0,0,12.84,6.94c-3.95-2.83-7.86-5.67-11.69-8.58-1.9-1.49-3.81-2.93-5.68-4.46s-3.69-3.07-5.45-4.6-3.53-3.23-5.17-5a24.55,24.55,0,0,1-2.42-2.62c-.7-.91-1.53-1.81-2.24-2.76a34.39,34.39,0,0,1-3.72-6,18.37,18.37,0,0,1-.77-1.76c.31-12.63.75-25.25,1.54-37.84.46-7.3,1-14.57,1.67-21.85a24.62,24.62,0,0,0,1.62,4.6,43.06,43.06,0,0,0,7.2,10.47,69.3,69.3,0,0,0,9.37,8.42A63.52,63.52,0,0,0,414,166.79c-3.22-2.71-6.3-5.41-9.35-8.18a118.62,118.62,0,0,1-8.72-8.65,60.45,60.45,0,0,1-7.33-9.67,27.2,27.2,0,0,1-3.07-7.66q2.13-23,5.63-46Q393,73.87,395.23,61.16Z"/><path class="cls-9" d="M890.3,377.8a.85.85,0,0,1,.25,1.18l-23,27.29c43.73-3.87,91-21.37,138.93-61.42-29.62-35.47-61-58.75-92.46-73.19l13.31,31.77a.87.87,0,0,1-1.54.82l-25.15-38.12a220.06,220.06,0,0,0-59.9-13.63L866,290.45a.86.86,0,0,1-1.35,1.06l-37.4-39.76a259.5,259.5,0,0,0-51.61,3.92l29.4,30.4h0a.86.86,0,1,1-1.12,1.3l-41.21-29.12a322.09,322.09,0,0,0-42.92,12.8l24.83,24.45a.86.86,0,0,1-1.07,1.33L709.64,275c-41.51,17-68.22,37-68.22,37s18.81,20.26,50.7,42.09L718,345.31a.88.88,0,0,1,.88.33.86.86,0,0,1-.19,1.2l-20.19,11.41a343.84,343.84,0,0,0,37,21.09l38.63-16.5a.87.87,0,0,1,.81,1.54l-29.8,19.49a283.44,283.44,0,0,0,39.37,14.29l39.31-23.64a.86.86,0,0,1,1.09.17.85.85,0,0,1-.08,1.21l-28.63,25.22A231.47,231.47,0,0,0,854.87,407l34.53-29.26A.86.86,0,0,1,890.3,377.8Z"/><path class="cls-10" d="M889.32,377.83a.86.86,0,0,1,1.23,1.21l-23,27.29c43.73-3.87,91-21.37,138.93-61.42q-2.65-3.17-5.34-6.24c-49.26,28-109.47,36.07-165.75,26.87-59.1-9.7-114.09-37.18-162.08-73.29A286.22,286.22,0,0,0,641.42,312s18.81,20.26,50.7,42.09L718,345.31a.88.88,0,0,1,.88.33.86.86,0,0,1-.19,1.2l-20.19,11.41a343.84,343.84,0,0,0,37,21.09l38.63-16.5a.87.87,0,0,1,.81,1.54l-29.8,19.49a283.44,283.44,0,0,0,39.37,14.29l39.31-23.64a.86.86,0,0,1,1.09.17.85.85,0,0,1-.08,1.21l-28.63,25.22A231.47,231.47,0,0,0,854.87,407Z"/><path class="cls-11" d="M724,320.68q17.26,2.31,34.52,4.47l34.52,4.28c11.57,1.41,23,2.8,34.56,4.08s23,2.58,34.58,3.72c5.76.6,11.53,1.14,17.3,1.67s11.56,1.08,17.32,1.53c11.56.92,23.13,1.69,34.72,2.06l8.68.2c2.89,0,5.79.14,8.69,0s5.79-.14,8.67-.45l2.16-.17a17.19,17.19,0,0,0,2.16-.23l4.31-.62A109.12,109.12,0,0,1,949,343.36c-2.9.19-5.81.23-8.71.35l-8.72.08c-11.62-.09-23.22-.64-34.82-1.33-23.18-1.4-46.29-3.71-69.36-6.3s-46.08-5.61-69.07-9c-11.43-1.69-23-3.33-34.42-5.2s-22.91-3.69-34.33-5.76Z"/><path class="cls-11" d="M725.46,299.43c.35-3.87-5.66-4.41-6-.55S725.11,303.31,725.46,299.43Z"/><path class="cls-11" d="M744.36,353.08c.35-3.88-5.66-4.41-6-.55S744,357,744.36,353.08Z"/><path class="cls-11" d="M815.09,309c.36-3.86-5.65-4.39-6-.53S814.74,312.91,815.09,309Z"/><path class="cls-11" d="M852.87,375.5c.34-3.86-5.65-4.4-6-.53S852.54,379.37,852.87,375.5Z"/><path class="cls-11" d="M863.27,309.69c.33-3.88-5.66-4.42-6-.55S862.93,313.57,863.27,309.69Z"/><path class="cls-11" d="M920.55,357.14c.35-3.88-5.66-4.41-6-.55S920.19,361,920.55,357.14Z"/><path class="cls-11" d="M967.28,324.26a3.06,3.06,0,0,0-6-.55C960.93,327.59,966.94,328.13,967.28,324.26Z"/><path class="cls-12" d="M602.17,215.16a356.08,356.08,0,0,0,7.66-46.8c.23-2.52.38-5,.49-7.38-.32-.3-.64-.61-1-.9a74,74,0,0,0-10.19-7.4c-1.78-1.11-3.48-2.27-5.15-3.45l-2.47-1.86c-.87-.61-1.61-1.29-2.41-1.94-3.22-2.63-6.43-5.34-9.71-8.24a132.17,132.17,0,0,1-10.17-9.48l.52-1.63a40.19,40.19,0,0,1,14.83.25,55.82,55.82,0,0,1,13.79,4.78,42.72,42.72,0,0,1,11.37,8.37c-6.79-60.76-55.94-74.38-84-53.89,0,0-12.59-43.53-62.55-35.26-13.42,2.24-24.26,10.57-32.81,22.57,2.62-.05,5.24,0,7.86.12,1.95.21,4,.12,5.93.21s4,.17,6,.3a47,47,0,0,1,5.89,1,42.08,42.08,0,0,1,5.62,2A47.41,47.41,0,0,1,467,79.29a57.2,57.2,0,0,1,5,3.48,54.47,54.47,0,0,1,4.58,4.41,35,35,0,0,1,3.85,5.2l-.76,1.53a41.23,41.23,0,0,1-6.28.4,56.28,56.28,0,0,1-5.81-.14c-1.9-.06-3.71-.31-5.52-.46s-3.58-.4-5.32-.72a33.73,33.73,0,0,1-5.15-1.1,35.21,35.21,0,0,1-5-1.67l-5-1.92c-1.69-.52-3.41-1.07-5.14-1.53q-6.27-1.5-12.74-2.58c-11.8,22.52-17.87,52.81-19.58,80.5q2.88-2,5.94-3.81c3.51-2.07,7-4.34,10.73-6.23a32.78,32.78,0,0,1,12.05-3.43,39.91,39.91,0,0,1,12.75.92,28,28,0,0,1,11.76,5.75l-.26,1.68c-4.05,1.87-7.61,3.27-11,4.6s-6.61,2.59-9.83,3.76a59.28,59.28,0,0,1-9.9,2.66A61.16,61.16,0,0,0,416,173.15c-4.14,1.52-8.26,3.28-12.38,5.2a220.56,220.56,0,0,0,1,24.52,294,294,0,0,0,7.92,42.34c.71-.72,1.47-1.44,2.24-2.15,1.24-1.09,2.41-2.3,3.65-3.43s2.48-2.27,3.77-3.39a33.12,33.12,0,0,1,4.2-2.82,31.52,31.52,0,0,1,4.69-1.85,47.3,47.3,0,0,1,5-1,44.61,44.61,0,0,1,5.17-.21,38.54,38.54,0,0,1,5.24.69,24.54,24.54,0,0,1,2.65.81l1.3.49c.45.2.88.37,1.32.61l.34,1.69c-.31.41-.62.75-.92,1.12l-.91,1c-.61.68-1.21,1.26-1.81,1.82a43.28,43.28,0,0,1-3.52,3.25,42.4,42.4,0,0,1-3.45,2.82,38,38,0,0,1-3.43,2.5,20.67,20.67,0,0,1-3.53,2.1,22.84,22.84,0,0,1-3.81,1.54c-1.31.49-2.69.85-4,1.42s-2.59,1.14-3.85,1.79c-2.28,1.29-4.52,2.63-6.74,4.16A301.51,301.51,0,0,0,435,306.29l1-1.31,2.86-3.06c1-1,2-2.09,3-3.07s2-2,3.06-3a24.43,24.43,0,0,1,3.55-2.42,21.35,21.35,0,0,1,4-1.44,31.59,31.59,0,0,1,4.32-.59,31.24,31.24,0,0,1,4.43.23,27,27,0,0,1,4.43,1.15,22.08,22.08,0,0,1,2.19,1.06l1.06.61c.37.25.71.46,1.06.74l.21,1.7c-.26.38-.52.69-.78,1l-.76.9c-.56.61-1.06,1.12-1.54,1.64-1,1.07-1.88,2-2.8,2.84a28.82,28.82,0,0,1-2.67,2.39,23.66,23.66,0,0,1-2.62,2,11.73,11.73,0,0,1-2.71,1.64,13.91,13.91,0,0,1-3,1.09c-1,.34-2.12.63-3.19.95a33,33,0,0,0-3.06,1.29l-2.92,1.65-2.85,1.83-.78.55c15.82,27.62,36.86,49.68,63.49,54.72,20.43,3.88,41.89-18.7,60.28-52.42l-.64-1.35-3-5.36-3.19-5.19-3.43-5c-1.25-1.53-2.55-3.07-3.87-4.6l-4.2-4.18A49.48,49.48,0,0,1,542,289.2a41.92,41.92,0,0,1-3.77-4.53c-1.26-1.51-2.38-3.18-3.63-4.76s-2.39-3.31-3.65-5-2.5-3.4-3.69-5.3a50.58,50.58,0,0,1-3.68-5.9l.86-1.54a40.42,40.42,0,0,1,7.18.91,62.51,62.51,0,0,1,6.7,2.21,48.79,48.79,0,0,1,6.24,3.18c2,1.26,3.88,2.61,5.73,4a56,56,0,0,1,5.06,4.8,59.11,59.11,0,0,1,4.09,5.61c1.17,2.07,2.39,4.06,3.38,6.13s2,4.12,3.06,6.13a97.72,97.72,0,0,1,4.91,11.49,432.92,432.92,0,0,0,28-77.34c-1.67-.63-3.35-1.22-5-1.79l-6.59-1.86a58.82,58.82,0,0,1-6.49-1.91,57.43,57.43,0,0,1-6.33-2.38c-2.11-.79-4.2-1.81-6.31-2.66s-4.22-1.9-6.38-2.85-4.34-2-6.53-3.16a58.59,58.59,0,0,1-6.71-3.74l.12-1.7a47.86,47.86,0,0,1,7.57-2.3,60.94,60.94,0,0,1,7.67-1,52.93,52.93,0,0,1,7.66,0c2.53.23,5.07.55,7.59,1a69.46,69.46,0,0,1,7.37,1.94q3.57,1.36,7,3.07c2.24,1.26,4.43,2.53,6.62,3.8Zm-115.4-73.4c-8.37,7.19-24-3.57-30.78-9a12.8,12.8,0,0,1-4.84-6.21,9.33,9.33,0,0,1,3.92-9.51,19.53,19.53,0,0,1,10.3-3.14,30.59,30.59,0,0,1,15.1,2.53,18.85,18.85,0,0,1,10,11.19A13.82,13.82,0,0,1,486.77,141.76Zm-5.18,176c4.5,4.41,10.45,19.8,1.24,23C474,343.88,470.9,327.35,471,321.81c.06-2.27.6-4.9,2.58-6.13,2.51-1.58,5.84,0,7.95,2.09Zm55.54-94.19c1.93,7.95-5,21.9-14.85,16.23-3.4-2-5.38-7.36-7.56-10.42-3-4.26-6.28-8.16-5.91-13.8a10.49,10.49,0,0,1,6.62-9.32c4.72-1.53,9.78,1.26,13.46,4.6a26.21,26.21,0,0,1,8.23,12.71Z"/><path class="cls-13" d="M472.21,330.43q-7.2,5.67-14.7,10.88c13,15.51,28.52,26.76,46.58,30.18,20.43,3.88,41.89-18.7,60.28-52.42l-.64-1.35-3-5.36-3.19-5.19-3.43-5c-1.25-1.53-2.55-3.07-3.87-4.6l-4.23-4.25a46.71,46.71,0,0,1-4.09-4.23,41.81,41.81,0,0,1-3.77-4.52c-1.26-1.51-2.38-3.19-3.63-4.76s-2.49-3.21-3.65-5c-.69-1-1.49-2-2.22-3.07a304.26,304.26,0,0,1-44.84,48.94c3.78,6.26,6.66,17.34-1,20.05C477.08,342.84,473.78,336.6,472.21,330.43Z"/><path class="cls-13" d="M568.08,218.72c-2.12-.86-4.25-1.79-6.38-2.85l-.4-.18a300.93,300.93,0,0,1-27,48.23c1.34.43,2.67.89,4,1.4a48.79,48.79,0,0,1,6.24,3.18c2,1.26,3.88,2.61,5.73,4a58.23,58.23,0,0,1,5,4.78,60.42,60.42,0,0,1,4.09,5.61c1.17,2.07,2.39,4.06,3.37,6.13s2,4.13,3.07,6.13a98.59,98.59,0,0,1,4.91,11.5,432.92,432.92,0,0,0,28-77.34c-1.67-.63-3.35-1.23-5-1.8l-6.59-1.85a61.12,61.12,0,0,1-6.49-1.92,57.37,57.37,0,0,1-6.33-2.37C572.25,220.59,570.19,219.58,568.08,218.72Z"/><path class="cls-13" d="M609.75,139.48c-2.92-26.2-13.7-43.59-27.33-53.31a201.81,201.81,0,0,1,1.54,40l.63.11a55.41,55.41,0,0,1,13.79,4.78A42.94,42.94,0,0,1,609.75,139.48Z"/><path class="cls-13" d="M600,213.77l2.21,1.39a357.77,357.77,0,0,0,7.67-46.8c.23-2.52.38-5,.49-7.38-.33-.3-.65-.61-1-.9a74,74,0,0,0-10.19-7.4c-1.78-1.11-3.48-2.27-5.15-3.45l-2.47-1.86c-.87-.61-1.61-1.29-2.4-1.94-2.15-1.75-4.29-3.55-6.47-5.4a247,247,0,0,1-8.83,41.78c-2.22,7.48-4.81,14.87-7.66,22.14,1.76,0,3.52.07,5.3.07,2.53.23,5.07.55,7.59.95a72,72,0,0,1,7.37,1.95,74.71,74.71,0,0,1,7,3.06C595.67,211.23,597.8,212.5,600,213.77Z"/><path class="cls-14" d="M506.22,341.91c-6.09-13.68-9.67-28.31-12.37-43-.68-3.68-1.3-7.39-1.73-11.1s-1-7.42-1.25-11.16l-.5-5.58c-.15-1.87-.23-3.74-.35-5.61l-.33-5.61-.15-5.61c-.09-1.87-.09-3.74-.09-5.61l.08-5.61.07-5.62.25-5.61.27-5.59c.13-1.87.31-3.74.46-5.6.34-3.74.6-7.45,1.06-11.17s.86-7.44,1.4-11.15l1.71-11.08c.6-3.69,1.37-7.34,2-11,.35-1.84.66-3.68,1.06-5.5l1.22-5.47a509.48,509.48,0,0,1,27.07-85.27A646,646,0,0,1,566.16,0l.32.18a644.91,644.91,0,0,0-38.61,80.38A505.78,505.78,0,0,0,502,165.75l-1.14,5.46c-.37,1.8-.64,3.64-1,5.47-.61,3.66-1.3,7.31-1.85,11l-1.54,11c-.47,3.68-.75,7.39-1.21,11.07s-.66,7.39-.95,11.08c-.14,1.84-.3,3.69-.4,5.53l-.26,5.57-.27,5.55-.11,5.54-.11,5.57c-.07,1.85,0,3.71,0,5.55a325.29,325.29,0,0,0,3.18,44.32c1,7.36,2.37,14.66,4,21.89a164.48,164.48,0,0,0,6.2,21.46Z"/><path class="cls-12" d="M806.26,576.29a341.7,341.7,0,0,0,40.62,19.47c2.22.89,4.42,1.68,6.59,2.42l1.09-.66a70.68,70.68,0,0,0,9.47-7.31c1.54-1.32,3.07-2.55,4.6-3.77l2.35-1.75c.78-.58,1.61-1.1,2.42-1.67,3.25-2.22,6.57-4.43,10.1-6.65a127.39,127.39,0,0,1,11.43-6.75l1.35.91a38.11,38.11,0,0,1-4.2,13.44,52.47,52.47,0,0,1-7.91,11.25,41,41,0,0,1-10.73,8.12c57.14,10.07,82.73-31.08,71.6-62.13,0,0,43,.21,48.8-47.52,1.56-12.84-3.13-24.93-11.76-35.94q-1,3.6-2.22,7.11c-.64,1.75-1.16,3.56-1.78,5.35s-1.22,3.59-1.87,5.38a48.94,48.94,0,0,1-2.46,5.11,48.12,48.12,0,0,1-3.31,4.59,49.8,49.8,0,0,1-4,4.1c-1.44,1.25-3,2.46-4.51,3.6a49.1,49.1,0,0,1-5.05,3,32.29,32.29,0,0,1-5.78,2.12L949.93,497a37.41,37.41,0,0,1,1.32-5.82,53.61,53.61,0,0,1,1.68-5.26c.55-1.7,1.34-3.37,1.89-4.9a45.62,45.62,0,0,1,2.08-4.6,31.63,31.63,0,0,1,2.38-4.4,34.28,34.28,0,0,1,2.86-4.11l3.07-4c1-1.4,1.93-2.73,2.8-4.27q3.06-5.31,5.77-10.91c-17.32-16.78-43.38-30.44-68.16-39.3.69,2.12,1.33,4.25,1.88,6.44,1,3.74,2.09,7.49,2.81,11.4a30.8,30.8,0,0,1-.1,11.91A38,38,0,0,1,906,450.49a26.45,26.45,0,0,1-8.4,9.19L896,459c-.65-4.2-.95-7.8-1.26-11.25s-.6-6.73-.8-10a55.49,55.49,0,0,1,.22-9.73,57.82,57.82,0,0,0,.44-10.1c-.29-4.18-.78-8.41-1.42-12.69a210.85,210.85,0,0,0-22.67-5.64,276.7,276.7,0,0,0-40.71-4.14c.47.87.93,1.75,1.36,2.62.62,1.43,1.44,2.82,2.15,4.25s1.41,2.88,2.08,4.34a30.91,30.91,0,0,1,1.44,4.59,29.54,29.54,0,0,1,.45,4.79,45.89,45.89,0,0,1-.43,4.82,43.13,43.13,0,0,1-1.18,4.77,38.53,38.53,0,0,1-2,4.6c-.46.75-.9,1.47-1.44,2.19l-.81,1.06c-.31.35-.57.7-.91,1l-1.62-.15c-.29-.39-.52-.75-.78-1.14l-.68-1.1c-.44-.72-.81-1.44-1.18-2.13a42.87,42.87,0,0,1-2-4.08c-.61-1.27-1.17-2.57-1.65-3.89a36.49,36.49,0,0,1-1.35-3.8,19.17,19.17,0,0,1-1-3.79,21.16,21.16,0,0,1-.43-3.89c-.09-1.32-.06-2.68-.23-4s-.33-2.66-.61-4c-.55-2.42-1.22-4.85-2-7.25a286.7,286.7,0,0,0-48.93,4.3L769,401l2,3.42c.58,1.16,1.3,2.32,1.94,3.51s1.29,2.39,1.89,3.63a22,22,0,0,1,1.26,3.88,20.51,20.51,0,0,1,.23,4.07,33.09,33.09,0,0,1-.62,4.09,30.16,30.16,0,0,1-1.41,4,25.6,25.6,0,0,1-2.24,3.73,19,19,0,0,1-1.53,1.72l-.86.81a12.16,12.16,0,0,1-1,.76l-1.53-.26c-.28-.35-.47-.67-.72-1l-.63-.94c-.41-.61-.75-1.21-1.09-1.78a36.93,36.93,0,0,1-1.84-3.32,28.67,28.67,0,0,1-1.45-3.07,22,22,0,0,1-1.18-2.94,11.68,11.68,0,0,1-.77-2.91,14.33,14.33,0,0,1-.2-3.07v-3.15A30,30,0,0,0,759,409l-.74-3.06-.88-3.07-.3-.84c-29.41,7-55.13,20.28-66.87,43.18-9,17.56,5.81,43.23,31.64,69l1.39-.23,5.69-1.26,5.56-1.53,5.46-1.81c1.78-.73,3.52-1.49,5.24-2.27l5-2.73a44.88,44.88,0,0,1,5-2.6,41.71,41.71,0,0,1,5.14-2.22c1.71-.74,3.52-1.31,5.3-2s3.68-1.28,5.52-2,3.75-1.36,5.81-2a46.45,46.45,0,0,1,6.36-1.77l1.12,1.18a39.54,39.54,0,0,1-2.75,6.3,62.78,62.78,0,0,1-3.81,5.51,48.12,48.12,0,0,1-4.6,4.85c-1.66,1.44-3.4,2.82-5.18,4.14a55.13,55.13,0,0,1-5.73,3.29,59.22,59.22,0,0,1-6.23,2.24c-2.14.5-4.26,1.06-6.43,1.42s-4.33.74-6.44,1.18a91.6,91.6,0,0,1-11.79,1.4,410.94,410.94,0,0,0,63,46.27c1.1-1.36,2.1-2.73,3.06-4.11l3.45-5.51a56.53,56.53,0,0,1,3.49-5.4,53.07,53.07,0,0,1,3.85-5.12c1.3-1.71,2.78-3.34,4.12-5s2.9-3.36,4.31-5.06,2.93-3.4,4.6-5.09a52.37,52.37,0,0,1,5.2-5.12l1.53.57a44.84,44.84,0,0,1,0,7.51,57.86,57.86,0,0,1-1.15,7.27,51.7,51.7,0,0,1-2.1,7,55.33,55.33,0,0,1-2.9,6.66,61.19,61.19,0,0,1-3.74,6.13,40.93,40.93,0,0,1-4.6,5.55c-1.74,1.7-3.49,3.36-5.24,5Zm97.9-85.51c-4.31-9.55,9.69-20.89,16.45-25.64a12.08,12.08,0,0,1,6.95-2.75,8.89,8.89,0,0,1,7.67,6.14,18.44,18.44,0,0,1,.11,10.23A29,29,0,0,1,929,491.84,18,18,0,0,1,916.12,498,13.11,13.11,0,0,1,904.16,490.78ZM723.91,433.89c-.49-9,15.39-7.3,20.4-5.69,2.12.69,4.37,1.87,5,4,.77,2.71-1.58,5.32-4,6.7C740,441.83,724.42,443.07,723.91,433.89Zm92.27,80.85c-7.75-.37-18.61-10.47-10.84-17.87,2.7-2.56,8.14-2.95,11.53-4.1,4.72-1.61,9.14-3.54,14.18-1.7a10,10,0,0,1,6.71,8.54c.16,4.72-3.75,8.57-7.78,11a24.82,24.82,0,0,1-13.8,4.1Z"/><path class="cls-13" d="M736.17,427q-3.24-8.07-6-16.33c-17.62,7.73-32,18.84-40,34.37-9,17.56,5.81,43.24,31.64,69l1.39-.23,5.69-1.26L734.5,511l5.46-1.81c1.78-.73,3.52-1.48,5.24-2.27l5-2.72a46.73,46.73,0,0,1,4.95-2.61,43.29,43.29,0,0,1,5.14-2.22c1.71-.74,3.52-1.3,5.3-2s3.59-1.4,5.52-2c1.09-.43,2.21-.83,3.37-1.19a289.52,289.52,0,0,1-32.58-54c-6.64,1.78-17.59,1.38-18-6.28C723.59,428.09,730.15,426.74,736.17,427Z"/><path class="cls-13" d="M812.32,544.21c1.35-1.7,2.77-3.39,4.31-5.06l.27-.3a286.91,286.91,0,0,1-36.78-37.48c-.8,1.11-1.52,2.18-2.33,3.24a49.1,49.1,0,0,1-4.6,4.84c-1.66,1.44-3.4,2.82-5.18,4.14a55.13,55.13,0,0,1-5.73,3.29,60,60,0,0,1-6.23,2.24c-2.14.51-4.26,1.06-6.44,1.43s-4.32.73-6.43,1.18a93.38,93.38,0,0,1-11.79,1.39,410.94,410.94,0,0,0,63,46.27c1.1-1.36,2.1-2.72,3.06-4.1l3.45-5.52a54.65,54.65,0,0,1,3.49-5.4,53.07,53.07,0,0,1,3.85-5.12C809.51,547.54,811,545.91,812.32,544.21Z"/><path class="cls-13" d="M873.31,603.39c24.6,4.34,43.33-.83,55.82-10.58a191.52,191.52,0,0,1-36.79-9.38c-.09.19-.17.37-.26.54a52.47,52.47,0,0,1-8,11.36A41.23,41.23,0,0,1,873.31,603.39Z"/><path class="cls-13" d="M808.27,574.77l-1.94,1.64a340.82,340.82,0,0,0,40.61,19.47c2.23.89,4.42,1.69,6.59,2.42l1.09-.66a69.86,69.86,0,0,0,9.47-7.31c1.54-1.32,3.07-2.54,4.6-3.77l2.35-1.75c.78-.58,1.61-1.1,2.42-1.67,2.17-1.48,4.38-3,6.65-4.43a236.24,236.24,0,0,1-35.71-19.25c-6.22-4.06-12.26-8.34-18.12-12.93-.5,1.61-1,3.28-1.53,4.81a56.18,56.18,0,0,1-2.9,6.67,49.92,49.92,0,0,1-8.34,11.68C811.77,571.39,810,573,808.27,574.77Z"/><path class="cls-14" d="M716.63,454.88c14.1-1.9,28.4-1.3,42.52.23,3.52.39,7.05.79,10.56,1.4s7,1.12,10.5,1.87l5.24,1c1.73.35,3.46.78,5.2,1.18l5.19,1.2,5.15,1.36c1.72.48,3.44.92,5.15,1.43l5.09,1.53,5.1,1.53,5,1.72,5,1.76c1.68.61,3.33,1.27,5,1.92,3.31,1.3,6.65,2.53,9.9,3.95s6.54,2.71,9.76,4.25l9.64,4.6c3.21,1.53,6.33,3.2,9.5,4.81,1.58.81,3.21,1.59,4.74,2.43l4.6,2.6A482.17,482.17,0,0,1,950,543.2a611.37,611.37,0,0,1,62.13,57.85l-.25.23A611.73,611.73,0,0,0,949,544.56a480,480,0,0,0-70.69-46.42l-4.65-2.65c-1.54-.83-3.2-1.57-4.73-2.36-3.16-1.54-6.3-3.07-9.51-4.6l-9.62-4.36c-3.22-1.42-6.52-2.65-9.75-4.06s-6.56-2.57-9.84-3.83c-1.65-.61-3.29-1.27-5-1.85l-5-1.72-5-1.75-5-1.53-5-1.53c-1.68-.51-3.39-1-5.07-1.44a304.86,304.86,0,0,0-41.28-9c-7-1.07-14-1.76-21-2.19a153.9,153.9,0,0,0-21.15-.08Z"/><path class="cls-9" d="M887.49,881.67a.87.87,0,0,1-.71,1l-35.48,7.45c37.41,24.19,86.11,39.64,149.5,37.52-1.56-46.85-12.16-85.06-28.31-116.3l-9.2,33.72a.87.87,0,0,1-1.71-.29l3.71-46.23a222.42,222.42,0,0,0-39.49-48.2l-3.39,46.26a.87.87,0,0,1-.75.75.89.89,0,0,1-1-.75l-5.12-55.18a262.17,262.17,0,0,0-43.74-29.12l4.6,42.65a.88.88,0,1,1-1.72.34l-14.81-49a329.82,329.82,0,0,0-42.31-16.51l4.59,35.07a.87.87,0,0,1-.55.91.88.88,0,0,1-1.13-.51l-13.55-38.62c-43.81-12.33-77.65-13-77.65-13s2.41,28,14.32,65.32l26,9.2a.86.86,0,0,1,.57,1,.87.87,0,0,1-1,.73L746,746.33a346.66,346.66,0,0,0,16.46,40l41.15,10.81a.87.87,0,0,1,.66.92.88.88,0,0,1-1,.79l-36-3a286.32,286.32,0,0,0,22.57,36l46.2,5.62a.87.87,0,0,1,0,1.73l-38.64,2.32a233.86,233.86,0,0,0,43.25,41.38l45.89-1.9A.88.88,0,0,1,887.49,881.67Z"/><path class="cls-10" d="M886.64,881a.88.88,0,0,1,.22,1.74l-35.49,7.44c37.42,24.19,86.11,39.64,149.51,37.53-.1-2.81-.23-5.57-.39-8.31C943.61,911.06,890.37,880,851.1,837.48c-41.25-44.64-68.1-100.94-84-159.78a292.86,292.86,0,0,0-37.83-4.11s2.41,28,14.32,65.32l26,9.2a.86.86,0,0,1,.57,1,.87.87,0,0,1-1,.73L746,746.33a346.66,346.66,0,0,0,16.46,40l41.15,10.81a.87.87,0,0,1,.66.92.88.88,0,0,1-1,.79l-36-3a286.32,286.32,0,0,0,22.57,36l46.2,5.62a.87.87,0,0,1,0,1.73l-38.64,2.32a233.86,233.86,0,0,0,43.25,41.38Z"/><path class="cls-11" d="M789.79,732.22q12.36,12.62,24.83,25.12l25,25q12.55,12.54,25.12,24.81T890,831.64c4.23,4.08,8.48,8.16,12.8,12.14s8.6,8,12.94,12c8.67,8,17.44,15.78,26.48,23.29l6.82,5.59c2.4,1.78,4.6,3.68,7,5.38s4.72,3.53,7.22,5.06l1.84,1.21c.6.42,1.23.81,1.87,1.17l3.83,2.17a110.5,110.5,0,0,1-15.15-9.06c-2.44-1.67-4.8-3.43-7.19-5.15l-7-5.38c-9.25-7.32-18.2-15-27-22.79-17.67-15.59-34.72-31.85-51.58-48.31s-33.38-33.24-49.67-50.26c-8.14-8.54-16.31-17-24.31-25.63S772.84,715.8,765,707Z"/><path class="cls-11" d="M804.23,716c2.68-2.89-1.78-7.07-4.48-4.19S801.54,718.9,804.23,716Z"/><path class="cls-11" d="M785.88,770.72c2.7-2.88-1.78-7.05-4.46-4.19S783.18,773.6,785.88,770.72Z"/><path class="cls-11" d="M870,779.59c2.7-2.88-1.78-7.05-4.46-4.17S867.28,782.47,870,779.59Z"/><path class="cls-11" d="M858.73,856.38c2.7-2.88-1.76-7.06-4.46-4.18S856,859.26,858.73,856.38Z"/><path class="cls-11" d="M908.13,810.16c2.68-2.89-1.78-7-4.48-4.19S905.45,813,908.13,810.16Z"/><path class="cls-11" d="M924.36,883.86c2.7-2.86-1.78-7.05-4.46-4.16S921.66,886.73,924.36,883.86Z"/><path class="cls-11" d="M982.27,886.72c2.7-2.87-1.78-7.06-4.46-4.17S979.57,889.58,982.27,886.72Z"/><path class="cls-3" d="M901.75,764.08a334.21,334.21,0,0,0,99.16-4.15c-4.79-56-19.93-98.1-41.17-129.53l-1.54,1.68-3,2.95-3.18,2.75-3.34,2.56c-1.15.82-2.27,1.74-3.4,2.63s-2.3,1.77-3.48,2.63a21.13,21.13,0,0,1-3.82,2,18.93,18.93,0,0,1-4.2,1,32.3,32.3,0,0,1-4.4,0,22.06,22.06,0,0,1-11.15-3.72l-1.09-.75c-.37-.29-.72-.55-1.09-.89l-.2-2c.26-.43.54-.76.81-1.15l.8-1a20.81,20.81,0,0,1,1.53-1.79,31.77,31.77,0,0,1,3.07-3.07,30.48,30.48,0,0,1,3-2.48,28.51,28.51,0,0,1,3-2,13.09,13.09,0,0,1,3.07-1.45,13.49,13.49,0,0,1,3.32-.72c1.15-.17,2.33-.29,3.53-.43a34.55,34.55,0,0,0,3.46-.78l3.36-1.14,3.35-1.24,3.38-1.35,2-.89a189.66,189.66,0,0,0-79.32-61.11l.72,2.27,1.18,4.72.92,4.81c.23,1.61.6,3.24.89,4.88s.6,3.29.84,5a28.82,28.82,0,0,1,.13,5,27.13,27.13,0,0,1-1,4.89,45.44,45.44,0,0,1-2,4.6,37.66,37.66,0,0,1-2.78,4.38,35.8,35.8,0,0,1-3.63,4,25.77,25.77,0,0,1-4.77,3.32l-1.84-.66a33.81,33.81,0,0,1-2-5.25,41.2,41.2,0,0,1-1.22-4.74,54.43,54.43,0,0,1-1.2-8.61,21.82,21.82,0,0,1,.94-8.07c.36-1.33.84-2.68,1.16-4s.6-2.75.8-4.14l.38-4.18.26-4.25.14-4.29v-4.28a272.81,272.81,0,0,0-69-14.19c.73,1.18,1.45,2.19,2.34,3.46s1.79,2.56,2.67,3.86a27.32,27.32,0,0,1,2.07,4.16,23.06,23.06,0,0,1,1.05,4.49,31.67,31.67,0,0,1-.29,9.56,32.26,32.26,0,0,1-1.38,4.91,24.72,24.72,0,0,1-2.57,5l-1.92.35a29.35,29.35,0,0,1-4.26-3.45,38.53,38.53,0,0,1-3.31-3.45,36.53,36.53,0,0,1-2.73-3.47,34.86,34.86,0,0,1-2.22-3.53,17,17,0,0,1-1.65-3.66,19,19,0,0,1-.91-3.93c-.2-1.35-.31-2.74-.54-4.1s-.5-2.72-.85-4l-1.18-3.94-1-3.07a382.72,382.72,0,0,0-68.81,4.27q-.88.14-1.74.33a22.73,22.73,0,0,0-16.9,27.35Q692,585,695.48,596.14l1.95-.52a27.88,27.88,0,0,0,4-1.53c1.32-.68,2.59-1.34,3.88-2a20.9,20.9,0,0,1,3.86-1.66,18.8,18.8,0,0,1,4-1,36.53,36.53,0,0,1,4.31-.55,39.13,39.13,0,0,1,4.59-.28,46.7,46.7,0,0,1,5,0,39.12,39.12,0,0,1,5.71.54l1.09,1.64a25.94,25.94,0,0,1-2.25,5.55,35.83,35.83,0,0,1-3.24,4.59,42,42,0,0,1-3.87,3.79,53.27,53.27,0,0,1-4.4,3.07,30.46,30.46,0,0,1-4.83,2.11,33.77,33.77,0,0,1-5.18,1c-1.78.07-3.54.17-5.29.17h-4.35a248.52,248.52,0,0,0,38.32,69.34l1.68-1.28,2.1-1.73,2-1.81a43,43,0,0,0,6.61-8.4c.53-.75,1-1.45,1.53-2.17s1-1.41,1.53-2.1,1.07-1.34,1.63-2,1.13-1.33,1.73-2c2.39-2.61,4.8-5.26,7.55-8s5.55-5.76,9.2-9l1.92.45a29.7,29.7,0,0,1,1.65,14,39.94,39.94,0,0,1-3.88,13.3,29.25,29.25,0,0,1-1.68,3.07,26.47,26.47,0,0,1-2,2.82c-.8.9-1.5,1.78-2.33,2.59s-1.7,1.58-2.57,2.34a104,104,0,0,1-11.42,7.67L751.19,690l-2.88,1.53a212.33,212.33,0,0,0,66.05,48.85L816,737.5l2-4.1,1.73-4.16,1.53-4.21a26.86,26.86,0,0,0,.94-4.34c.13-1.49.26-3,.42-4.38a19.76,19.76,0,0,1,.57-4.2,18.53,18.53,0,0,1,1.15-4.07,38.17,38.17,0,0,1,1.53-4.1,42.91,42.91,0,0,1,1.84-4.29,45,45,0,0,1,2.18-4.6,42.19,42.19,0,0,1,2.77-5.18l1.93-.37a24.47,24.47,0,0,1,4.2,4.6,37.2,37.2,0,0,1,2.76,5.27,41.18,41.18,0,0,1,1.61,5.64,50.56,50.56,0,0,1,.55,5.76,33.25,33.25,0,0,1-.61,5.72,34.82,34.82,0,0,1-2,5.4c-.9,1.7-1.74,3.4-2.78,5s-2,3.19-3,4.8l-3.07,4.6-3.45,4.29-3.8,3.94-.46.4a262.26,262.26,0,0,0,52.9,15.59l.59-.46,2.33-1.84c.77-.63,1.51-1.31,2.21-2a29.59,29.59,0,0,0,2.09-2.1c1.31-1.48,2.65-2.92,3.86-4.46.61-.75,1.29-1.44,1.91-2.17s1.28-1.44,2-2.1l1-1,1-1c.66-.64,1.43-1.27,2.19-1.88,2.91-2.53,6.06-5,9.35-7.51a120.49,120.49,0,0,1,11.21-7.66l1.77.84a28,28,0,0,1,.25,3.77c0,.63,0,1.22,0,1.85s-.19,1.21-.19,1.83c-.15,1.19-.33,2.4-.56,3.6a17.8,17.8,0,0,1-.42,1.75c-.16.58-.3,1.16-.49,1.73a47.5,47.5,0,0,1-6.13,12.83A36.46,36.46,0,0,1,901.75,764.08Z"/><path class="cls-4" d="M748.31,691.52a212.33,212.33,0,0,0,66.05,48.85L816,737.5l2-4.1,1.73-4.16,1.53-4.21a26.86,26.86,0,0,0,.94-4.34c.13-1.49.26-3,.42-4.38a19.76,19.76,0,0,1,.57-4.2,18.53,18.53,0,0,1,1.15-4.07,38.17,38.17,0,0,1,1.53-4.1,42.91,42.91,0,0,1,1.84-4.29,45,45,0,0,1,2.18-4.6,42.19,42.19,0,0,1,2.77-5.18l1.93-.37a24.47,24.47,0,0,1,4.2,4.6,37.2,37.2,0,0,1,2.76,5.27,41.18,41.18,0,0,1,1.61,5.64,50.56,50.56,0,0,1,.55,5.76,33.25,33.25,0,0,1-.61,5.72,34.82,34.82,0,0,1-2,5.4c-.9,1.7-1.74,3.4-2.78,5s-2,3.19-3,4.8l-3.07,4.6-3.45,4.29-3.8,3.94-.46.4a262.17,262.17,0,0,0,52.84,15.59l.59-.46,2.33-1.84c.77-.63,1.5-1.31,2.21-2a29.46,29.46,0,0,0,2.08-2.1c1.32-1.48,2.66-2.92,3.87-4.46.61-.75,1.28-1.44,1.91-2.17s1.28-1.44,1.95-2.1l1-1,1-1c.66-.64,1.42-1.27,2.19-1.88,2.91-2.53,6.05-5,9.35-7.51a121.69,121.69,0,0,1,11.2-7.66l1.78.84a28,28,0,0,1,.25,3.77c0,.63,0,1.22,0,1.85s-.19,1.21-.19,1.83c-.15,1.19-.33,2.4-.56,3.6a17.8,17.8,0,0,1-.42,1.75c-.17.58-.3,1.16-.49,1.73a47.5,47.5,0,0,1-6.13,12.83,36.53,36.53,0,0,1-9.72,9.56,334.21,334.21,0,0,0,99.16-4.15q-.85-10.12-2.15-19.62a459.6,459.6,0,0,1-154.07-49.37c-24.6-13-48.27-28.65-68.19-48A30,30,0,0,1,778,656.41a39.94,39.94,0,0,1-3.88,13.3,29.25,29.25,0,0,1-1.68,3.07,26.47,26.47,0,0,1-2,2.82c-.8.9-1.5,1.78-2.33,2.59s-1.7,1.58-2.57,2.34a104,104,0,0,1-11.42,7.67l-2.87,1.73Z"/><path class="cls-4" d="M726.06,542.77c-6.78.71-12.92,1.53-18.29,2.35-.58.09-1.16.2-1.73.33a22.75,22.75,0,0,0-16.91,27.35Q692,585,695.52,596.14l2-.52a27.56,27.56,0,0,0,4-1.53c1.32-.68,2.59-1.34,3.88-2a20.61,20.61,0,0,1,3.86-1.66,18.72,18.72,0,0,1,4-1,37.07,37.07,0,0,1,4.31-.55,39.3,39.3,0,0,1,4.6-.28,46.52,46.52,0,0,1,5,0,39.13,39.13,0,0,1,5.72.54l1.09,1.64a26,26,0,0,1-2.26,5.55,36.78,36.78,0,0,1-3.23,4.59,42.06,42.06,0,0,1-3.88,3.79,51.63,51.63,0,0,1-4.4,3.07,30.06,30.06,0,0,1-4.83,2.11,33.54,33.54,0,0,1-5.18,1c-1.77.07-3.54.17-5.28.17h-4.36a249,249,0,0,0,38.32,69.34l1.69-1.28,2.1-1.73,2-1.81a42.6,42.6,0,0,0,6.6-8.4c.54-.75,1-1.45,1.53-2.17s1-1.41,1.54-2.1,1.07-1.34,1.62-2,1.14-1.33,1.73-2c2.39-2.61,4.8-5.26,7.56-8s5.55-5.76,9.2-9l1.44.34a191.68,191.68,0,0,1-21.81-25.37C738.66,595.22,728.26,569.18,726.06,542.77Z"/><path class="cls-5" d="M1000,760.13l.94-.2v-.52q-11.46-10.83-23.32-21.28c-2.49-2.18-5-4.37-7.54-6.54a60.5,60.5,0,0,1-5-7.93,74,74,0,0,1-5.06-12.5,107.33,107.33,0,0,1-3.06-13.25q-1.12-6.72-1.67-13.67a51.88,51.88,0,0,0-.75,14A60.52,60.52,0,0,0,957,712a48.56,48.56,0,0,0,6,12.84c.34.56.67,1,1,1.54q-26.64-22.57-54.78-43.2l-5.77-4.2c-.42-.53-.82-1.08-1.22-1.65l-1.12-1.66-1-1.7c-.33-.56-.63-1.16-.95-1.74s-.63-1.17-.89-1.77a60.83,60.83,0,0,1-2.94-7.37c-.86-2.51-1.58-5.07-2.19-7.66a140.92,140.92,0,0,1-2.76-15.79c-.63-5.35-1.07-10.71-1.38-16.17a76.55,76.55,0,0,0-1,16.35A81.75,81.75,0,0,0,890,656.16c.31,1.35.65,2.68,1.08,4s.84,2.65,1.36,3.94a46.2,46.2,0,0,0,3.59,7.51,40.87,40.87,0,0,0,2.68,4c-16.78-12-33.89-23.61-51.44-34.5-.46-.66-.89-1.34-1.3-2a58.67,58.67,0,0,1-3.51-6.83c-2.1-4.71-3.85-9.57-5.49-14.47s-3.17-9.86-4.7-14.84-3-10-4.6-15a110.84,110.84,0,0,0,2.22,15.59A137.89,137.89,0,0,0,834,618.76a88.05,88.05,0,0,0,6.27,14.56,45.67,45.67,0,0,0,3.76,5.77q-3.88-2.4-7.79-4.74c-25.21-15-50.87-29-77.33-41.46l-.13.28q21.9,12,43.49,24.52a39,39,0,0,0-4-.7,51.84,51.84,0,0,0-17.07,1,77.09,77.09,0,0,0-16.11,5.47,73.05,73.05,0,0,0-14.47,8.7q7.56-3.57,15.33-6.45c2.6-.92,5.21-1.82,7.85-2.62s5.28-1.5,8-2a68.88,68.88,0,0,1,8.07-1.32,57,57,0,0,1,8.16-.29,45.22,45.22,0,0,1,8.11,1c.53.11,1,.24,1.53.38q13.57,7.93,26.94,16.23,16,9.88,31.84,20.14a36.47,36.47,0,0,0-7.66-.7,67.58,67.58,0,0,0-17.69,2.88c-2.85.86-5.7,1.75-8.46,2.84s-5.51,2.2-8.17,3.49A105.27,105.27,0,0,0,809,674.45c5.47-2.24,10.92-4.43,16.37-6.5,2.76-1,5.49-2,8.25-2.94s5.55-1.78,8.32-2.63,5.58-1.53,8.42-2.11c1.41-.32,2.82-.63,4.24-.81s2.85-.4,4.28-.52a42.42,42.42,0,0,1,8.58,0,22.78,22.78,0,0,1,2.32.35c12.81,8.38,25.5,17,38,25.92Q918.53,693,929.1,701a29.76,29.76,0,0,0-5.81-1.3,51.8,51.8,0,0,0-15.42.66,81.63,81.63,0,0,0-14.71,4.15,76.34,76.34,0,0,0-13.69,6.67c4.83-1.54,9.62-3,14.44-4.36s9.65-2.51,14.51-3.38a71.5,71.5,0,0,1,14.67-1.31,33.92,33.92,0,0,1,9.78,1.74q22.38,17.05,43.71,35.45Q988.49,749.5,1000,760.13Z"/><path class="cls-6" d="M124.28,80.09c-24.56-5.94-51.63-4-73.08,7.86C35.61,96.56,22.84,110.51,14,126.62a91.44,91.44,0,0,1,14,6.13c1.26.69,2.57,1.3,3.88,1.95s2.62,1.28,3.92,2a28.6,28.6,0,0,1,3.62,2.43,26,26,0,0,1,3.06,3.06A43.24,43.24,0,0,1,45,145.75a38.79,38.79,0,0,1,2.1,4,35.67,35.67,0,0,1,1.54,4.39c.17.78.35,1.56.46,2.39l.16,1.22V159l-1.14,1a10.64,10.64,0,0,0-1.29-.23l-1.18-.29c-.8-.2-1.52-.45-2.24-.68a39.38,39.38,0,0,1-4.09-1.53,38.3,38.3,0,0,1-3.71-1.78,34,34,0,0,1-3.42-2,20.63,20.63,0,0,1-3.07-2.27,21.79,21.79,0,0,1-2.92-2.68l-2.59-3c-.91-.95-1.81-1.9-2.78-2.77q-5.11-4.53-10.73-8.79a115.9,115.9,0,0,0-7.66,22.57h0a96.45,96.45,0,0,0-2,11.95v.14a24.91,24.91,0,0,0-.23,2.59l-.09,1.06L0,174.82v3.77H0a128.54,128.54,0,0,0,3.07,28.74l.78-.5,3.88-2.13,4.06-1.83L16,201.43l4.39-1.1c1.41-.26,2.94-.69,4.47-1s3.07-.54,4.6-.77a32.1,32.1,0,0,1,4.6,0,28.86,28.86,0,0,1,4.6,1A42.27,42.27,0,0,1,43,201.57a38.66,38.66,0,0,1,3.92,2.67,30.59,30.59,0,0,1,3.38,3.45,20.82,20.82,0,0,1,1.38,2.08l.61,1.09c.18.4.38.75.55,1.18l-.75,1.33c-.45.11-.86.15-1.27.25l-1.2.17a15,15,0,0,1-2.24.24,31.39,31.39,0,0,1-4.15.35,34.78,34.78,0,0,1-3.82.2,31.4,31.4,0,0,1-3.63,0,16.91,16.91,0,0,1-3.48-.21,18.5,18.5,0,0,1-3.45-.69c-1.16-.25-2.34-.63-3.54-.81s-2.42-.34-3.65-.43H18l-3.71.23-3.74.46-3.74.7c-.67.14-1.35.29-2,.48,7.56,28.11,23.68,55.34,45.25,74L50.8,285,52.33,280l2-4.8,2.41-4.6c.9-1.53,1.69-3.06,2.62-4.59s1.87-3.07,2.87-4.6a26.5,26.5,0,0,1,7.66-7.37,47.69,47.69,0,0,1,4.81-2.49,52,52,0,0,1,5.17-1.68,39.76,39.76,0,0,1,5.44-.75,26.93,26.93,0,0,1,5.66.52l.55,1.42a40.75,40.75,0,0,1-3.16,4.34c-1,1.39-2.1,2.53-3.07,3.79s-1.94,2.39-2.94,3.46A40.7,40.7,0,0,1,79.49,266a23.86,23.86,0,0,1-3,3.06,26.68,26.68,0,0,1-3.28,2.73c-1.12.92-2.43,1.78-3.42,2.75s-2.06,2-3.07,3.06L64,281l-2.59,3.63L59,288.41l-2.19,4c-.17.32-.32.67-.49,1l2,1.53c20,14.27,41.89,21.16,63.68,28.07-.15-3.07-.24-6.13-.15-9.2,0-1.41-.08-2.94,0-4.47s.08-3.07.08-4.6a29.06,29.06,0,0,1,.62-4.45,27.9,27.9,0,0,1,1.54-4.24,41.81,41.81,0,0,1,2.17-4,38.52,38.52,0,0,1,2.75-3.73,37,37,0,0,1,3.37-3.37,22.39,22.39,0,0,1,2-1.53l1.07-.71c.39-.21.74-.44,1.15-.64l1.4.64c.12.45.2.86.3,1.29l.23,1.23c.14.82.23,1.57.31,2.36a66.32,66.32,0,0,1,.29,8.64c0,1.38-.15,2.71-.32,4a21,21,0,0,1-.72,3.86,24.46,24.46,0,0,1-1.27,3.73l-1.53,3.72c-.46,1.26-.91,2.53-1.28,3.82q-1.35,5.19-2.37,10.53l5,1.67c23.21,7.8,47.64,18.84,65.91,38.59,1.87,2,4.42.62,3.71-2-5.06-19.06-4.47-38.32-1.53-56.71l-3.07-1a18.63,18.63,0,0,1-3.2-1.33,16.87,16.87,0,0,1-2.91-1.89,28.52,28.52,0,0,1-2.75-2.29,41.36,41.36,0,0,1-5.22-5.77,20.73,20.73,0,0,1-1.26-1.78l-.61-1c-.2-.35-.4-.68-.6-1.07l.51-1.44c.39-.17.76-.28,1.14-.43l1.12-.33c.75-.21,1.48-.36,2.21-.5a30.71,30.71,0,0,1,4.28-.32,35.21,35.21,0,0,1,4.1.33,37,37,0,0,1,3.91.91,19.84,19.84,0,0,1,3.65,1.53c.58.34,1.15.71,1.7,1.09.34-1.47.69-2.88,1-4.42,5-20.92,11.62-41.53,13.55-63.6a54,54,0,0,0-6,.18,37.78,37.78,0,0,0-8.66,2,54.4,54.4,0,0,1-8.42,2.14c-2.88.57-5.82,1.06-9,1.54s-6.48,1-10.42,1.3l-.95-1.2a25,25,0,0,1,6.25-9.61,33.5,33.5,0,0,1,9.2-6.43,26.76,26.76,0,0,1,10.94-2.61,87.67,87.67,0,0,1,11.22.69,58.41,58.41,0,0,1,6.31,1c0-3,0-6.06-.21-9.12-1.15-19.56-7.56-39.52-17.57-57.59a77.2,77.2,0,0,0-7.32,3.7,70.19,70.19,0,0,0-9.78,7,80.65,80.65,0,0,1-9.83,7,123.5,123.5,0,0,1-11,6.13,65.7,65.7,0,0,1-12.58,4.85l-1-1.14a52.75,52.75,0,0,1,6.59-11.92,67.59,67.59,0,0,1,8.74-10,44.78,44.78,0,0,1,11-7.66c4.07-2,8.35-3.63,12.58-5.29,2.16-.86,4.48-1.62,6.76-2.27-11.76-18-27.08-33.66-44.13-44.09h0l-2.08-1.26-1.17-.67c-.7-.4-1.41-.8-2.13-1.18l-.93-.5L146.41,88h0A97.43,97.43,0,0,0,136,83.61c-.09.28-.18.55-.26.83a44.5,44.5,0,0,0-1.36,8.43,35.84,35.84,0,0,1-1.77,8.44,71.27,71.27,0,0,1-3.44,8.57,40.49,40.49,0,0,1-5.55,8.77l-1.54-.15a34,34,0,0,1-3.66-9.84,40.48,40.48,0,0,1-.87-9.94,26.62,26.62,0,0,1,2.22-9.82A91,91,0,0,1,124.28,80.09ZM155.5,301.75a8,8,0,0,1,6.62,3.06,12.13,12.13,0,0,1,2.54,12.54c-1.45,3.33-6.51,6.68-10.27,5.15-4.16-1.7-5.13-8.64-4.87-12.43S151.77,302.24,155.5,301.75ZM101.79,195.07a17.36,17.36,0,0,1,1.7,17.09c-9.42,19.13-29.2-2.83-35.48-10.5a23.43,23.43,0,0,1-5.75-10.85,12.29,12.29,0,0,1,4.51-11.73,14,14,0,0,1,12-1.67,33.27,33.27,0,0,1,10.15,5.72c4.81,3.51,9.72,7.1,12.92,12Zm46.69,10.44c-1.6-3.8,1.87-9,8.38-12.55s15.88-5.12,21.84-3.59,7.94,6.13,4.34,10.56c-4.49,5.55-21.47,11.22-29.34,9.43a7,7,0,0,1-5.22-3.81Z"/><path class="cls-7" d="M161.12,276.55c-3.57-8.14-7.26-16.25-10.93-24.31s-7.49-16.11-11.32-24.12-7.74-16-11.79-23.9-8.14-15.78-12.41-23.56c-2.1-3.95-4.23-7.84-6.5-11.62s-4.46-7.66-6.79-11.43c-4.63-7.57-9.46-15-14.75-22.15a139.79,139.79,0,0,0-17.44-20.05l2.51,2.2L73,118.69c.43.37.84.74,1.23,1.14l2.36,2.36c.79.87,1.59,1.56,2.33,2.41,1.47,1.67,3,3.28,4.44,5s2.87,3.42,4.25,5.15c5.47,7,10.39,14.36,15.32,21.89s9.43,15.22,13.8,23,8.54,15.63,12.57,23.57q12.06,23.84,22.65,48.36,5.31,12.26,10.32,24.62c1.65,4.12,3.34,8.27,4.87,12.41s3.07,8.31,4.6,12.49C168.22,292.9,164.69,284.69,161.12,276.55Z"/><path class="cls-8" d="M172.59,343.07a120.55,120.55,0,0,1,29.93,23.11c1.87,2,4.42.62,3.71-2-5.06-19.06-4.47-38.32-1.53-56.71l-3.07-1a18.63,18.63,0,0,1-3.2-1.33,16.87,16.87,0,0,1-2.91-1.89,28.52,28.52,0,0,1-2.75-2.29,41.36,41.36,0,0,1-5.22-5.77,20.73,20.73,0,0,1-1.26-1.78l-.61-1c-.2-.35-.4-.68-.6-1.07l.51-1.44c.39-.17.76-.28,1.14-.43l1.12-.33c.75-.21,1.48-.36,2.21-.5a30.71,30.71,0,0,1,4.28-.32,35.21,35.21,0,0,1,4.1.33,37,37,0,0,1,3.91.91,19.84,19.84,0,0,1,3.65,1.53c.58.34,1.15.71,1.7,1.09.34-1.47.69-2.88,1-4.42,5-20.92,11.62-41.53,13.55-63.6a54,54,0,0,0-6,.18,37.78,37.78,0,0,0-8.66,2,54.4,54.4,0,0,1-8.42,2.14c-2.88.57-5.82,1.06-9,1.54s-6.48,1-10.42,1.3l-.95-1.2a25,25,0,0,1,6.25-9.61,33.5,33.5,0,0,1,9.2-6.43,26.76,26.76,0,0,1,10.94-2.61,87.67,87.67,0,0,1,11.22.69,58.41,58.41,0,0,1,6.31,1c0-3,0-6.06-.21-9.12-1.15-19.56-7.56-39.52-17.57-57.59a77.2,77.2,0,0,0-7.32,3.7,70.71,70.71,0,0,0-9.69,7,81.64,81.64,0,0,1-9.82,7c-3.5,2.17-7.16,4.23-11,6.13a74.74,74.74,0,0,1-10.2,4.17c2.49,5.13,4.8,10.36,7,15.61a30.67,30.67,0,0,1,14.77-.78c6,1.54,7.94,6.13,4.34,10.56-2.14,2.62-7.16,5.35-12.67,7.22C185.49,251.17,190.34,301.26,172.59,343.07Z"/><path class="cls-8" d="M124.18,80.1A110.47,110.47,0,0,0,71.58,80a169.53,169.53,0,0,1,31.76,22c21.72,19,38.65,42.81,51.61,68.68a59.66,59.66,0,0,1,5.1-8.47,67.59,67.59,0,0,1,8.74-10,44.78,44.78,0,0,1,11-7.66c4.07-2,8.35-3.63,12.58-5.29,2.16-.86,4.48-1.62,6.76-2.27-11.76-18-27.08-33.66-44.13-44.09h0l-2.08-1.26-1.17-.67c-.7-.4-1.41-.8-2.13-1.18l-.93-.5L146.41,88h0A97.43,97.43,0,0,0,136,83.61c-.09.28-.18.55-.26.83a44.5,44.5,0,0,0-1.36,8.43,35.84,35.84,0,0,1-1.77,8.44,71.27,71.27,0,0,1-3.44,8.57,40.49,40.49,0,0,1-5.55,8.77l-1.54-.15a34,34,0,0,1-3.66-9.84,40.48,40.48,0,0,1-.87-9.94,26.62,26.62,0,0,1,2.22-9.82C121.12,85.83,122.65,83,124.18,80.1Z"/></svg>