<svg id="Layer_1" data-name="Layer 1" xmlns="http://www.w3.org/2000/svg" viewBox="0 0 3873 3873"><defs><style>.cls-1{fill:#fff;}</style></defs><path class="cls-1" d="M3388.47,0H484.53C216.93,0,0,216.93,0,484.53V3388.47C0,3656.07,216.93,3873,484.53,3873H3388.47c267.6,0,484.53-216.93,484.53-484.53V484.53C3873,216.93,3656.07,0,3388.47,0ZM2193.7,2706.18l-345.19,345.23c-141.27,141.27-327.43,211.93-513.42,211.93s-372.16-70.66-513.46-211.93v0c-141.31-141.29-212-327.43-212-513.46s70.65-372.16,212-513.44l345.2-345.21c141.27-141.27,327.38-211.93,513.46-211.93s372.14,70.66,513.41,211.93A720.54,720.54,0,0,1,2341.47,1893c-43.34,30.16-95,46.17-148.71,46.17a259.81,259.81,0,0,1-144.32-43.15,464.58,464.58,0,0,0-33.82-37.67c-91.84-91.87-213.07-137.79-334.33-137.81s-242.54,45.94-334.38,137.81l-345.2,345.2c-91.88,91.84-137.81,213.07-137.81,334.34s46,242.51,137.81,334.38,213.07,137.78,334.38,137.78,242.48-45.94,334.34-137.78l284.12-284.14a944.83,944.83,0,0,0,239.21,30.68q39.07,0,77.76-3.2A724.23,724.23,0,0,1,2193.7,2706.18Zm857.71-857.67-345.19,345.2c-141.31,141.27-327.43,211.94-513.46,211.94S1820.57,2335,1679.3,2193.71a720.78,720.78,0,0,1-147.76-213.77c43.33-30.14,95-46.17,148.75-46.17,51.88,0,101.88,15,144.27,43.18a475.79,475.79,0,0,0,33.82,37.66v0c91.88,91.84,213.11,137.77,334.38,137.8s242.49-46,334.33-137.8l345.2-345.22c91.89-91.86,137.81-213.09,137.81-334.36s-45.92-242.49-137.81-334.35S2659.22,862.89,2538,862.89s-242.48,45.94-334.38,137.81l-284.12,284.13a944.74,944.74,0,0,0-239.16-30.7q-39.15,0-77.81,3.22a724.44,724.44,0,0,1,76.82-90.54l345.2-345.19c141.31-141.31,327.42-212,513.45-212s372.16,70.65,513.46,212,211.92,327.4,211.92,513.43S3192.68,1707.21,3051.41,1848.51Z"/></svg>