<svg id="Calque_1" data-name="Calque 1" xmlns="http://www.w3.org/2000/svg" viewBox="0 0 800 800"><defs><style>.cls-1{fill:#fff;}</style></defs><path class="cls-1" d="M711.11,0H88.89A88.89,88.89,0,0,0,0,88.89V711.11A88.89,88.89,0,0,0,88.89,800H711.11A88.89,88.89,0,0,0,800,711.11V88.89A88.89,88.89,0,0,0,711.11,0ZM449.6,593.44c0,33.07-20.67,55.12-49.6,55.12s-49.6-22-49.6-55.12V328.87c0-33.07,20.69-55.14,49.6-55.14s49.6,22,49.6,55.14ZM400,236.53c-29.62,0-55.8-26.86-55.8-57.17,0-28.25,26.18-54.45,55.8-54.45s55.8,25.51,55.8,54.45C455.82,210.36,431,236.53,400,236.53Z"/></svg>