<svg id="Calque_1" data-name="Calque 1" xmlns="http://www.w3.org/2000/svg" viewBox="0 0 716.67 623.86"><defs><style>.cls-1{fill:#20694d;fill-rule:evenodd;}</style></defs><path class="cls-1" d="M591.64,17.52C521.7-14.45,435.4-4.8,358.33,64.15,281.26-4.8,195-14.45,125,17.52,51.16,51.29,0,129.69,0,220.09c0,88.85,37,156.64,85.56,211.29C124.43,475.15,172,511.79,214,544.14c9.52,7.34,18.76,14.45,27.55,21.38,17.07,13.46,35.4,27.81,54,38.67s39.76,19.67,62.77,19.67,44.21-8.82,62.78-19.67,36.9-25.21,54-38.67c8.78-6.93,18-14,27.55-21.38,42-32.35,89.6-69,128.47-112.76,48.54-54.65,85.56-122.44,85.56-211.29C716.67,129.69,665.51,51.29,591.64,17.52Zm2.08,380.66c-35.41,39.88-78.28,72.93-120.09,105.16-9.93,7.66-19.8,15.27-29.5,22.91-17.53,13.83-33.17,26-48.25,34.77s-27.23,12.84-37.55,12.84-22.46-4-37.54-12.84-30.72-20.94-48.26-34.77C262.84,518.61,253,511,243,503.34c-41.81-32.23-84.68-65.28-120.1-105.16C80,349.8,50,293.34,50,220.09,50,148.4,90.51,88.28,145.81,63c53.73-24.56,125.91-18.06,194.51,53.22a25,25,0,0,0,36,0C444.94,44.94,517.13,38.44,570.85,63c55.3,25.28,95.82,85.4,95.82,157.09C666.67,293.34,636.69,349.8,593.72,398.18Z"/><path class="cls-1" d="M67.33,88.42c69.4-110.22,124-63,124-63l144,55s43,8,46,8,93-52,93-52l109,8,111,124s-11,191-48,208-156,229-265.5,212-297.5-169-306.5-205S-.67,196.42,67.33,88.42Z"/></svg>