<svg id="Calque_1" data-name="Calque 1" xmlns="http://www.w3.org/2000/svg" viewBox="0 0 533.35 533.38"><defs><style>.cls-1{fill:#fff;}</style></defs><path class="cls-1" d="M490.67.05h-445A43.67,43.67,0,0,0,0,41.71v446a47,47,0,0,0,45.67,45.66h445a44.66,44.66,0,0,0,42.66-45.66v-446A41,41,0,0,0,490.67.05Zm-324,444.67H89V207.05h77.67Zm-37-273.67a39.33,39.33,0,0,1-40.67-41,39.32,39.32,0,0,1,41.33-41,39.32,39.32,0,0,1,40.67,41,39.34,39.34,0,0,1-41.33,41Zm315,273.67h-78v-130c0-31-11-52.34-38.67-52.34a41.67,41.67,0,0,0-39,28,47.77,47.77,0,0,0-2.67,19V444.72H209.67V207.05h76.66v33.33a77.36,77.36,0,0,1,70-40.33c50.34,0,88.34,33.33,88.34,104.33Z"/></svg>