<svg id="Layer_1" data-name="Layer 1" xmlns="http://www.w3.org/2000/svg" viewBox="0 0 3873 3873"><defs><style>.cls-1{fill:#fff;}</style></defs><path class="cls-1" d="M3388.47,0H484.53C216.93,0,0,216.93,0,484.53V3388.47C0,3656.07,216.93,3873,484.53,3873H3388.47c267.6,0,484.53-216.93,484.53-484.53V484.53C3873,216.93,3656.07,0,3388.47,0Zm-2570,989.18H3054.53c74.26,0,140,41.71,178.81,104.8L1936.82,1851.44,647,1082.77C686.44,1026,748.71,989.18,818.47,989.18ZM3269.92,2647.93c0,129.74-96.92,235.89-215.39,235.89H818.47c-118.47,0-215.39-106.15-215.39-235.89V1227.1l1333.1,794.46,1333.74-779.2Z"/></svg>