{
  "accessors": [
    {
      "bufferView": 2,
      "componentType": 5126,
      "count": 19179,
      "max": [
        1.7506763935089111,
        5.753562927246094,
        3.2423129081726074
      ],
      "min": [
        -1.8469102382659912,
        -0.0037317276000976563,
        -2.6086273193359375
      ],
      "type": "VEC3"
    },
    {
      "bufferView": 2,
      "byteOffset": 230148,
      "componentType": 5126,
      "count": 19179,
      "max": [
        0.9998689293861389,
        0.9998593330383301,
        0.9999808073043823
      ],
      "min": [
        -0.9999781250953674,
        -0.9999974370002747,
        -0.9997773170471191
      ],
      "type": "VEC3"
    },
    {
      "bufferView": 1,
      "componentType": 5126,
      "count": 19179,
      "max": [
        0.9917015433311462,
        0.9912643432617188
      ],
      "min": [
        0.006567771080881357,
        0.006425261497497559
      ],
      "type": "VEC2"
    },
    {
      "bufferView": 1,
      "byteOffset": 153432,
      "componentType": 5126,
      "count": 19179,
      "max": [
        0.9917015433311462,
        0.9912643432617188
      ],
      "min": [
        0.006567771080881357,
        0.006425261497497559
      ],
      "type": "VEC2"
    },
    {
      "bufferView": 1,
      "byteOffset": 306864,
      "componentType": 5126,
      "count": 19179,
      "max": [
        0.9917015433311462,
        0.9912643432617188
      ],
      "min": [
        0.006567771080881357,
        0.006425261497497559
      ],
      "type": "VEC2"
    },
    {
      "bufferView": 0,
      "componentType": 5125,
      "count": 105744,
      "type": "SCALAR"
    },
    {
      "bufferView": 2,
      "byteOffset": 460296,
      "componentType": 5126,
      "count": 5191,
      "max": [
        38.17490768432617,
        33.86370086669922,
        38.177791595458984
      ],
      "min": [
        2.0837349891662598,
        -0.00031999999191612005,
        2.0799810886383057
      ],
      "type": "VEC3"
    },
    {
      "bufferView": 2,
      "byteOffset": 522588,
      "componentType": 5126,
      "count": 5191,
      "max": [
        1.0,
        1.0,
        1.0
      ],
      "min": [
        -1.0,
        -0.9999980330467224,
        -1.0
      ],
      "type": "VEC3"
    },
    {
      "bufferView": 1,
      "byteOffset": 460296,
      "componentType": 5126,
      "count": 5191,
      "max": [
        0.997294008731842,
        0.9583989977836609
      ],
      "min": [
        0.012986999936401844,
        0.022207021713256836
      ],
      "type": "VEC2"
    },
    {
      "bufferView": 1,
      "byteOffset": 501824,
      "componentType": 5126,
      "count": 5191,
      "max": [
        0.997294008731842,
        0.9583989977836609
      ],
      "min": [
        0.012986999936401844,
        0.022207021713256836
      ],
      "type": "VEC2"
    },
    {
      "bufferView": 1,
      "byteOffset": 543352,
      "componentType": 5126,
      "count": 5191,
      "max": [
        0.997294008731842,
        0.9583989977836609
      ],
      "min": [
        0.012986999936401844,
        0.022207021713256836
      ],
      "type": "VEC2"
    },
    {
      "bufferView": 0,
      "byteOffset": 422976,
      "componentType": 5125,
      "count": 21759,
      "type": "SCALAR"
    }
  ],
  "asset": {
    "extras": {
      "author": "TdoubleU8 (https://sketchfab.com/TdoubleU8)",
      "license": "CC-BY-4.0 (http://creativecommons.org/licenses/by/4.0/)",
      "source": "https://sketchfab.com/3d-models/king-monkey-1534c1b10378454697ea2f2aa888270c",
      "title": "King Monkey"
    },
    "generator": "Sketchfab-12.68.0",
    "version": "2.0"
  },
  "bufferViews": [
    {
      "buffer": 0,
      "byteLength": 510012,
      "name": "floatBufferViews",
      "target": 34963
    },
    {
      "buffer": 0,
      "byteLength": 584880,
      "byteOffset": 510012,
      "byteStride": 8,
      "name": "floatBufferViews",
      "target": 34962
    },
    {
      "buffer": 0,
      "byteLength": 584880,
      "byteOffset": 1094892,
      "byteStride": 12,
      "name": "floatBufferViews",
      "target": 34962
    }
  ],
  "buffers": [
    {
      "byteLength": 1679772,
      "uri": "scene.bin"
    }
  ],
  "extensionsRequired": [
    "KHR_materials_pbrSpecularGlossiness"
  ],
  "extensionsUsed": [
    "KHR_materials_pbrSpecularGlossiness"
  ],
  "images": [
    {
      "uri": "textures/material_diffuse.png"
    },
    {
      "uri": "textures/material_specularGlossiness.png"
    },
    {
      "uri": "textures/material_1_diffuse.png"
    },
    {
      "uri": "textures/material_1_specularGlossiness.png"
    }
  ],
  "materials": [
    {
      "doubleSided": true,
      "extensions": {
        "KHR_materials_pbrSpecularGlossiness": {
          "diffuseFactor": [
            1.0,
            1.0,
            1.0,
            1.0
          ],
          "diffuseTexture": {
            "index": 0
          },
          "glossinessFactor": 1.0,
          "specularFactor": [
            1.0,
            1.0,
            1.0
          ],
          "specularGlossinessTexture": {
            "index": 1
          }
        }
      },
      "name": "material"
    },
    {
      "doubleSided": true,
      "extensions": {
        "KHR_materials_pbrSpecularGlossiness": {
          "diffuseFactor": [
            1.0,
            1.0,
            1.0,
            1.0
          ],
          "diffuseTexture": {
            "index": 2
          },
          "glossinessFactor": 1.0,
          "specularFactor": [
            1.0,
            1.0,
            1.0
          ],
          "specularGlossinessTexture": {
            "index": 3
          }
        }
      },
      "name": "material_1"
    }
  ],
  "meshes": [
    {
      "name": "Object_0",
      "primitives": [
        {
          "attributes": {
            "NORMAL": 1,
            "POSITION": 0,
            "TEXCOORD_0": 2,
            "TEXCOORD_1": 3,
            "TEXCOORD_2": 4
          },
          "indices": 5,
          "material": 0,
          "mode": 4
        }
      ]
    },
    {
      "name": "Object_1",
      "primitives": [
        {
          "attributes": {
            "NORMAL": 7,
            "POSITION": 6,
            "TEXCOORD_0": 8,
            "TEXCOORD_1": 9,
            "TEXCOORD_2": 10
          },
          "indices": 11,
          "material": 1,
          "mode": 4
        }
      ]
    }
  ],
  "nodes": [
    {
      "children": [
        1
      ],
      "matrix": [
        1.0,
        0.0,
        0.0,
        0.0,
        0.0,
        2.220446049250313e-16,
        -1.0,
        0.0,
        0.0,
        1.0,
        2.220446049250313e-16,
        0.0,
        0.0,
        0.0,
        0.0,
        1.0
      ],
      "name": "Sketchfab_model"
    },
    {
      "children": [
        2
      ],
      "name": "root"
    },
    {
      "children": [
        3
      ],
      "matrix": [
        1.0,
        0.0,
        0.0,
        0.0,
        0.0,
        2.220446049250313e-16,
        1.0,
        0.0,
        0.0,
        -1.0,
        2.220446049250313e-16,
        0.0,
        0.0,
        0.0,
        0.0,
        1.0
      ],
      "name": "GLTF_SceneRootNode"
    },
    {
      "children": [
        4,
        6
      ],
      "name": "root_0"
    },
    {
      "children": [
        5
      ],
      "matrix": [
        0.08893066644668579,
        0.0,
        0.0,
        0.0,
        0.0,
        0.08893066644668579,
        0.0,
        0.0,
        0.0,
        0.0,
        0.08893066644668579,
        0.0,
        0.019573183730244637,
        -0.18066814541816711,
        0.23198704421520233,
        1.0
      ],
      "name": "node_id30_1"
    },
    {
      "mesh": 0,
      "name": "Object_5"
    },
    {
      "children": [
        7
      ],
      "matrix": [
        0.00470724469050765,
        0.0,
        0.0,
        0.0,
        0.0,
        0.00470724469050765,
        0.0,
        0.0,
        0.0,
        0.0,
        0.00470724469050765,
        0.0,
        -0.13748599588871002,
        0.2788388133049011,
        0.32610464096069336,
        1.0
      ],
      "name": "node_id36_2"
    },
    {
      "mesh": 1,
      "name": "Object_7"
    }
  ],
  "samplers": [
    {
      "magFilter": 9729,
      "minFilter": 9987,
      "wrapS": 10497,
      "wrapT": 10497
    }
  ],
  "scene": 0,
  "scenes": [
    {
      "name": "Sketchfab_Scene",
      "nodes": [
        0
      ]
    }
  ],
  "textures": [
    {
      "sampler": 0,
      "source": 0
    },
    {
      "sampler": 0,
      "source": 1
    },
    {
      "sampler": 0,
      "source": 2
    },
    {
      "sampler": 0,
      "source": 3
    }
  ]
}
