{"asset":{"generator":"glTF-Transform v4.0.2","version":"2.0","extras":{"author":"TdoubleU8 (https://sketchfab.com/TdoubleU8)","license":"CC-BY-4.0 (http://creativecommons.org/licenses/by/4.0/)","source":"https://sketchfab.com/3d-models/king-monkey-1534c1b10378454697ea2f2aa888270c","title":"King Monkey"}},"accessors":[{"type":"VEC3","componentType":5126,"count":19179,"max":[1.7506763935089111,5.753562927246094,3.2423129081726074],"min":[-1.8469102382659912,-0.0037317276000976562,-2.6086273193359375],"bufferView":0,"byteOffset":0},{"type":"VEC3","componentType":5126,"count":19179,"bufferView":0,"byteOffset":12},{"type":"VEC2","componentType":5126,"count":19179,"bufferView":0,"byteOffset":24},{"type":"VEC2","componentType":5126,"count":19179,"bufferView":0,"byteOffset":32},{"type":"VEC2","componentType":5126,"count":19179,"bufferView":0,"byteOffset":40},{"type":"SCALAR","componentType":5125,"count":105744,"bufferView":1,"byteOffset":0},{"type":"SCALAR","componentType":5125,"count":21759,"bufferView":1,"byteOffset":422976},{"type":"VEC3","componentType":5126,"count":5191,"max":[38.17490768432617,33.86370086669922,38.177791595458984],"min":[2.0837349891662598,-0.00031999999191612005,2.0799810886383057],"bufferView":2,"byteOffset":0},{"type":"VEC3","componentType":5126,"count":5191,"bufferView":2,"byteOffset":12},{"type":"VEC2","componentType":5126,"count":5191,"bufferView":2,"byteOffset":24},{"type":"VEC2","componentType":5126,"count":5191,"bufferView":2,"byteOffset":32},{"type":"VEC2","componentType":5126,"count":5191,"bufferView":2,"byteOffset":40}],"bufferViews":[{"buffer":0,"byteOffset":0,"byteLength":920592,"byteStride":48,"target":34962},{"buffer":0,"byteOffset":920592,"byteLength":510012,"target":34963},{"buffer":0,"byteOffset":1430604,"byteLength":249168,"byteStride":48,"target":34962}],"samplers":[{"magFilter":9729,"minFilter":9987,"wrapS":10497,"wrapT":10497}],"textures":[{"source":0,"sampler":0},{"source":3,"sampler":0},{"source":1,"sampler":0},{"source":5,"sampler":0},{"source":2,"sampler":0},{"source":4,"sampler":0}],"images":[{"mimeType":"image/png","uri":"textures/material_diffuse.png"},{"mimeType":"image/png","uri":"textures/material_1_diffuse.png"},{"mimeType":"image/png","uri":"specular_1.png"},{"mimeType":"image/png","uri":"metallicRoughness_1.png"},{"mimeType":"image/png","uri":"specular_2.png"},{"mimeType":"image/png","uri":"metallicRoughness_2.png"}],"buffers":[{"uri":"scene.bin","byteLength":1679772}],"materials":[{"name":"material","doubleSided":true,"pbrMetallicRoughness":{"metallicFactor":0,"baseColorTexture":{"index":0},"metallicRoughnessTexture":{"index":1}},"extensions":{"KHR_materials_ior":{"ior":1000},"KHR_materials_specular":{"specularTexture":{"index":4},"specularColorTexture":{"index":4}}}},{"name":"material_1","doubleSided":true,"pbrMetallicRoughness":{"metallicFactor":0,"baseColorTexture":{"index":2},"metallicRoughnessTexture":{"index":3}},"extensions":{"KHR_materials_ior":{"ior":1000},"KHR_materials_specular":{"specularTexture":{"index":5},"specularColorTexture":{"index":5}}}}],"meshes":[{"name":"Object_0","primitives":[{"attributes":{"NORMAL":1,"POSITION":0,"TEXCOORD_0":2,"TEXCOORD_1":3,"TEXCOORD_2":4},"mode":4,"material":0,"indices":5}]},{"name":"Object_1","primitives":[{"attributes":{"NORMAL":8,"POSITION":7,"TEXCOORD_0":9,"TEXCOORD_1":10,"TEXCOORD_2":11},"mode":4,"material":1,"indices":6}]}],"nodes":[{"name":"Sketchfab_model","rotation":[-0.7071067811865475,0,0,0.7071067811865476],"children":[1]},{"name":"root","children":[2]},{"name":"GLTF_SceneRootNode","rotation":[0.7071067811865475,0,0,0.7071067811865476],"children":[3]},{"name":"root_0","children":[4,6]},{"name":"node_id30_1","translation":[0.019573183730244637,-0.18066814541816711,0.23198704421520233],"scale":[0.08893066644668579,0.08893066644668579,0.08893066644668579],"children":[5]},{"name":"Object_5","mesh":0},{"name":"node_id36_2","translation":[-0.13748599588871002,0.2788388133049011,0.32610464096069336],"scale":[0.00470724469050765,0.00470724469050765,0.00470724469050765],"children":[7]},{"name":"Object_7","mesh":1}],"scenes":[{"name":"Sketchfab_Scene","nodes":[0]}],"scene":0,"extensionsUsed":["KHR_materials_ior","KHR_materials_specular"]}