<?xml version="1.0" encoding="UTF-8" standalone="no" ?>
<!DOCTYPE svg PUBLIC "-//W3C//DTD SVG 1.1//EN" "http://www.w3.org/Graphics/SVG/1.1/DTD/svg11.dtd">
<svg xmlns="http://www.w3.org/2000/svg" xmlns:xlink="http://www.w3.org/1999/xlink" version="1.1" width="1200" height="900" viewBox="0 0 1200 900" xml:space="preserve">
<desc>Created with Fabric.js 5.2.4</desc>
<defs>
</defs>
<g transform="matrix(1 0 0 1 600 450)" id="9b891f95-6729-4452-8954-5d88ae2537f3"  >
<rect style="stroke: none; stroke-width: 1; stroke-dasharray: none; stroke-linecap: butt; stroke-dashoffset: 0; stroke-linejoin: miter; stroke-miterlimit: 4; fill: rgb(255,255,255); fill-rule: nonzero; opacity: 1; visibility: hidden;" vector-effect="non-scaling-stroke"  x="-600" y="-450" rx="0" ry="0" width="1200" height="900" />
</g>
<g transform="matrix(Infinity NaN NaN Infinity 0 0)" id="384f8dd7-07a2-446e-a658-e6ef5368accc"  >
</g>
<g transform="matrix(0.83 0 0 0.83 600 450)"  >
<g style="" vector-effect="non-scaling-stroke"   >
		<g transform="matrix(2.69 0 0 2.69 -42.43 119.47)"  >
<path style="stroke: none; stroke-width: 1; stroke-dasharray: none; stroke-linecap: butt; stroke-dashoffset: 0; stroke-linejoin: miter; stroke-miterlimit: 4; fill: rgb(89,63,63); fill-rule: nonzero; opacity: 1;" vector-effect="non-scaling-stroke"  transform=" translate(-132.75, -192.85)" d="M 134.221 201.048 C 134.84 201.203 135.459 201.27700000000002 136.06900000000002 201.27700000000002 C 139.47000000000003 201.27700000000002 142.56500000000003 198.97400000000002 143.42700000000002 195.526 C 144.44400000000002 191.459 141.972 187.33700000000002 137.90500000000003 186.32000000000002 L 131.27300000000002 184.66100000000003 C 127.20000000000002 183.64400000000003 123.08300000000003 186.11600000000004 122.06700000000002 190.18300000000002 C 121.05000000000003 194.25000000000003 123.52200000000002 198.372 127.58900000000003 199.389 L 134.221 201.048 z" stroke-linecap="round" />
</g>
		<g transform="matrix(2.69 0 0 2.69 42.43 119.47)"  >
<path style="stroke: none; stroke-width: 1; stroke-dasharray: none; stroke-linecap: butt; stroke-dashoffset: 0; stroke-linejoin: miter; stroke-miterlimit: 4; fill: rgb(89,63,63); fill-rule: nonzero; opacity: 1;" vector-effect="non-scaling-stroke"  transform=" translate(-164.25, -192.86)" d="M 165.726 184.661 L 159.094 186.32 C 155.027 187.337 152.555 191.459 153.572 195.52599999999998 C 154.435 198.975 157.529 201.277 160.93 201.277 C 161.54000000000002 201.277 162.16 201.20299999999997 162.77800000000002 201.04799999999997 L 169.41000000000003 199.38899999999998 C 173.47700000000003 198.37199999999999 175.949 194.24999999999997 174.93200000000002 190.183 C 173.91500000000002 186.116 169.794 183.646 165.726 184.661 z" stroke-linecap="round" />
</g>
		<g transform="matrix(2.69 0 0 2.69 0 207.68)"  >
<path style="stroke: none; stroke-width: 1; stroke-dasharray: none; stroke-linecap: butt; stroke-dashoffset: 0; stroke-linejoin: miter; stroke-miterlimit: 4; fill: rgb(89,63,63); fill-rule: nonzero; opacity: 1;" vector-effect="non-scaling-stroke"  transform=" translate(-148.5, -225.6)" d="M 162.18 231.692 L 156.091 231.692 L 156.091 211.923 C 156.091 207.731 152.692 204.332 148.5 204.332 C 144.308 204.332 140.909 207.731 140.909 211.923 L 140.909 231.692 L 134.82 231.692 C 130.628 231.692 127.229 235.091 127.229 239.28300000000002 C 127.229 243.47500000000002 130.628 246.87400000000002 134.82 246.87400000000002 L 162.18 246.87400000000002 C 166.372 246.87400000000002 169.77100000000002 243.47500000000002 169.77100000000002 239.28300000000002 C 169.771 235.091 166.372 231.692 162.18 231.692 z" stroke-linecap="round" />
</g>
		<g transform="matrix(2.69 0 0 2.69 -110.55 -50.26)"  >
<path style="stroke: none; stroke-width: 1; stroke-dasharray: none; stroke-linecap: butt; stroke-dashoffset: 0; stroke-linejoin: miter; stroke-miterlimit: 4; fill: rgb(89,63,63); fill-rule: nonzero; opacity: 1;" vector-effect="non-scaling-stroke"  transform=" translate(-107.46, -129.84)" d="M 107.458 120.353 C 104.963 120.353 102.514 121.368 100.749 123.133 C 98.984 124.898 97.969 127.34599999999999 97.969 129.84199999999998 C 97.969 132.34699999999998 98.984 134.78599999999997 100.749 136.54999999999998 C 102.514 138.31499999999997 104.96199999999999 139.331 107.458 139.331 C 109.963 139.331 112.402 138.315 114.166 136.54999999999998 C 115.941 134.78599999999997 116.947 132.34699999999998 116.947 129.84199999999998 C 116.947 127.34699999999998 115.941 124.89799999999998 114.166 123.13299999999998 C 112.402 121.368 109.963 120.353 107.458 120.353 z" stroke-linecap="round" />
</g>
		<g transform="matrix(2.69 0 0 2.69 110.53 -50.26)"  >
<path style="stroke: none; stroke-width: 1; stroke-dasharray: none; stroke-linecap: butt; stroke-dashoffset: 0; stroke-linejoin: miter; stroke-miterlimit: 4; fill: rgb(89,63,63); fill-rule: nonzero; opacity: 1;" vector-effect="non-scaling-stroke"  transform=" translate(-189.54, -129.84)" d="M 189.536 120.353 C 187.041 120.353 184.592 121.368 182.827 123.133 C 181.062 124.898 180.047 127.34599999999999 180.047 129.84199999999998 C 180.047 132.337 181.06199999999998 134.78599999999997 182.827 136.54999999999998 C 184.593 138.31499999999997 187.041 139.331 189.536 139.331 C 192.041 139.331 194.489 138.315 196.244 136.54999999999998 C 198.019 134.78599999999997 199.025 132.338 199.025 129.84199999999998 C 199.025 127.34699999999998 198.019 124.90799999999999 196.244 123.13299999999998 C 194.489 121.368 192.041 120.353 189.536 120.353 z" stroke-linecap="round" />
</g>
		<g transform="matrix(2.69 0 0 2.69 0 0)"  >
<path style="stroke: none; stroke-width: 1; stroke-dasharray: none; stroke-linecap: butt; stroke-dashoffset: 0; stroke-linejoin: miter; stroke-miterlimit: 4; fill: rgb(89,63,63); fill-rule: nonzero; opacity: 1;" vector-effect="non-scaling-stroke"  transform=" translate(-148.5, -148.5)" d="M 285.289 110.01 C 278.205 102.89200000000001 268.945 98.73700000000001 259.001 98.165 C 251.30199999999996 77.14200000000001 237.49199999999996 58.38100000000001 219.56599999999997 44.76500000000001 C 198.984 29.132 174.41 20.869 148.5 20.869 C 122.59 20.869 98.01599999999999 29.131999999999998 77.434 44.765 C 59.507999999999996 58.381 45.69799999999999 77.143 37.998999999999995 98.16499999999999 C 28.054999999999993 98.73799999999999 18.794999999999995 102.89299999999999 11.710999999999995 110.00999999999999 C 4.109 117.648 -0.05 127.774 0 138.522 C 0.082 155.774 6.841 173.315 19.036 187.91299999999998 C 30.168 201.23899999999998 43.514 209.331 54.940000000000005 209.73299999999998 C 63.938 221.51099999999997 76.09100000000001 232.09199999999998 88.748 239.71899999999997 C 98.13600000000001 261.01399999999995 121.37200000000001 276.13199999999995 148.501 276.13199999999995 C 175.618 276.131 198.846 261.025 208.24200000000002 239.74299999999994 C 220.9 232.11599999999993 233.06400000000002 221.50899999999993 242.06 209.73199999999994 C 253.485 209.33099999999993 266.832 201.23799999999994 277.964 187.91199999999995 C 290.159 173.31499999999994 296.918 155.77299999999994 297 138.52099999999996 C 297.05 127.773 292.891 117.648 285.289 110.01 z M 148.5 257.153 C 123.56 257.153 103.27000000000001 239.931 103.27000000000001 218.76300000000003 C 103.27000000000001 196.02700000000004 125.20400000000001 166.69300000000004 148.5 166.69300000000004 C 171.796 166.69300000000004 193.73 196.02700000000004 193.73 218.76300000000003 C 193.73 239.932 173.44 257.153 148.5 257.153 z M 201.31 181.641 C 199.28 178.316 197.023 175.095 194.53 172.053 C 181.669 156.359 165.321 147.716 148.498 147.716 C 131.67499999999998 147.716 115.327 156.36 102.466 172.053 C 99.973 175.095 97.71499999999999 178.316 95.68599999999999 181.641 C 92.323 172.38299999999998 88.55399999999999 164.56199999999998 85.211 157.647 C 80.014 146.897 75.91 138.405 75.91 129.845 C 75.91 112.44800000000001 90.063 98.295 107.46 98.295 C 124.857 98.295 139.01 112.44800000000001 139.01 129.845 C 139.01 135.085 143.259 139.334 148.499 139.334 C 153.739 139.334 157.988 135.085 157.988 129.845 C 157.988 112.44800000000001 172.142 98.295 189.538 98.295 C 206.93400000000003 98.295 221.08800000000002 112.44800000000001 221.08800000000002 129.845 C 221.08800000000002 138.405 216.984 146.897 211.78700000000003 157.647 C 208.444 164.562 204.675 172.384 201.31 181.641 z M 263.399 175.747 C 255.225 185.532 246.126 190.68900000000002 241.288 190.77 C 237.16400000000002 189.095 232.418 190.51100000000002 229.892 194.193 C 225.017 201.3 219.16 207.788 212.589 213.42100000000002 C 212.589 213.41800000000003 212.59 213.41600000000003 212.59 213.41600000000003 C 215.862 192.82700000000003 222.775 178.52500000000003 228.875 165.90700000000004 C 234.881 153.48300000000003 240.067 142.75200000000004 240.067 129.84600000000003 C 240.067 101.98500000000003 217.4 79.31800000000004 189.53900000000002 79.31800000000004 C 172.657 79.31800000000004 157.68 87.64200000000004 148.5 100.40000000000003 C 139.32 87.64200000000004 124.343 79.31800000000004 107.461 79.31800000000004 C 79.6 79.31800000000004 56.933 101.98500000000004 56.933 129.84600000000003 C 56.933 142.75200000000004 62.119 153.48300000000003 68.125 165.90700000000004 C 74.225 178.52500000000003 81.138 192.82700000000006 84.41 213.41300000000004 C 84.41 213.41300000000004 84.411 213.41800000000003 84.41199999999999 213.42000000000004 C 77.84199999999998 207.78800000000004 71.984 201.30000000000004 67.109 194.19300000000004 C 64.582 190.51100000000005 59.836 189.09500000000003 55.712999999999994 190.77000000000004 C 50.873999999999995 190.68900000000005 41.77499999999999 185.53300000000004 33.60199999999999 175.74700000000004 C 24.367999999999988 164.69300000000004 19.03799999999999 151.09300000000005 18.978999999999992 138.43300000000005 C 18.95199999999999 132.77100000000004 21.147999999999993 127.43200000000004 25.161999999999992 123.39900000000004 C 29.22199999999999 119.32100000000004 34.626999999999995 117.07500000000005 40.38099999999999 117.07500000000005 C 41.373999999999995 117.07500000000005 42.40299999999999 117.15000000000005 43.43899999999999 117.29600000000005 C 48.09799999999999 117.95900000000005 52.547 115.10000000000005 53.87599999999999 110.58100000000005 C 66.133 68.93400000000005 105.04399999999998 39.84700000000005 148.50099999999998 39.84700000000005 C 191.95799999999997 39.84700000000005 230.86899999999997 68.93400000000005 243.12599999999998 110.58100000000005 C 244.456 115.10000000000005 248.90599999999998 117.96300000000005 253.563 117.29600000000005 C 254.599 117.15000000000005 255.628 117.07500000000005 256.621 117.07500000000005 C 262.375 117.07500000000005 267.781 119.32100000000004 271.84 123.39900000000004 C 275.854 127.43200000000004 278.04999999999995 132.77100000000004 278.02299999999997 138.43300000000005 C 277.963 151.093 272.633 164.693 263.399 175.747 z" stroke-linecap="round" />
</g>
</g>
</g>
</svg>